Fraternidad-ExtraBoldItalic.ufo
<glyph name="dollar" format="2">
  <advance width="1240"/>
  <unicode hex="0024"/>
  <outline>
    <contour>
      <point x="356" y="-200" type="line"/>
      <point x="394" y="40" type="line"/>
      <point x="661" y="40" type="line"/>
      <point x="623" y="-200" type="line"/>
    </contour>
    <contour>
      <point x="609" y="1398" type="line"/>
      <point x="647" y="1638" type="line"/>
      <point x="914" y="1638" type="line"/>
      <point x="876" y="1398" type="line"/>
    </contour>
    <contour>
      <point x="518" y="-30" type="curve" smooth="yes"/>
      <point x="231" y="-30"/>
      <point x="30" y="134"/>
      <point x="30" y="431" type="curve" smooth="yes"/>
      <point x="30" y="434"/>
      <point x="30" y="437"/>
      <point x="30" y="440" type="curve"/>
      <point x="301" y="482" type="line"/>
      <point x="312" y="325"/>
      <point x="416" y="224"/>
      <point x="574" y="224" type="curve" smooth="yes"/>
      <point x="694" y="224"/>
      <point x="862" y="289"/>
      <point x="862" y="432" type="curve" smooth="yes"/>
      <point x="862" y="500"/>
      <point x="809" y="533"/>
      <point x="751" y="552" type="curve" smooth="yes"/>
      <point x="733" y="558"/>
      <point x="714" y="564"/>
      <point x="696" y="570" type="curve" smooth="yes"/>
      <point x="420" y="662" type="line" smooth="yes"/>
      <point x="273" y="711"/>
      <point x="172" y="802"/>
      <point x="172" y="965" type="curve" smooth="yes"/>
      <point x="172" y="990"/>
      <point x="174" y="1014"/>
      <point x="178" y="1038" type="curve" smooth="yes"/>
      <point x="223" y="1325"/>
      <point x="466" y="1468"/>
      <point x="740" y="1468" type="curve" smooth="yes"/>
      <point x="990" y="1468"/>
      <point x="1161" y="1345"/>
      <point x="1207" y="1112" type="curve" smooth="yes"/>
      <point x="1211" y="1091"/>
      <point x="1214" y="1069"/>
      <point x="1216" y="1046" type="curve"/>
      <point x="934" y="996" type="line"/>
      <point x="933" y="1016"/>
      <point x="930" y="1034"/>
      <point x="925" y="1052" type="curve" smooth="yes"/>
      <point x="896" y="1156"/>
      <point x="807" y="1214"/>
      <point x="690" y="1214" type="curve" smooth="yes"/>
      <point x="589" y="1214"/>
      <point x="444" y="1153"/>
      <point x="444" y="1034" type="curve"/>
      <point x="444" y="1034"/>
      <point x="444" y="1034"/>
      <point x="444" y="1034" type="curve"/>
      <point x="444" y="977"/>
      <point x="487" y="942"/>
      <point x="552" y="915" type="curve" smooth="yes"/>
      <point x="633" y="881"/>
      <point x="747" y="859"/>
      <point x="853" y="823" type="curve" smooth="yes"/>
      <point x="1002" y="772"/>
      <point x="1134" y="691"/>
      <point x="1134" y="505" type="curve" smooth="yes"/>
      <point x="1134" y="484"/>
      <point x="1133" y="463"/>
      <point x="1131" y="443" type="curve" smooth="yes"/>
      <point x="1096" y="142"/>
      <point x="811" y="-30"/>
    </contour>
  </outline>
</glyph>
<glyph name="percent" format="2">
  <advance width="1740"/>
  <unicode hex="0025"/>
  <outline>
    <contour>
      <point x="231" y="0" type="line"/>
      <point x="83" y="180" type="line"/>
      <point x="1517" y="1440" type="line"/>
      <point x="1665" y="1258" type="line"/>
    </contour>
    <contour>
      <point x="1219" y="-30" type="curve" smooth="yes"/>
      <point x="1037" y="-30"/>
      <point x="896" y="113"/>
      <point x="896" y="295" type="curve" smooth="yes"/>
      <point x="896" y="500"/>
      <point x="1075" y="690"/>
      <point x="1283" y="690" type="curve" smooth="yes"/>
      <point x="1465" y="690"/>
      <point x="1606" y="548"/>
      <point x="1606" y="366" type="curve" smooth="yes"/>
      <point x="1606" y="155"/>
      <point x="1433" y="-30"/>
    </contour>
    <contour>
      <point x="1239" y="200" type="curve" smooth="yes"/>
      <point x="1314" y="200"/>
      <point x="1379" y="268"/>
      <point x="1379" y="342" type="curve" smooth="yes"/>
      <point x="1379" y="407"/>
      <point x="1328" y="460"/>
      <point x="1262" y="460" type="curve" smooth="yes"/>
      <point x="1190" y="460"/>
      <point x="1123" y="390"/>
      <point x="1123" y="319" type="curve" smooth="yes"/>
      <point x="1123" y="255"/>
      <point x="1175" y="200"/>
    </contour>
    <contour>
      <point x="465" y="750" type="curve" smooth="yes"/>
      <point x="283" y="750"/>
      <point x="142" y="892"/>
      <point x="142" y="1074" type="curve" smooth="yes"/>
      <point x="142" y="1281"/>
      <point x="319" y="1470"/>
      <point x="529" y="1470" type="curve" smooth="yes"/>
      <point x="711" y="1470"/>
      <point x="852" y="1327"/>
      <point x="852" y="1145" type="curve" smooth="yes"/>
      <point x="852" y="929"/>
      <point x="684" y="750"/>
    </contour>
    <contour>
      <point x="486" y="980" type="curve" smooth="yes"/>
      <point x="558" y="980"/>
      <point x="625" y="1050"/>
      <point x="625" y="1121" type="curve" smooth="yes"/>
      <point x="625" y="1185"/>
      <point x="573" y="1240"/>
      <point x="509" y="1240" type="curve" smooth="yes"/>
      <point x="434" y="1240"/>
      <point x="369" y="1172"/>
      <point x="369" y="1098" type="curve" smooth="yes"/>
      <point x="369" y="1033"/>
      <point x="421" y="980"/>
    </contour>
  </outline>
</glyph>
<glyph name="ampersand" format="2">
  <advance width="1309"/>
  <unicode hex="0026"/>
  <outline>
    <contour>
      <point x="485" y="-30" type="curve" smooth="yes"/>
      <point x="257" y="-30"/>
      <point x="69" y="66"/>
      <point x="43" y="292" type="curve" smooth="yes"/>
      <point x="41" y="310"/>
      <point x="40" y="328"/>
      <point x="40" y="347" type="curve" smooth="yes"/>
      <point x="40" y="499"/>
      <point x="98" y="631"/>
      <point x="201" y="731" type="curve" smooth="yes"/>
      <point x="224" y="754"/>
      <point x="249" y="775"/>
      <point x="276" y="794" type="curve"/>
      <point x="234" y="853"/>
      <point x="206" y="918"/>
      <point x="206" y="992" type="curve" smooth="yes"/>
      <point x="206" y="1008"/>
      <point x="207" y="1024"/>
      <point x="209" y="1039" type="curve"/>
      <point x="227" y="1210"/>
      <point x="345" y="1355"/>
      <point x="502" y="1424" type="curve" smooth="yes"/>
      <point x="576" y="1456"/>
      <point x="657" y="1466"/>
      <point x="737" y="1466" type="curve" smooth="yes"/>
      <point x="945" y="1466"/>
      <point x="1102" y="1368"/>
      <point x="1122" y="1148" type="curve"/>
      <point x="849" y="1094" type="line"/>
      <point x="839" y="1185"/>
      <point x="771" y="1212"/>
      <point x="689" y="1212" type="curve" smooth="yes"/>
      <point x="574" y="1212"/>
      <point x="477" y="1144"/>
      <point x="477" y="1021" type="curve" smooth="yes"/>
      <point x="477" y="957"/>
      <point x="557" y="880"/>
      <point x="598" y="834" type="curve" smooth="yes"/>
      <point x="873" y="528" type="line"/>
      <point x="876" y="542"/>
      <point x="878" y="555"/>
      <point x="880" y="569" type="curve"/>
      <point x="892" y="637"/>
      <point x="901" y="706"/>
      <point x="912" y="774" type="curve"/>
      <point x="1143" y="774" type="line"/>
      <point x="1129" y="683"/>
      <point x="1114" y="591"/>
      <point x="1100" y="500" type="curve" smooth="yes"/>
      <point x="1091" y="442"/>
      <point x="1083" y="374"/>
      <point x="1060" y="320" type="curve"/>
      <point x="1206" y="158" type="line"/>
      <point x="1006" y="-28" type="line"/>
      <point x="897" y="98" type="line"/>
      <point x="884" y="88"/>
      <point x="872" y="79"/>
      <point x="859" y="71" type="curve"/>
      <point x="745" y="-6"/>
      <point x="626" y="-30"/>
    </contour>
    <contour>
      <point x="537" y="228" type="curve" smooth="yes"/>
      <point x="611" y="228"/>
      <point x="671" y="242"/>
      <point x="734" y="280" type="curve"/>
      <point x="440" y="604" type="line"/>
      <point x="360" y="572"/>
      <point x="313" y="488"/>
      <point x="313" y="404" type="curve" smooth="yes"/>
      <point x="313" y="272"/>
      <point x="421" y="228"/>
    </contour>
  </outline>
</glyph>
<glyph name="parenleft" format="2">
  <advance width="869"/>
  <unicode hex="0028"/>
  <outline>
    <contour>
      <point x="430" y="-388" type="line"/>
      <point x="281" y="-168"/>
      <point x="216" y="119"/>
      <point x="216" y="382" type="curve" smooth="yes"/>
      <point x="216" y="406"/>
      <point x="217" y="429"/>
      <point x="218" y="452" type="curve" smooth="yes"/>
      <point x="221" y="522"/>
      <point x="230" y="590"/>
      <point x="241" y="660" type="curve" smooth="yes"/>
      <point x="304" y="1050"/>
      <point x="481" y="1427"/>
      <point x="762" y="1708" type="curve"/>
      <point x="936" y="1560" type="line"/>
      <point x="623" y="1238"/>
      <point x="461" y="844"/>
      <point x="461" y="394" type="curve" smooth="yes"/>
      <point x="461" y="158"/>
      <point x="522" y="-43"/>
      <point x="651" y="-240" type="curve"/>
    </contour>
  </outline>
</glyph>
<glyph name="parenright" format="2">
  <advance width="924"/>
  <unicode hex="0029"/>
  <outline>
    <contour>
      <point x="234" y="-388" type="line"/>
      <point x="568" y="-50"/>
      <point x="771" y="453"/>
      <point x="771" y="927" type="curve" smooth="yes"/>
      <point x="771" y="1195"/>
      <point x="705" y="1486"/>
      <point x="551" y="1708" type="curve"/>
      <point x="332" y="1560" type="line"/>
      <point x="466" y="1358"/>
      <point x="526" y="1154"/>
      <point x="526" y="911" type="curve" smooth="yes"/>
      <point x="526" y="470"/>
      <point x="365" y="80"/>
      <point x="59" y="-240" type="curve"/>
    </contour>
  </outline>
</glyph>
<glyph name="asterisk" format="2">
  <advance width="911"/>
  <unicode hex="002A"/>
  <outline>
    <contour>
      <point x="316" y="710" type="line"/>
      <point x="148" y="850" type="line"/>
      <point x="320" y="1018" type="line"/>
      <point x="113" y="1074" type="line"/>
      <point x="222" y="1302" type="line"/>
      <point x="411" y="1212" type="line"/>
      <point x="430" y="1440" type="line"/>
      <point x="665" y="1440" type="line"/>
      <point x="611" y="1212" type="line"/>
      <point x="829" y="1302" type="line"/>
      <point x="866" y="1074" type="line"/>
      <point x="641" y="1018" type="line"/>
      <point x="760" y="850" type="line"/>
      <point x="547" y="710" type="line"/>
      <point x="462" y="900" type="line"/>
    </contour>
  </outline>
</glyph>
<glyph name="comma" format="2">
  <advance width="590"/>
  <unicode hex="002C"/>
  <outline>
    <contour>
      <point x="116" y="272" type="line"/>
      <point x="368" y="272" type="line"/>
      <point x="102" y="-329" type="line"/>
      <point x="-64" y="-329" type="line"/>
    </contour>
  </outline>
</glyph>
<glyph name="period" format="2">
  <advance width="594"/>
  <unicode hex="002E"/>
  <outline>
    <contour>
      <point x="184" y="-22" type="curve" smooth="yes"/>
      <point x="107" y="-22"/>
      <point x="51" y="31"/>
      <point x="51" y="109" type="curve" smooth="yes"/>
      <point x="51" y="208"/>
      <point x="134" y="294"/>
      <point x="234" y="294" type="curve" smooth="yes"/>
      <point x="312" y="294"/>
      <point x="367" y="243"/>
      <point x="367" y="164" type="curve" smooth="yes"/>
      <point x="367" y="64"/>
      <point x="285" y="-22"/>
    </contour>
  </outline>
</glyph>
<glyph name="zero" format="2">
  <advance width="1293"/>
  <unicode hex="0030"/>
  <outline>
    <contour>
      <point x="514" y="-30" type="curve" smooth="yes"/>
      <point x="228" y="-30"/>
      <point x="35" y="151"/>
      <point x="35" y="441" type="curve" smooth="yes"/>
      <point x="35" y="462"/>
      <point x="35" y="483"/>
      <point x="38" y="504" type="curve" smooth="yes"/>
      <point x="106" y="936" type="line" smooth="yes"/>
      <point x="155" y="1247"/>
      <point x="358" y="1470"/>
      <point x="677" y="1470" type="curve" smooth="yes"/>
      <point x="963" y="1470"/>
      <point x="1156" y="1289"/>
      <point x="1156" y="999" type="curve" smooth="yes"/>
      <point x="1156" y="978"/>
      <point x="1156" y="957"/>
      <point x="1153" y="936" type="curve" smooth="yes"/>
      <point x="1085" y="504" type="line" smooth="yes"/>
      <point x="1036" y="193"/>
      <point x="833" y="-30"/>
    </contour>
    <contour>
      <point x="537" y="228" type="curve" smooth="yes"/>
      <point x="681" y="228"/>
      <point x="790" y="342"/>
      <point x="811" y="484" type="curve" smooth="yes"/>
      <point x="882" y="958" type="line" smooth="yes"/>
      <point x="883" y="966"/>
      <point x="883" y="975"/>
      <point x="883" y="983" type="curve" smooth="yes"/>
      <point x="883" y="1115"/>
      <point x="786" y="1214"/>
      <point x="654" y="1214" type="curve" smooth="yes"/>
      <point x="511" y="1214"/>
      <point x="401" y="1100"/>
      <point x="380" y="958" type="curve" smooth="yes"/>
      <point x="309" y="484" type="line" smooth="yes"/>
      <point x="308" y="476"/>
      <point x="308" y="467"/>
      <point x="308" y="459" type="curve" smooth="yes"/>
      <point x="308" y="327"/>
      <point x="404" y="228"/>
    </contour>
  </outline>
</glyph>
<glyph name="two" format="2">
  <advance width="1163"/>
  <unicode hex="0032"/>
  <outline>
    <contour>
      <point x="-22" y="2" type="line"/>
      <point x="16" y="238" type="line"/>
      <point x="709" y="774" type="line" smooth="yes"/>
      <point x="787" y="835"/>
      <point x="850" y="909"/>
      <point x="850" y="1014" type="curve" smooth="yes"/>
      <point x="850" y="1132"/>
      <point x="775" y="1214"/>
      <point x="655" y="1214" type="curve" smooth="yes"/>
      <point x="544" y="1214"/>
      <point x="440" y="1138"/>
      <point x="413" y="1032" type="curve"/>
      <point x="152" y="1090" type="line"/>
      <point x="219" y="1321"/>
      <point x="429" y="1470"/>
      <point x="684" y="1470" type="curve" smooth="yes"/>
      <point x="941" y="1470"/>
      <point x="1126" y="1298"/>
      <point x="1126" y="1038" type="curve" smooth="yes"/>
      <point x="1126" y="797"/>
      <point x="1011" y="675"/>
      <point x="826" y="540" type="curve" smooth="yes"/>
      <point x="356" y="198" type="line"/>
      <point x="344" y="258" type="line"/>
      <point x="1007" y="258" type="line"/>
      <point x="966" y="2" type="line"/>
    </contour>
  </outline>
</glyph>
<glyph name="three" format="2">
  <advance width="1138"/>
  <unicode hex="0033"/>
  <outline>
    <contour>
      <point x="460" y="-26" type="curve" smooth="yes"/>
      <point x="247" y="-26"/>
      <point x="62" y="114"/>
      <point x="20" y="326" type="curve"/>
      <point x="285" y="396" type="line"/>
      <point x="292" y="284"/>
      <point x="376" y="230"/>
      <point x="482" y="230" type="curve" smooth="yes"/>
      <point x="616" y="230"/>
      <point x="724" y="345"/>
      <point x="724" y="477" type="curve" smooth="yes"/>
      <point x="724" y="594"/>
      <point x="641" y="680"/>
      <point x="523" y="680" type="curve" smooth="yes"/>
      <point x="483" y="680"/>
      <point x="445" y="667"/>
      <point x="410" y="648" type="curve"/>
      <point x="338" y="862" type="line"/>
      <point x="847" y="1242" type="line"/>
      <point x="857" y="1184" type="line"/>
      <point x="203" y="1184" type="line"/>
      <point x="243" y="1440" type="line"/>
      <point x="1125" y="1440" type="line"/>
      <point x="1085" y="1184" type="line"/>
      <point x="681" y="840" type="line"/>
      <point x="659" y="916" type="line"/>
      <point x="686" y="912"/>
      <point x="711" y="905"/>
      <point x="735" y="897" type="curve" smooth="yes"/>
      <point x="901" y="840"/>
      <point x="996" y="689"/>
      <point x="996" y="503" type="curve" smooth="yes"/>
      <point x="996" y="211"/>
      <point x="750" y="-26"/>
    </contour>
  </outline>
</glyph>
<glyph name="five" format="2">
  <advance width="1178"/>
  <unicode hex="0035"/>
  <outline>
    <contour>
      <point x="486" y="-30" type="qcurve" smooth="yes"/>
      <point x="340" y="-30"/>
      <point x="164" y="60"/>
      <point x="51" y="220"/>
      <point x="47" y="326" type="qcurve"/>
      <point x="315" y="396" type="line"/>
      <point x="324" y="345"/>
      <point x="385" y="271"/>
      <point x="470" y="230"/>
      <point x="517" y="230" type="qcurve" smooth="yes"/>
      <point x="579" y="230"/>
      <point x="687" y="290"/>
      <point x="756" y="392"/>
      <point x="761" y="454" type="qcurve" smooth="yes"/>
      <point x="766" y="516"/>
      <point x="713" y="618"/>
      <point x="615" y="678"/>
      <point x="553" y="678" type="qcurve" smooth="yes"/>
      <point x="477" y="678"/>
      <point x="377" y="627"/>
      <point x="352" y="604" type="qcurve"/>
      <point x="145" y="674" type="line"/>
      <point x="266" y="1440" type="line"/>
      <point x="1096" y="1440" type="line"/>
      <point x="1056" y="1186" type="line"/>
      <point x="390" y="1186" type="line"/>
      <point x="500" y="1276" type="line"/>
      <point x="422" y="782" type="line"/>
      <point x="354" y="838" type="line"/>
      <point x="412" y="882"/>
      <point x="553" y="922"/>
      <point x="613" y="922" type="qcurve" smooth="yes"/>
      <point x="749" y="922"/>
      <point x="946" y="801"/>
      <point x="1046" y="590"/>
      <point x="1035" y="454" type="qcurve" smooth="yes"/>
      <point x="1024" y="318"/>
      <point x="865" y="99"/>
      <point x="622" y="-30"/>
    </contour>
  </outline>
</glyph>
<glyph name="six" format="2">
  <advance width="1195"/>
  <unicode hex="0036"/>
  <outline>
    <contour>
      <point x="534" y="-30" type="qcurve" smooth="yes"/>
      <point x="391" y="-30"/>
      <point x="175" y="104"/>
      <point x="62" y="343"/>
      <point x="74" y="500" type="qcurve" smooth="yes"/>
      <point x="82" y="597"/>
      <point x="75" y="709"/>
      <point x="234" y="941" type="curve"/>
      <point x="635" y="1440" type="line"/>
      <point x="938" y="1440" type="line"/>
      <point x="369" y="744" type="line"/>
      <point x="329" y="794" type="line"/>
      <point x="396" y="857"/>
      <point x="564" y="924"/>
      <point x="651" y="924" type="qcurve" smooth="yes"/>
      <point x="787" y="924"/>
      <point x="985" y="802"/>
      <point x="1085" y="590"/>
      <point x="1074" y="454" type="qcurve" smooth="yes"/>
      <point x="1064" y="318"/>
      <point x="908" y="99"/>
      <point x="670" y="-30"/>
    </contour>
    <contour>
      <point x="555" y="230" type="qcurve" smooth="yes"/>
      <point x="617" y="230"/>
      <point x="724" y="290"/>
      <point x="794" y="392"/>
      <point x="798" y="454" type="qcurve" smooth="yes"/>
      <point x="803" y="516"/>
      <point x="751" y="619"/>
      <point x="654" y="680"/>
      <point x="592" y="680" type="qcurve" smooth="yes"/>
      <point x="530" y="680"/>
      <point x="422" y="619"/>
      <point x="353" y="516"/>
      <point x="348" y="454" type="qcurve" smooth="yes"/>
      <point x="344" y="394"/>
      <point x="396" y="292"/>
      <point x="493" y="230"/>
    </contour>
  </outline>
</glyph>
<glyph name="seven" format="2">
  <advance width="1048"/>
  <unicode hex="0037"/>
  <outline>
    <contour>
      <point x="90" y="0" type="line"/>
      <point x="752" y="1184" type="line"/>
      <point x="148" y="1184" type="line"/>
      <point x="188" y="1440" type="line"/>
      <point x="1078" y="1440" type="line"/>
      <point x="1078" y="1438"/>
      <point x="1072" y="1398"/>
      <point x="1063" y="1341"/>
      <point x="1053" y="1277"/>
      <point x="1044" y="1221"/>
      <point x="1038" y="1184"/>
      <point x="1038" y="1184" type="qcurve"/>
      <point x="378" y="0" type="line"/>
    </contour>
  </outline>
</glyph>
<glyph name="eight" format="2">
  <advance width="1197"/>
  <unicode hex="0038"/>
  <outline>
    <contour>
      <point x="476" y="-23" type="qcurve" smooth="yes"/>
      <point x="389" y="-23"/>
      <point x="235" y="37"/>
      <point x="120" y="147"/>
      <point x="54" y="300"/>
      <point x="54" y="393" type="qcurve"/>
      <point x="55" y="463"/>
      <point x="94" y="595"/>
      <point x="164" y="709"/>
      <point x="261" y="802"/>
      <point x="321" y="834" type="qcurve"/>
      <point x="301" y="751" type="line"/>
      <point x="279" y="781"/>
      <point x="240" y="845"/>
      <point x="212" y="912"/>
      <point x="197" y="983"/>
      <point x="197" y="1019" type="qcurve"/>
      <point x="198" y="1129"/>
      <point x="286" y="1295"/>
      <point x="431" y="1406"/>
      <point x="622" y="1463"/>
      <point x="726" y="1462" type="qcurve"/>
      <point x="804" y="1462"/>
      <point x="947" y="1410"/>
      <point x="1055" y="1314"/>
      <point x="1118" y="1176"/>
      <point x="1117" y="1089" type="qcurve"/>
      <point x="1117" y="1025"/>
      <point x="1085" y="914"/>
      <point x="1029" y="819"/>
      <point x="949" y="738"/>
      <point x="900" y="702" type="qcurve"/>
      <point x="915" y="785" type="line"/>
      <point x="988" y="727"/>
      <point x="1053" y="562"/>
      <point x="1052" y="473" type="qcurve" smooth="yes"/>
      <point x="1051" y="355"/>
      <point x="956" y="171"/>
      <point x="797" y="44"/>
      <point x="589" y="-23"/>
    </contour>
    <contour>
      <point x="518" y="231" type="qcurve" smooth="yes"/>
      <point x="575" y="231"/>
      <point x="667" y="261"/>
      <point x="732" y="320"/>
      <point x="769" y="407"/>
      <point x="769" y="464" type="qcurve" smooth="yes"/>
      <point x="769" y="505"/>
      <point x="742" y="571"/>
      <point x="693" y="617"/>
      <point x="626" y="641"/>
      <point x="588" y="641" type="qcurve"/>
      <point x="531" y="640"/>
      <point x="440" y="608"/>
      <point x="375" y="547"/>
      <point x="340" y="460"/>
      <point x="339" y="404" type="qcurve"/>
      <point x="339" y="363"/>
      <point x="366" y="298"/>
      <point x="414" y="254"/>
      <point x="480" y="231"/>
    </contour>
    <contour>
      <point x="631" y="896" type="qcurve" smooth="yes"/>
      <point x="676" y="896"/>
      <point x="749" y="917"/>
      <point x="802" y="961"/>
      <point x="832" y="1029"/>
      <point x="832" y="1075" type="qcurve" smooth="yes"/>
      <point x="832" y="1108"/>
      <point x="808" y="1159"/>
      <point x="768" y="1193"/>
      <point x="714" y="1211"/>
      <point x="684" y="1211" type="qcurve" smooth="yes"/>
      <point x="639" y="1211"/>
      <point x="565" y="1189"/>
      <point x="512" y="1144"/>
      <point x="482" y="1076"/>
      <point x="482" y="1030" type="qcurve"/>
      <point x="481" y="997"/>
      <point x="506" y="946"/>
      <point x="547" y="913"/>
      <point x="601" y="896"/>
    </contour>
  </outline>
</glyph>
<glyph name="nine" format="2">
  <advance width="1195"/>
  <unicode hex="0039"/>
  <outline>
    <contour>
      <point x="661" y="1470" type="qcurve" smooth="yes"/>
      <point x="804" y="1470"/>
      <point x="1020" y="1336"/>
      <point x="1133" y="1097"/>
      <point x="1121" y="940" type="qcurve" smooth="yes"/>
      <point x="1118" y="904"/>
      <point x="1112" y="822"/>
      <point x="1083" y="718"/>
      <point x="1021" y="586"/>
      <point x="961" y="499" type="qcurve"/>
      <point x="560" y="0" type="line"/>
      <point x="231" y="0" type="line"/>
      <point x="800" y="696" type="line"/>
      <point x="866" y="646" type="line"/>
      <point x="799" y="583"/>
      <point x="631" y="516"/>
      <point x="544" y="516" type="qcurve" smooth="yes"/>
      <point x="408" y="516"/>
      <point x="210" y="638"/>
      <point x="110" y="850"/>
      <point x="121" y="986" type="qcurve" smooth="yes"/>
      <point x="131" y="1122"/>
      <point x="287" y="1341"/>
      <point x="525" y="1470"/>
    </contour>
    <contour>
      <point x="640" y="1210" type="qcurve" smooth="yes"/>
      <point x="578" y="1210"/>
      <point x="471" y="1150"/>
      <point x="401" y="1048"/>
      <point x="397" y="986" type="qcurve" smooth="yes"/>
      <point x="392" y="924"/>
      <point x="444" y="821"/>
      <point x="541" y="760"/>
      <point x="603" y="760" type="qcurve" smooth="yes"/>
      <point x="665" y="760"/>
      <point x="773" y="821"/>
      <point x="842" y="924"/>
      <point x="847" y="986" type="qcurve" smooth="yes"/>
      <point x="851" y="1046"/>
      <point x="799" y="1148"/>
      <point x="702" y="1210"/>
    </contour>
  </outline>
</glyph>
<glyph name="less" format="2">
  <advance width="1200"/>
  <unicode hex="003C"/>
  <outline>
    <contour>
      <point x="634" y="146" type="line"/>
      <point x="236" y="630" type="line"/>
      <point x="787" y="1114" type="line"/>
      <point x="925" y="946" type="line"/>
      <point x="554" y="630" type="line"/>
      <point x="825" y="314" type="line"/>
    </contour>
  </outline>
</glyph>
<glyph name="greater" format="2">
  <advance width="1290"/>
  <unicode hex="003E"/>
  <outline>
    <contour>
      <point x="401" y="146" type="line"/>
      <point x="949" y="630" type="line"/>
      <point x="548" y="1114" type="line"/>
      <point x="358" y="946" type="line"/>
      <point x="631" y="630" type="line"/>
      <point x="262" y="314" type="line"/>
    </contour>
  </outline>
</glyph>
<glyph name="question" format="2">
  <advance width="1296"/>
  <unicode hex="003F"/>
  <outline>
    <contour>
      <point x="746" y="1470" type="curve" smooth="yes"/>
      <point x="1015" y="1470"/>
      <point x="1238" y="1336"/>
      <point x="1238" y="1042" type="curve" smooth="yes"/>
      <point x="1238" y="699"/>
      <point x="991" y="532"/>
      <point x="670" y="532" type="curve" smooth="yes"/>
      <point x="649" y="532"/>
      <point x="567" y="532"/>
      <point x="546" y="532" type="curve"/>
      <point x="569" y="788" type="line"/>
      <point x="591" y="788"/>
      <point x="662" y="788"/>
      <point x="686" y="788" type="curve" smooth="yes"/>
      <point x="831" y="788"/>
      <point x="957" y="859"/>
      <point x="957" y="1019" type="curve" smooth="yes"/>
      <point x="957" y="1145"/>
      <point x="847" y="1216"/>
      <point x="730" y="1216" type="curve" smooth="yes"/>
      <point x="555" y="1216"/>
      <point x="453" y="1124"/>
      <point x="411" y="958" type="curve"/>
      <point x="359" y="966"/>
      <point x="188" y="992"/>
      <point x="136" y="1000" type="curve"/>
      <point x="215" y="1297"/>
      <point x="438" y="1470"/>
    </contour>
    <contour>
      <point x="732" y="353" type="line"/>
      <point x="485" y="353" type="line"/>
      <point x="554" y="788" type="line"/>
      <point x="801" y="788" type="line"/>
    </contour>
    <contour>
      <point x="542" y="-22" type="curve" smooth="yes"/>
      <point x="465" y="-22"/>
      <point x="409" y="31"/>
      <point x="409" y="109" type="curve" smooth="yes"/>
      <point x="409" y="208"/>
      <point x="492" y="294"/>
      <point x="592" y="294" type="curve" smooth="yes"/>
      <point x="670" y="294"/>
      <point x="725" y="243"/>
      <point x="725" y="164" type="curve" smooth="yes"/>
      <point x="725" y="63"/>
      <point x="643" y="-22"/>
    </contour>
  </outline>
</glyph>
<glyph name="at" format="2">
  <advance width="1765"/>
  <unicode hex="0040"/>
  <outline>
    <contour>
      <point x="734" y="-210" type="qcurve" smooth="yes"/>
      <point x="600" y="-210"/>
      <point x="368" y="-132"/>
      <point x="197" y="17"/>
      <point x="100" y="235"/>
      <point x="100" y="376" type="qcurve" smooth="yes"/>
      <point x="100" y="435"/>
      <point x="118" y="562"/>
      <point x="151" y="688"/>
      <point x="198" y="807"/>
      <point x="226" y="857" type="qcurve" smooth="yes"/>
      <point x="283" y="959"/>
      <point x="438" y="1120"/>
      <point x="626" y="1231"/>
      <point x="843" y="1290"/>
      <point x="960" y="1290" type="qcurve" smooth="yes"/>
      <point x="1099" y="1290"/>
      <point x="1338" y="1218"/>
      <point x="1514" y="1072"/>
      <point x="1615" y="851"/>
      <point x="1615" y="703" type="qcurve" smooth="yes"/>
      <point x="1615" y="650"/>
      <point x="1599" y="531"/>
      <point x="1567" y="414"/>
      <point x="1518" y="306"/>
      <point x="1485" y="264" type="qcurve" smooth="yes"/>
      <point x="1434" y="201"/>
      <point x="1299" y="152"/>
      <point x="1221" y="152" type="qcurve" smooth="yes"/>
      <point x="1185" y="152"/>
      <point x="1112" y="169"/>
      <point x="1048" y="204"/>
      <point x="1000" y="258"/>
      <point x="991" y="296" type="qcurve"/>
      <point x="1058" y="296" type="line"/>
      <point x="1033" y="260"/>
      <point x="971" y="206"/>
      <point x="899" y="170"/>
      <point x="818" y="152"/>
      <point x="774" y="152" type="qcurve" smooth="yes"/>
      <point x="703" y="152"/>
      <point x="586" y="195"/>
      <point x="503" y="276"/>
      <point x="457" y="391"/>
      <point x="457" y="463" type="qcurve" smooth="yes"/>
      <point x="457" y="557"/>
      <point x="523" y="726"/>
      <point x="642" y="853"/>
      <point x="805" y="928"/>
      <point x="901" y="928" type="qcurve" smooth="yes"/>
      <point x="929" y="928"/>
      <point x="993" y="916"/>
      <point x="1055" y="892"/>
      <point x="1110" y="858"/>
      <point x="1129" y="836" type="qcurve"/>
      <point x="1079" y="778" type="line"/>
      <point x="1098" y="900" type="line"/>
      <point x="1257" y="900" type="line"/>
      <point x="1191" y="506" type="line" smooth="yes"/>
      <point x="1189" y="492"/>
      <point x="1186" y="466"/>
      <point x="1186" y="452" type="qcurve" smooth="yes"/>
      <point x="1186" y="418"/>
      <point x="1215" y="364"/>
      <point x="1255" y="364" type="qcurve"/>
      <point x="1255" y="364"/>
      <point x="1255" y="364"/>
      <point x="1255" y="364" type="qcurve"/>
      <point x="1276" y="364"/>
      <point x="1315" y="376"/>
      <point x="1329" y="393" type="qcurve" smooth="yes"/>
      <point x="1346" y="413"/>
      <point x="1371" y="491"/>
      <point x="1387" y="580"/>
      <point x="1394" y="666"/>
      <point x="1394" y="692" type="qcurve" smooth="yes"/>
      <point x="1394" y="790"/>
      <point x="1323" y="936"/>
      <point x="1201" y="1032"/>
      <point x="1038" y="1080"/>
      <point x="947" y="1080" type="qcurve" smooth="yes"/>
      <point x="885" y="1080"/>
      <point x="774" y="1061"/>
      <point x="723" y="1044" type="qcurve" smooth="yes"/>
      <point x="629" y="1011"/>
      <point x="481" y="891"/>
      <point x="379" y="729"/>
      <point x="326" y="530"/>
      <point x="326" y="419" type="qcurve" smooth="yes"/>
      <point x="326" y="312"/>
      <point x="391" y="154"/>
      <point x="509" y="51"/>
      <point x="676" y="0"/>
      <point x="778" y="0" type="qcurve" smooth="yes"/>
      <point x="832" y="0"/>
      <point x="938" y="18"/>
      <point x="989" y="34" type="qcurve"/>
      <point x="1024" y="-166" type="line"/>
      <point x="954" y="-189"/>
      <point x="808" y="-210"/>
    </contour>
    <contour>
      <point x="823" y="364" type="qcurve" smooth="yes"/>
      <point x="873" y="364"/>
      <point x="945" y="401"/>
      <point x="990" y="463"/>
      <point x="1011" y="546"/>
      <point x="1011" y="591" type="qcurve" smooth="yes"/>
      <point x="1011" y="653"/>
      <point x="950" y="716"/>
      <point x="887" y="716" type="qcurve"/>
      <point x="887" y="716"/>
      <point x="887" y="716"/>
      <point x="887" y="716" type="qcurve"/>
      <point x="838" y="716"/>
      <point x="762" y="684"/>
      <point x="709" y="627"/>
      <point x="682" y="547"/>
      <point x="682" y="499" type="qcurve" smooth="yes"/>
      <point x="682" y="432"/>
      <point x="758" y="364"/>
    </contour>
  </outline>
</glyph>
<glyph name="B" format="2">
  <advance width="1228"/>
  <unicode hex="0042"/>
  <outline>
    <contour>
      <point x="13" y="0" type="line"/>
      <point x="241" y="1440" type="line"/>
      <point x="806" y="1440" type="line" smooth="yes"/>
      <point x="887" y="1440"/>
      <point x="1021" y="1397"/>
      <point x="1117" y="1312"/>
      <point x="1170" y="1185"/>
      <point x="1170" y="1101" type="qcurve" smooth="yes"/>
      <point x="1170" y="1040"/>
      <point x="1137" y="921"/>
      <point x="1073" y="820"/>
      <point x="978" y="745"/>
      <point x="916" y="728" type="qcurve"/>
      <point x="924" y="778" type="line"/>
      <point x="977" y="766"/>
      <point x="1058" y="716"/>
      <point x="1112" y="644"/>
      <point x="1140" y="552"/>
      <point x="1140" y="499" type="qcurve" smooth="yes"/>
      <point x="1140" y="483"/>
      <point x="1137" y="452"/>
      <point x="1135" y="436" type="qcurve"/>
      <point x="1119" y="335"/>
      <point x="1038" y="173"/>
      <point x="911" y="60"/>
      <point x="742" y="0"/>
      <point x="638" y="0" type="qcurve" smooth="yes"/>
    </contour>
    <contour>
      <point x="324" y="256" type="line"/>
      <point x="597" y="256" type="line" smooth="yes"/>
      <point x="611" y="256"/>
      <point x="638" y="256"/>
      <point x="652" y="256" type="qcurve" smooth="yes"/>
      <point x="699" y="256"/>
      <point x="779" y="292"/>
      <point x="838" y="353"/>
      <point x="871" y="435"/>
      <point x="871" y="481" type="qcurve" smooth="yes"/>
      <point x="871" y="518"/>
      <point x="847" y="572"/>
      <point x="803" y="607"/>
      <point x="745" y="624"/>
      <point x="710" y="624" type="qcurve" smooth="yes"/>
      <point x="383" y="624" type="line"/>
    </contour>
    <contour>
      <point x="423" y="878" type="line"/>
      <point x="713" y="878" type="line" smooth="yes"/>
      <point x="754" y="878"/>
      <point x="821" y="904"/>
      <point x="869" y="952"/>
      <point x="896" y="1019"/>
      <point x="896" y="1060" type="qcurve" smooth="yes"/>
      <point x="896" y="1091"/>
      <point x="877" y="1138"/>
      <point x="841" y="1170"/>
      <point x="792" y="1186"/>
      <point x="762" y="1186" type="qcurve" smooth="yes"/>
      <point x="472" y="1186" type="line"/>
    </contour>
  </outline>
</glyph>
<glyph name="C" format="2">
  <advance width="1448"/>
  <unicode hex="0043"/>
  <outline>
    <contour>
      <point x="675" y="-30" type="curve" smooth="yes"/>
      <point x="313" y="-30"/>
      <point x="81" y="192"/>
      <point x="55" y="553" type="curve" smooth="yes"/>
      <point x="22" y="1033"/>
      <point x="296" y="1470"/>
      <point x="808" y="1470" type="curve" smooth="yes"/>
      <point x="1103" y="1470"/>
      <point x="1340" y="1316"/>
      <point x="1408" y="1014" type="curve"/>
      <point x="1133" y="938" type="line"/>
      <point x="1101" y="1123"/>
      <point x="963" y="1214"/>
      <point x="785" y="1214" type="curve" smooth="yes"/>
      <point x="443" y="1214"/>
      <point x="315" y="889"/>
      <point x="336" y="589" type="curve" smooth="yes"/>
      <point x="351" y="368"/>
      <point x="467" y="226"/>
      <point x="698" y="226" type="curve" smooth="yes"/>
      <point x="889" y="226"/>
      <point x="1030" y="328"/>
      <point x="1095" y="502" type="curve"/>
      <point x="1356" y="426" type="line"/>
      <point x="1239" y="140"/>
      <point x="994" y="-30"/>
    </contour>
  </outline>
</glyph>
<glyph name="D" format="2">
  <advance width="1367"/>
  <unicode hex="0044"/>
  <outline>
    <contour>
      <point x="13" y="0" type="line"/>
      <point x="241" y="1440" type="line"/>
      <point x="648" y="1440" type="line" smooth="yes"/>
      <point x="704" y="1440"/>
      <point x="760" y="1439"/>
      <point x="815" y="1432" type="curve" smooth="yes"/>
      <point x="1142" y="1389"/>
      <point x="1288" y="1117"/>
      <point x="1288" y="810" type="curve" smooth="yes"/>
      <point x="1288" y="441"/>
      <point x="1087" y="58"/>
      <point x="690" y="8" type="curve" smooth="yes"/>
      <point x="634" y="1"/>
      <point x="577" y="0"/>
      <point x="520" y="0" type="curve" smooth="yes"/>
    </contour>
    <contour>
      <point x="324" y="256" type="line"/>
      <point x="542" y="256" type="line" smooth="yes"/>
      <point x="594" y="256"/>
      <point x="646" y="256"/>
      <point x="697" y="266" type="curve" smooth="yes"/>
      <point x="918" y="311"/>
      <point x="1004" y="589"/>
      <point x="1004" y="786" type="curve" smooth="yes"/>
      <point x="1004" y="944"/>
      <point x="955" y="1136"/>
      <point x="777" y="1174" type="curve" smooth="yes"/>
      <point x="728" y="1185"/>
      <point x="675" y="1184"/>
      <point x="625" y="1184" type="curve" smooth="yes"/>
      <point x="471" y="1184" type="line"/>
    </contour>
  </outline>
</glyph>
<glyph name="G" format="2">
  <advance width="1450"/>
  <unicode hex="0047"/>
  <outline>
    <contour>
      <point x="1001" y="0" type="line"/>
      <point x="1270" y="0" type="line"/>
      <point x="1397" y="806" type="line"/>
      <point x="1129" y="806" type="line"/>
    </contour>
    <contour>
      <point x="795" y="1470" type="curve" smooth="yes"/>
      <point x="317" y="1470"/>
      <point x="52" y="1058"/>
      <point x="52" y="616" type="curve" smooth="yes"/>
      <point x="52" y="245"/>
      <point x="251" y="-30"/>
      <point x="642" y="-30" type="curve" smooth="yes"/>
      <point x="789" y="-30"/>
      <point x="996" y="31"/>
      <point x="1067" y="173" type="curve" smooth="yes"/>
      <point x="1093" y="226"/>
      <point x="1120" y="279"/>
      <point x="1146" y="331" type="curve" smooth="yes"/>
      <point x="1382" y="806" type="line"/>
      <point x="663" y="806" type="line"/>
      <point x="623" y="552" type="line"/>
      <point x="1079" y="552" type="line"/>
      <point x="1050" y="349"/>
      <point x="895" y="226"/>
      <point x="693" y="226" type="curve" smooth="yes"/>
      <point x="435" y="226"/>
      <point x="335" y="397"/>
      <point x="335" y="635" type="curve" smooth="yes"/>
      <point x="335" y="914"/>
      <point x="457" y="1214"/>
      <point x="780" y="1214" type="curve" smooth="yes"/>
      <point x="958" y="1214"/>
      <point x="1090" y="1117"/>
      <point x="1114" y="936" type="curve"/>
      <point x="1390" y="976" type="line"/>
      <point x="1332" y="1306"/>
      <point x="1128" y="1470"/>
    </contour>
  </outline>
</glyph>
<glyph name="H" format="2">
  <advance width="1410"/>
  <unicode hex="0048"/>
  <outline>
    <contour>
      <point x="13" y="0" type="line"/>
      <point x="241" y="1440" type="line"/>
      <point x="508" y="1440" type="line"/>
      <point x="414" y="848" type="line"/>
      <point x="1045" y="848" type="line"/>
      <point x="1139" y="1440" type="line"/>
      <point x="1406" y="1440" type="line"/>
      <point x="1177" y="0" type="line"/>
      <point x="911" y="0" type="line"/>
      <point x="1005" y="594" type="line"/>
      <point x="374" y="594" type="line"/>
      <point x="280" y="0" type="line"/>
    </contour>
  </outline>
</glyph>
<glyph name="J" format="2">
  <advance width="989"/>
  <unicode hex="004A"/>
  <outline>
    <contour>
      <point x="332" y="-30" type="curve" smooth="yes"/>
      <point x="117" y="-30"/>
      <point x="-27" y="85"/>
      <point x="-72" y="296" type="curve"/>
      <point x="196" y="360" type="line"/>
      <point x="201" y="287"/>
      <point x="270" y="224"/>
      <point x="343" y="224" type="curve" smooth="yes"/>
      <point x="484" y="224"/>
      <point x="526" y="366"/>
      <point x="544" y="480" type="curve" smooth="yes"/>
      <point x="696" y="1440" type="line"/>
      <point x="967" y="1440" type="line"/>
      <point x="815" y="480" type="line" smooth="yes"/>
      <point x="803" y="407"/>
      <point x="788" y="335"/>
      <point x="764" y="265" type="curve" smooth="yes"/>
      <point x="698" y="76"/>
      <point x="529" y="-30"/>
    </contour>
  </outline>
</glyph>
<glyph name="L" format="2">
  <advance width="1041"/>
  <unicode hex="004C"/>
  <outline>
    <contour>
      <point x="31" y="0" type="line"/>
      <point x="259" y="1440" type="line"/>
      <point x="525" y="1440" type="line"/>
      <point x="338" y="254" type="line"/>
      <point x="945" y="254" type="line"/>
      <point x="905" y="0" type="line"/>
    </contour>
  </outline>
</glyph>
<glyph name="O" format="2">
  <advance width="1473"/>
  <unicode hex="004F"/>
  <outline>
    <contour>
      <point x="675" y="-30" type="curve" smooth="yes"/>
      <point x="313" y="-30"/>
      <point x="81" y="192"/>
      <point x="55" y="553" type="curve" smooth="yes"/>
      <point x="22" y="1033"/>
      <point x="296" y="1470"/>
      <point x="808" y="1470" type="curve" smooth="yes"/>
      <point x="1172" y="1470"/>
      <point x="1402" y="1245"/>
      <point x="1427" y="884" type="curve" smooth="yes"/>
      <point x="1461" y="406"/>
      <point x="1184" y="-30"/>
    </contour>
    <contour>
      <point x="706" y="226" type="curve" smooth="yes"/>
      <point x="1042" y="226"/>
      <point x="1166" y="559"/>
      <point x="1145" y="851" type="curve" smooth="yes"/>
      <point x="1130" y="1076"/>
      <point x="1010" y="1214"/>
      <point x="777" y="1214" type="curve" smooth="yes"/>
      <point x="440" y="1214"/>
      <point x="317" y="882"/>
      <point x="338" y="589" type="curve" smooth="yes"/>
      <point x="354" y="364"/>
      <point x="473" y="226"/>
    </contour>
  </outline>
</glyph>
<glyph name="P" format="2">
  <advance width="1254"/>
  <unicode hex="0050"/>
  <outline>
    <contour>
      <point x="13" y="0" type="line"/>
      <point x="241" y="1440" type="line"/>
      <point x="837" y="1440" type="line" smooth="yes"/>
      <point x="1085" y="1440"/>
      <point x="1253" y="1336"/>
      <point x="1253" y="1070" type="curve" smooth="yes"/>
      <point x="1253" y="790"/>
      <point x="1096" y="539"/>
      <point x="805" y="496" type="curve" smooth="yes"/>
      <point x="766" y="490"/>
      <point x="726" y="488"/>
      <point x="686" y="488" type="curve" smooth="yes"/>
      <point x="357" y="488" type="line"/>
      <point x="280" y="0" type="line"/>
    </contour>
    <contour>
      <point x="397" y="742" type="line"/>
      <point x="715" y="742" type="line" smooth="yes"/>
      <point x="771" y="742"/>
      <point x="818" y="751"/>
      <point x="857" y="772" type="curve" smooth="yes"/>
      <point x="897" y="794"/>
      <point x="928" y="829"/>
      <point x="951" y="882" type="curve" smooth="yes"/>
      <point x="969" y="923"/>
      <point x="979" y="967"/>
      <point x="979" y="1012" type="curve" smooth="yes"/>
      <point x="979" y="1144"/>
      <point x="908" y="1186"/>
      <point x="785" y="1186" type="curve" smooth="yes"/>
      <point x="468" y="1186" type="line"/>
    </contour>
  </outline>
</glyph>
<glyph name="Q" format="2">
  <advance width="1475"/>
  <unicode hex="0051"/>
  <outline>
    <contour>
      <point x="1065" y="208" type="line"/>
      <point x="1099" y="178"/>
      <point x="1158" y="130"/>
      <point x="1219" y="95"/>
      <point x="1290" y="74"/>
      <point x="1337" y="71" type="qcurve"/>
      <point x="1273" y="-170" type="line"/>
      <point x="1192" y="-165"/>
      <point x="1081" y="-139"/>
      <point x="993" y="-88"/>
      <point x="911" y="-9"/>
      <point x="858" y="50" type="qcurve"/>
    </contour>
    <contour>
      <point x="675" y="-30" type="qcurve" smooth="yes"/>
      <point x="527" y="-30"/>
      <point x="296" y="64"/>
      <point x="137" y="234"/>
      <point x="53" y="472"/>
      <point x="53" y="617" type="qcurve" smooth="yes"/>
      <point x="53" y="732"/>
      <point x="96" y="948"/>
      <point x="182" y="1138"/>
      <point x="309" y="1295"/>
      <point x="477" y="1408"/>
      <point x="685" y="1470"/>
      <point x="808" y="1470" type="qcurve" smooth="yes"/>
      <point x="958" y="1470"/>
      <point x="1189" y="1375"/>
      <point x="1348" y="1202"/>
      <point x="1430" y="961"/>
      <point x="1430" y="815" type="qcurve" smooth="yes"/>
      <point x="1430" y="701"/>
      <point x="1386" y="487"/>
      <point x="1299" y="299"/>
      <point x="1171" y="144"/>
      <point x="1003" y="32"/>
      <point x="796" y="-30"/>
    </contour>
    <contour>
      <point x="706" y="226" type="qcurve" smooth="yes"/>
      <point x="786" y="226"/>
      <point x="914" y="272"/>
      <point x="1012" y="353"/>
      <point x="1082" y="463"/>
      <point x="1127" y="590"/>
      <point x="1148" y="729"/>
      <point x="1148" y="798" type="qcurve" smooth="yes"/>
      <point x="1148" y="890"/>
      <point x="1105" y="1043"/>
      <point x="1015" y="1153"/>
      <point x="875" y="1214"/>
      <point x="777" y="1214" type="qcurve" smooth="yes"/>
      <point x="696" y="1214"/>
      <point x="568" y="1168"/>
      <point x="470" y="1086"/>
      <point x="400" y="976"/>
      <point x="356" y="848"/>
      <point x="336" y="708"/>
      <point x="336" y="638" type="qcurve" smooth="yes"/>
      <point x="336" y="547"/>
      <point x="379" y="396"/>
      <point x="470" y="287"/>
      <point x="610" y="226"/>
    </contour>
  </outline>
</glyph>
<glyph name="R" format="2">
  <advance width="1292"/>
  <unicode hex="0052"/>
  <outline>
    <contour>
      <point x="819" y="0" type="line"/>
      <point x="614" y="586" type="line"/>
      <point x="897" y="640" type="line"/>
      <point x="1121" y="0" type="line"/>
    </contour>
    <contour>
      <point x="13" y="0" type="line"/>
      <point x="241" y="1440" type="line"/>
      <point x="837" y="1440" type="line" smooth="yes"/>
      <point x="1077" y="1440"/>
      <point x="1255" y="1344"/>
      <point x="1255" y="1082" type="curve" smooth="yes"/>
      <point x="1255" y="977"/>
      <point x="1230" y="884"/>
      <point x="1178" y="793" type="curve" smooth="yes"/>
      <point x="1090" y="636"/>
      <point x="958" y="557"/>
      <point x="794" y="535" type="curve"/>
      <point x="762" y="530"/>
      <point x="728" y="528"/>
      <point x="693" y="528" type="curve" smooth="yes"/>
      <point x="363" y="528" type="line"/>
      <point x="280" y="0" type="line"/>
    </contour>
    <contour>
      <point x="404" y="782" type="line"/>
      <point x="721" y="782" type="line" smooth="yes"/>
      <point x="737" y="782"/>
      <point x="752" y="782"/>
      <point x="768" y="783" type="curve" smooth="yes"/>
      <point x="783" y="784"/>
      <point x="799" y="786"/>
      <point x="813" y="792" type="curve" smooth="yes"/>
      <point x="907" y="833"/>
      <point x="982" y="908"/>
      <point x="982" y="1017" type="curve" smooth="yes"/>
      <point x="982" y="1149"/>
      <point x="907" y="1186"/>
      <point x="785" y="1186" type="curve" smooth="yes"/>
      <point x="468" y="1186" type="line"/>
    </contour>
  </outline>
</glyph>
<glyph name="S" format="2">
  <advance width="1299"/>
  <unicode hex="0053"/>
  <outline>
    <contour>
      <point x="600" y="-30" type="curve" smooth="yes"/>
      <point x="306" y="-30"/>
      <point x="69" y="131"/>
      <point x="50" y="440" type="curve"/>
      <point x="332" y="482" type="line"/>
      <point x="355" y="322"/>
      <point x="481" y="224"/>
      <point x="640" y="224" type="curve" smooth="yes"/>
      <point x="756" y="224"/>
      <point x="926" y="279"/>
      <point x="926" y="420" type="curve" smooth="yes"/>
      <point x="926" y="501"/>
      <point x="866" y="527"/>
      <point x="801" y="552" type="curve" smooth="yes"/>
      <point x="685" y="597"/>
      <point x="562" y="621"/>
      <point x="444" y="662" type="curve" smooth="yes"/>
      <point x="279" y="719"/>
      <point x="155" y="792"/>
      <point x="155" y="986" type="curve" smooth="yes"/>
      <point x="155" y="1314"/>
      <point x="417" y="1468"/>
      <point x="717" y="1468" type="curve" smooth="yes"/>
      <point x="995" y="1468"/>
      <point x="1204" y="1331"/>
      <point x="1250" y="1046" type="curve"/>
      <point x="958" y="996" type="line"/>
      <point x="938" y="1137"/>
      <point x="821" y="1214"/>
      <point x="685" y="1214" type="curve" smooth="yes"/>
      <point x="584" y="1214"/>
      <point x="438" y="1161"/>
      <point x="438" y="1040" type="curve" smooth="yes"/>
      <point x="438" y="965"/>
      <point x="513" y="926"/>
      <point x="617" y="895" type="curve" smooth="yes"/>
      <point x="700" y="870"/>
      <point x="801" y="849"/>
      <point x="895" y="818" type="curve" smooth="yes"/>
      <point x="1061" y="764"/>
      <point x="1209" y="677"/>
      <point x="1209" y="476" type="curve" smooth="yes"/>
      <point x="1209" y="136"/>
      <point x="907" y="-30"/>
    </contour>
  </outline>
</glyph>
<glyph name="T" format="2">
  <advance width="1191"/>
  <unicode hex="0054"/>
  <outline>
    <contour>
      <point x="353" y="0" type="line"/>
      <point x="540" y="1186" type="line"/>
      <point x="95" y="1186" type="line"/>
      <point x="136" y="1440" type="line"/>
      <point x="1292" y="1440" type="line"/>
      <point x="1252" y="1186" type="line"/>
      <point x="807" y="1186" type="line"/>
      <point x="619" y="0" type="line"/>
    </contour>
  </outline>
</glyph>
<glyph name="U" format="2">
  <advance width="1394"/>
  <unicode hex="0055"/>
  <outline>
    <contour>
      <point x="592" y="-30" type="curve" smooth="yes"/>
      <point x="311" y="-30"/>
      <point x="89" y="123"/>
      <point x="89" y="422" type="curve" smooth="yes"/>
      <point x="89" y="461"/>
      <point x="93" y="501"/>
      <point x="99" y="540" type="curve" smooth="yes"/>
      <point x="241" y="1438" type="line"/>
      <point x="512" y="1440" type="line"/>
      <point x="370" y="542" type="line" smooth="yes"/>
      <point x="365" y="510"/>
      <point x="361" y="478"/>
      <point x="361" y="446" type="curve"/>
      <point x="361" y="446"/>
      <point x="361" y="446"/>
      <point x="361" y="446" type="curve"/>
      <point x="361" y="304"/>
      <point x="483" y="226"/>
      <point x="614" y="226" type="curve" smooth="yes"/>
      <point x="728" y="226"/>
      <point x="839" y="292"/>
      <point x="909" y="385" type="curve" smooth="yes"/>
      <point x="944" y="432"/>
      <point x="968" y="486"/>
      <point x="977" y="542" type="curve"/>
      <point x="977" y="542"/>
      <point x="977" y="542"/>
      <point x="977" y="542" type="curve"/>
      <point x="1119" y="1440" type="line"/>
      <point x="1390" y="1440" type="line"/>
      <point x="1342" y="1140"/>
      <point x="1311" y="837"/>
      <point x="1247" y="540" type="curve" smooth="yes"/>
      <point x="1173" y="200"/>
      <point x="953" y="-30"/>
    </contour>
  </outline>
</glyph>
<glyph name="V" format="2">
  <advance width="1277"/>
  <unicode hex="0056"/>
  <outline>
    <contour>
      <point x="330" y="0" type="line"/>
      <point x="127" y="1440" type="line"/>
      <point x="401" y="1440" type="line"/>
      <point x="567" y="256" type="line"/>
      <point x="1113" y="1440" type="line"/>
      <point x="1387" y="1440" type="line"/>
      <point x="728" y="0" type="line"/>
    </contour>
  </outline>
</glyph>
<glyph name="W" format="2">
  <advance width="1934"/>
  <unicode hex="0057"/>
  <outline>
    <contour>
      <point x="321" y="0" type="line"/>
      <point x="136" y="1440" type="line"/>
      <point x="416" y="1440" type="line"/>
      <point x="524" y="450" type="line"/>
      <point x="945" y="1438" type="line"/>
      <point x="1225" y="1440" type="line"/>
      <point x="1333" y="450" type="line"/>
      <point x="1755" y="1440" type="line"/>
      <point x="2035" y="1440" type="line"/>
      <point x="1393" y="0" type="line"/>
      <point x="1131" y="0" type="line"/>
      <point x="1011" y="972" type="line"/>
      <point x="584" y="0" type="line"/>
    </contour>
  </outline>
</glyph>
<glyph name="Y" format="2">
  <advance width="1234"/>
  <unicode hex="0059"/>
  <outline>
    <contour>
      <point x="372" y="0" type="line"/>
      <point x="465" y="586" type="line"/>
      <point x="118" y="1440" type="line"/>
      <point x="430" y="1440" type="line"/>
      <point x="650" y="898" type="line"/>
      <point x="1041" y="1440" type="line"/>
      <point x="1353" y="1440" type="line"/>
      <point x="735" y="586" type="line"/>
      <point x="643" y="0" type="line"/>
    </contour>
  </outline>
</glyph>
<glyph name="Z" format="2">
  <advance width="1312"/>
  <unicode hex="005A"/>
  <outline>
    <contour>
      <point x="-22" y="0" type="line"/>
      <point x="-17" y="34" type="line"/>
      <point x="836" y="1186" type="line"/>
      <point x="225" y="1186" type="line"/>
      <point x="265" y="1440" type="line"/>
      <point x="1343" y="1440" type="line"/>
      <point x="1337" y="1406" type="line"/>
      <point x="489" y="256" type="line"/>
      <point x="1136" y="256" type="line"/>
      <point x="1095" y="0" type="line"/>
    </contour>
  </outline>
</glyph>
<glyph name="bracketleft" format="2">
  <advance width="800"/>
  <unicode hex="005B"/>
  <outline>
    <contour>
      <point x="70" y="-420" type="line"/>
      <point x="421" y="1800" type="line"/>
      <point x="870" y="1800" type="line"/>
      <point x="832" y="1560" type="line"/>
      <point x="619" y="1560" type="line"/>
      <point x="343" y="-180" type="line"/>
      <point x="557" y="-180" type="line"/>
      <point x="519" y="-420" type="line"/>
    </contour>
  </outline>
</glyph>
<glyph name="bracketright" format="2">
  <advance width="858"/>
  <unicode hex="005D"/>
  <outline>
    <contour>
      <point x="518" y="-420" type="line"/>
      <point x="855" y="1800" type="line"/>
      <point x="406" y="1800" type="line"/>
      <point x="370" y="1560" type="line"/>
      <point x="583" y="1560" type="line"/>
      <point x="319" y="-180" type="line"/>
      <point x="105" y="-180" type="line"/>
      <point x="69" y="-420" type="line"/>
    </contour>
  </outline>
</glyph>
<glyph name="a" format="2">
  <advance width="1088"/>
  <unicode hex="0061"/>
  <outline>
    <contour>
      <point x="336" y="-30" type="curve" smooth="yes"/>
      <point x="158" y="-30"/>
      <point x="23" y="74"/>
      <point x="23" y="260" type="curve" smooth="yes"/>
      <point x="23" y="516"/>
      <point x="188" y="613"/>
      <point x="415" y="663" type="curve" smooth="yes"/>
      <point x="459" y="673"/>
      <point x="504" y="681"/>
      <point x="549" y="689" type="curve" smooth="yes"/>
      <point x="638" y="704"/>
      <point x="728" y="716"/>
      <point x="817" y="730" type="curve"/>
      <point x="720" y="676" type="line"/>
      <point x="721" y="687"/>
      <point x="722" y="699"/>
      <point x="722" y="710" type="curve" smooth="yes"/>
      <point x="722" y="828"/>
      <point x="654" y="862"/>
      <point x="546" y="862" type="curve" smooth="yes"/>
      <point x="454" y="862"/>
      <point x="368" y="816"/>
      <point x="330" y="730" type="curve"/>
      <point x="105" y="808" type="line"/>
      <point x="183" y="1014"/>
      <point x="353" y="1110"/>
      <point x="568" y="1110" type="curve" smooth="yes"/>
      <point x="727" y="1110"/>
      <point x="880" y="1073"/>
      <point x="950" y="914" type="curve" smooth="yes"/>
      <point x="973" y="862"/>
      <point x="985" y="804"/>
      <point x="985" y="747" type="curve" smooth="yes"/>
      <point x="985" y="718"/>
      <point x="982" y="689"/>
      <point x="977" y="660" type="curve" smooth="yes"/>
      <point x="873" y="0" type="line"/>
      <point x="649" y="0" type="line"/>
      <point x="684" y="222" type="line"/>
      <point x="734" y="176" type="line"/>
      <point x="630" y="40"/>
      <point x="510" y="-30"/>
    </contour>
    <contour>
      <point x="409" y="184" type="curve" smooth="yes"/>
      <point x="509" y="184"/>
      <point x="611" y="239"/>
      <point x="659" y="328" type="curve" smooth="yes"/>
      <point x="671" y="351"/>
      <point x="680" y="375"/>
      <point x="686" y="400" type="curve" smooth="yes"/>
      <point x="696" y="442"/>
      <point x="700" y="486"/>
      <point x="704" y="528" type="curve"/>
      <point x="777" y="508" type="line"/>
      <point x="728" y="500"/>
      <point x="642" y="488"/>
      <point x="557" y="470" type="curve" smooth="yes"/>
      <point x="462" y="451"/>
      <point x="368" y="426"/>
      <point x="328" y="392" type="curve" smooth="yes"/>
      <point x="301" y="369"/>
      <point x="283" y="345"/>
      <point x="276" y="313" type="curve"/>
      <point x="275" y="305"/>
      <point x="274" y="296"/>
      <point x="274" y="287" type="curve" smooth="yes"/>
      <point x="274" y="211"/>
      <point x="344" y="184"/>
    </contour>
  </outline>
</glyph>
<glyph name="b" format="2">
  <advance width="1164"/>
  <unicode hex="0062"/>
  <outline>
    <contour>
      <point x="560" y="-30" type="qcurve" smooth="yes"/>
      <point x="451" y="-30"/>
      <point x="294" y="48"/>
      <point x="194" y="181"/>
      <point x="147" y="358"/>
      <point x="147" y="458" type="qcurve" smooth="yes"/>
      <point x="147" y="534"/>
      <point x="172" y="689"/>
      <point x="225" y="834"/>
      <point x="306" y="961"/>
      <point x="417" y="1055"/>
      <point x="560" y="1110"/>
      <point x="647" y="1110" type="qcurve" smooth="yes"/>
      <point x="755" y="1110"/>
      <point x="918" y="1031"/>
      <point x="1029" y="895"/>
      <point x="1085" y="716"/>
      <point x="1085" y="615" type="qcurve" smooth="yes"/>
      <point x="1085" y="539"/>
      <point x="1055" y="383"/>
      <point x="995" y="240"/>
      <point x="907" y="115"/>
      <point x="790" y="23"/>
      <point x="646" y="-30"/>
    </contour>
    <contour>
      <point x="11" y="0" type="line"/>
      <point x="240" y="1440" type="line"/>
      <point x="497" y="1440" type="line"/>
      <point x="386" y="740" type="line"/>
      <point x="354" y="740" type="line"/>
      <point x="237" y="0" type="line"/>
    </contour>
    <contour>
      <point x="540" y="212" type="qcurve" smooth="yes"/>
      <point x="590" y="212"/>
      <point x="670" y="245"/>
      <point x="730" y="300"/>
      <point x="773" y="375"/>
      <point x="800" y="459"/>
      <point x="812" y="548"/>
      <point x="812" y="590" type="qcurve" smooth="yes"/>
      <point x="812" y="645"/>
      <point x="788" y="746"/>
      <point x="735" y="822"/>
      <point x="650" y="868"/>
      <point x="588" y="868" type="qcurve" smooth="yes"/>
      <point x="536" y="868"/>
      <point x="457" y="833"/>
      <point x="399" y="773"/>
      <point x="362" y="694"/>
      <point x="340" y="606"/>
      <point x="331" y="515"/>
      <point x="331" y="473" type="qcurve" smooth="yes"/>
      <point x="331" y="419"/>
      <point x="350" y="323"/>
      <point x="398" y="253"/>
      <point x="479" y="212"/>
    </contour>
  </outline>
</glyph>
<glyph name="c" format="2">
  <advance width="1095"/>
  <unicode hex="0063"/>
  <outline>
    <contour>
      <point x="503" y="-30" type="curve" smooth="yes"/>
      <point x="207" y="-30"/>
      <point x="43" y="183"/>
      <point x="43" y="466" type="curve" smooth="yes"/>
      <point x="43" y="801"/>
      <point x="248" y="1110"/>
      <point x="608" y="1110" type="curve" smooth="yes"/>
      <point x="837" y="1110"/>
      <point x="1009" y="985"/>
      <point x="1036" y="750" type="curve"/>
      <point x="771" y="678" type="line"/>
      <point x="753" y="778"/>
      <point x="687" y="856"/>
      <point x="580" y="856" type="curve" smooth="yes"/>
      <point x="381" y="856"/>
      <point x="315" y="654"/>
      <point x="315" y="488" type="curve" smooth="yes"/>
      <point x="315" y="351"/>
      <point x="367" y="224"/>
      <point x="524" y="224" type="curve" smooth="yes"/>
      <point x="634" y="224"/>
      <point x="706" y="283"/>
      <point x="740" y="386" type="curve"/>
      <point x="999" y="328" type="line"/>
      <point x="921" y="101"/>
      <point x="744" y="-30"/>
    </contour>
  </outline>
</glyph>
<glyph name="d" format="2">
  <advance width="1166"/>
  <unicode hex="0064"/>
  <outline>
    <contour>
      <point x="466" y="-30" type="curve" smooth="yes"/>
      <point x="183" y="-30"/>
      <point x="43" y="210"/>
      <point x="43" y="468" type="curve" smooth="yes"/>
      <point x="43" y="785"/>
      <point x="230" y="1110"/>
      <point x="580" y="1110" type="curve" smooth="yes"/>
      <point x="866" y="1110"/>
      <point x="980" y="878"/>
      <point x="980" y="623" type="curve" smooth="yes"/>
      <point x="980" y="309"/>
      <point x="824" y="-30"/>
    </contour>
    <contour>
      <point x="529" y="212" type="curve" smooth="yes"/>
      <point x="747" y="212"/>
      <point x="796" y="431"/>
      <point x="796" y="607" type="curve" smooth="yes"/>
      <point x="796" y="744"/>
      <point x="756" y="868"/>
      <point x="596" y="868" type="curve" smooth="yes"/>
      <point x="391" y="868"/>
      <point x="315" y="662"/>
      <point x="315" y="488" type="curve" smooth="yes"/>
      <point x="315" y="348"/>
      <point x="367" y="212"/>
    </contour>
    <contour>
      <point x="708" y="0" type="line"/>
      <point x="825" y="740" type="line"/>
      <point x="793" y="740" type="line"/>
      <point x="904" y="1440" type="line"/>
      <point x="1161" y="1440" type="line"/>
      <point x="933" y="0" type="line"/>
    </contour>
  </outline>
</glyph>
<glyph name="e" format="2">
  <advance width="1141"/>
  <unicode hex="0065"/>
  <outline>
    <contour>
      <point x="528" y="-30" type="curve" smooth="yes"/>
      <point x="238" y="-30"/>
      <point x="42" y="171"/>
      <point x="42" y="460" type="curve" smooth="yes"/>
      <point x="42" y="797"/>
      <point x="253" y="1110"/>
      <point x="614" y="1110" type="curve" smooth="yes"/>
      <point x="904" y="1110"/>
      <point x="1050" y="904"/>
      <point x="1050" y="630" type="curve" smooth="yes"/>
      <point x="1050" y="574"/>
      <point x="1045" y="519"/>
      <point x="1035" y="464" type="curve"/>
      <point x="781" y="464" type="line"/>
      <point x="786" y="524"/>
      <point x="794" y="583"/>
      <point x="794" y="643" type="curve" smooth="yes"/>
      <point x="794" y="777"/>
      <point x="757" y="874"/>
      <point x="605" y="874" type="curve" smooth="yes"/>
      <point x="379" y="874"/>
      <point x="316" y="675"/>
      <point x="316" y="484" type="curve" smooth="yes"/>
      <point x="316" y="338"/>
      <point x="374" y="224"/>
      <point x="536" y="224" type="curve" smooth="yes"/>
      <point x="635" y="224"/>
      <point x="715" y="272"/>
      <point x="761" y="360" type="curve"/>
      <point x="1011" y="282" type="line"/>
      <point x="921" y="95"/>
      <point x="738" y="-30"/>
    </contour>
    <contour>
      <point x="228" y="464" type="line"/>
      <point x="260" y="666" type="line"/>
      <point x="938" y="666" type="line"/>
      <point x="906" y="464" type="line"/>
    </contour>
  </outline>
</glyph>
<glyph name="f" format="2">
  <advance width="725"/>
  <unicode hex="0066"/>
  <outline>
    <contour>
      <point x="104" y="0" type="line"/>
      <point x="275" y="1076" type="line" smooth="yes"/>
      <point x="283" y="1126"/>
      <point x="292" y="1178"/>
      <point x="307" y="1226" type="curve" smooth="yes"/>
      <point x="312" y="1243"/>
      <point x="317" y="1259"/>
      <point x="324" y="1274" type="curve" smooth="yes"/>
      <point x="375" y="1391"/>
      <point x="489" y="1464"/>
      <point x="615" y="1469" type="curve" smooth="yes"/>
      <point x="630" y="1470"/>
      <point x="645" y="1470"/>
      <point x="660" y="1470" type="curve" smooth="yes"/>
      <point x="674" y="1470"/>
      <point x="689" y="1470"/>
      <point x="704" y="1470" type="curve" smooth="yes"/>
      <point x="830" y="1470" type="line"/>
      <point x="795" y="1250" type="line"/>
      <point x="769" y="1250"/>
      <point x="743" y="1251"/>
      <point x="717" y="1251" type="curve" smooth="yes"/>
      <point x="633" y="1251"/>
      <point x="556" y="1237"/>
      <point x="541" y="1140" type="curve"/>
      <point x="541" y="1140"/>
      <point x="541" y="1140"/>
      <point x="541" y="1140" type="curve"/>
      <point x="360" y="0" type="line"/>
    </contour>
    <contour>
      <point x="81" y="870" type="line"/>
      <point x="114" y="1080" type="line"/>
      <point x="769" y="1080" type="line"/>
      <point x="735" y="870" type="line"/>
    </contour>
  </outline>
</glyph>
<glyph name="g" format="2">
  <advance width="1164"/>
  <unicode hex="0067"/>
  <outline>
    <contour>
      <point x="372" y="-510" type="curve" smooth="yes"/>
      <point x="212" y="-510"/>
      <point x="64" y="-428"/>
      <point x="3" y="-276" type="curve"/>
      <point x="260" y="-154" type="line"/>
      <point x="284" y="-221"/>
      <point x="347" y="-252"/>
      <point x="415" y="-252" type="curve" smooth="yes"/>
      <point x="539" y="-252"/>
      <point x="635" y="-195"/>
      <point x="665" y="-70" type="curve" smooth="yes"/>
      <point x="679" y="-8"/>
      <point x="688" y="55"/>
      <point x="697" y="118" type="curve"/>
      <point x="702" y="160"/>
      <point x="708" y="202"/>
      <point x="714" y="244" type="curve"/>
      <point x="746" y="244" type="line"/>
      <point x="879" y="1080" type="line"/>
      <point x="1102" y="1080" type="line"/>
      <point x="940" y="54" type="line" smooth="yes"/>
      <point x="933" y="11"/>
      <point x="927" y="-31"/>
      <point x="920" y="-74" type="curve" smooth="yes"/>
      <point x="912" y="-124"/>
      <point x="900" y="-173"/>
      <point x="881" y="-220" type="curve" smooth="yes"/>
      <point x="797" y="-428"/>
      <point x="583" y="-510"/>
    </contour>
    <contour>
      <point x="466" y="-30" type="curve" smooth="yes"/>
      <point x="183" y="-30"/>
      <point x="43" y="210"/>
      <point x="43" y="468" type="curve" smooth="yes"/>
      <point x="43" y="785"/>
      <point x="230" y="1110"/>
      <point x="580" y="1110" type="curve" smooth="yes"/>
      <point x="866" y="1110"/>
      <point x="980" y="878"/>
      <point x="980" y="623" type="curve" smooth="yes"/>
      <point x="980" y="309"/>
      <point x="824" y="-30"/>
    </contour>
    <contour>
      <point x="529" y="212" type="curve" smooth="yes"/>
      <point x="747" y="212"/>
      <point x="796" y="431"/>
      <point x="796" y="607" type="curve" smooth="yes"/>
      <point x="796" y="744"/>
      <point x="756" y="868"/>
      <point x="596" y="868" type="curve" smooth="yes"/>
      <point x="391" y="868"/>
      <point x="315" y="662"/>
      <point x="315" y="488" type="curve" smooth="yes"/>
      <point x="315" y="348"/>
      <point x="367" y="212"/>
    </contour>
  </outline>
</glyph>
<glyph name="h" format="2">
  <advance width="1184"/>
  <unicode hex="0068"/>
  <outline>
    <contour>
      <point x="710" y="0" type="line"/>
      <point x="791" y="510" type="line" smooth="yes"/>
      <point x="798" y="554"/>
      <point x="804" y="598"/>
      <point x="804" y="642" type="curve" smooth="yes"/>
      <point x="804" y="766"/>
      <point x="763" y="856"/>
      <point x="625" y="856" type="curve" smooth="yes"/>
      <point x="448" y="856"/>
      <point x="382" y="698"/>
      <point x="358" y="548" type="curve"/>
      <point x="223" y="622" type="line"/>
      <point x="265" y="894"/>
      <point x="459" y="1112"/>
      <point x="746" y="1112" type="curve" smooth="yes"/>
      <point x="981" y="1112"/>
      <point x="1078" y="972"/>
      <point x="1078" y="749" type="curve" smooth="yes"/>
      <point x="1078" y="701"/>
      <point x="1072" y="653"/>
      <point x="1065" y="606" type="curve" smooth="yes"/>
      <point x="969" y="0" type="line"/>
    </contour>
    <contour>
      <point x="11" y="0" type="line"/>
      <point x="240" y="1440" type="line"/>
      <point x="467" y="1440" type="line"/>
      <point x="350" y="700" type="line"/>
      <point x="382" y="700" type="line"/>
      <point x="271" y="0" type="line"/>
    </contour>
  </outline>
</glyph>
<glyph name="j" format="2">
  <advance width="561"/>
  <unicode hex="006A"/>
  <outline>
    <contour>
      <point x="-204" y="-480" type="line"/>
      <point x="-163" y="-226" type="line"/>
      <point x="-154" y="-226" type="line" smooth="yes"/>
      <point x="-24" y="-226"/>
      <point x="40" y="-202"/>
      <point x="62" y="-64" type="curve" smooth="yes"/>
      <point x="243" y="1080" type="line"/>
      <point x="498" y="1080" type="line"/>
      <point x="296" y="-196" type="line" smooth="yes"/>
      <point x="269" y="-367"/>
      <point x="145" y="-480"/>
      <point x="-30" y="-480" type="curve" smooth="yes"/>
    </contour>
    <contour>
      <point x="388" y="1191" type="curve" smooth="yes"/>
      <point x="314" y="1191"/>
      <point x="261" y="1245"/>
      <point x="261" y="1319" type="curve" smooth="yes"/>
      <point x="261" y="1416"/>
      <point x="338" y="1507"/>
      <point x="438" y="1507" type="curve" smooth="yes"/>
      <point x="514" y="1507"/>
      <point x="565" y="1454"/>
      <point x="565" y="1378" type="curve" smooth="yes"/>
      <point x="565" y="1281"/>
      <point x="488" y="1191"/>
    </contour>
  </outline>
</glyph>
<glyph name="l" format="2">
  <advance width="619"/>
  <unicode hex="006C"/>
  <outline>
    <contour>
      <point x="475" y="0" type="line"/>
      <point x="359" y="0" type="line" smooth="yes"/>
      <point x="193" y="0"/>
      <point x="76" y="73"/>
      <point x="76" y="251" type="curve" smooth="yes"/>
      <point x="76" y="273"/>
      <point x="78" y="296"/>
      <point x="81" y="318" type="curve" smooth="yes"/>
      <point x="259" y="1440" type="line"/>
      <point x="515" y="1440" type="line"/>
      <point x="360" y="467" type="line" smooth="yes"/>
      <point x="353" y="423"/>
      <point x="342" y="380"/>
      <point x="342" y="335" type="curve" smooth="yes"/>
      <point x="342" y="229"/>
      <point x="436" y="240"/>
      <point x="513" y="240" type="curve"/>
    </contour>
  </outline>
</glyph>
<glyph name="m" format="2">
  <advance width="1714"/>
  <unicode hex="006D"/>
  <outline>
    <contour>
      <point x="1243" y="0" type="line"/>
      <point x="1344" y="638" type="line" smooth="yes"/>
      <point x="1347" y="658"/>
      <point x="1349" y="679"/>
      <point x="1349" y="699" type="curve"/>
      <point x="1349" y="699"/>
      <point x="1349" y="699"/>
      <point x="1349" y="699" type="curve"/>
      <point x="1349" y="796"/>
      <point x="1302" y="864"/>
      <point x="1199" y="864" type="curve"/>
      <point x="1199" y="864"/>
      <point x="1199" y="864"/>
      <point x="1199" y="864" type="curve"/>
      <point x="1080" y="864"/>
      <point x="1005" y="763"/>
      <point x="987" y="654" type="curve"/>
      <point x="892" y="730" type="line"/>
      <point x="926" y="941"/>
      <point x="1103" y="1106"/>
      <point x="1320" y="1106" type="curve" smooth="yes"/>
      <point x="1514" y="1106"/>
      <point x="1619" y="997"/>
      <point x="1619" y="804" type="curve" smooth="yes"/>
      <point x="1619" y="772"/>
      <point x="1616" y="741"/>
      <point x="1611" y="710" type="curve" smooth="yes"/>
      <point x="1499" y="0" type="line"/>
    </contour>
    <contour>
      <point x="11" y="0" type="line"/>
      <point x="182" y="1080" type="line"/>
      <point x="408" y="1080" type="line"/>
      <point x="351" y="722" type="line"/>
      <point x="383" y="722" type="line"/>
      <point x="269" y="0" type="line"/>
    </contour>
    <contour>
      <point x="628" y="0" type="line"/>
      <point x="729" y="638" type="line" smooth="yes"/>
      <point x="732" y="658"/>
      <point x="734" y="679"/>
      <point x="734" y="699" type="curve"/>
      <point x="734" y="699"/>
      <point x="734" y="699"/>
      <point x="734" y="699" type="curve"/>
      <point x="734" y="796"/>
      <point x="687" y="864"/>
      <point x="584" y="864" type="curve" smooth="yes"/>
      <point x="464" y="864"/>
      <point x="390" y="764"/>
      <point x="373" y="654" type="curve"/>
      <point x="278" y="734" type="line"/>
      <point x="311" y="943"/>
      <point x="499" y="1106"/>
      <point x="711" y="1106" type="curve" smooth="yes"/>
      <point x="906" y="1106"/>
      <point x="1003" y="990"/>
      <point x="1003" y="800" type="curve" smooth="yes"/>
      <point x="1003" y="770"/>
      <point x="1001" y="740"/>
      <point x="996" y="710" type="curve" smooth="yes"/>
      <point x="884" y="0" type="line"/>
    </contour>
  </outline>
</glyph>
<glyph name="n" format="2">
  <advance width="1184"/>
  <unicode hex="006E"/>
  <outline>
    <contour>
      <point x="710" y="0" type="line"/>
      <point x="791" y="510" type="line" smooth="yes"/>
      <point x="798" y="554"/>
      <point x="804" y="598"/>
      <point x="804" y="642" type="curve" smooth="yes"/>
      <point x="804" y="766"/>
      <point x="763" y="856"/>
      <point x="625" y="856" type="curve" smooth="yes"/>
      <point x="448" y="856"/>
      <point x="382" y="698"/>
      <point x="358" y="548" type="curve"/>
      <point x="223" y="622" type="line"/>
      <point x="265" y="894"/>
      <point x="459" y="1112"/>
      <point x="746" y="1112" type="curve" smooth="yes"/>
      <point x="981" y="1112"/>
      <point x="1078" y="972"/>
      <point x="1078" y="749" type="curve" smooth="yes"/>
      <point x="1078" y="701"/>
      <point x="1072" y="653"/>
      <point x="1065" y="606" type="curve" smooth="yes"/>
      <point x="969" y="0" type="line"/>
    </contour>
    <contour>
      <point x="11" y="0" type="line"/>
      <point x="182" y="1080" type="line"/>
      <point x="410" y="1080" type="line"/>
      <point x="353" y="722" type="line"/>
      <point x="385" y="722" type="line"/>
      <point x="271" y="0" type="line"/>
    </contour>
  </outline>
</glyph>
<glyph name="o" format="2">
  <advance width="1174"/>
  <unicode hex="006F"/>
  <outline>
    <contour>
      <point x="511" y="-30" type="curve" smooth="yes"/>
      <point x="216" y="-30"/>
      <point x="43" y="185"/>
      <point x="43" y="469" type="curve" smooth="yes"/>
      <point x="43" y="803"/>
      <point x="255" y="1110"/>
      <point x="612" y="1110" type="curve" smooth="yes"/>
      <point x="907" y="1110"/>
      <point x="1082" y="896"/>
      <point x="1082" y="611" type="curve" smooth="yes"/>
      <point x="1082" y="274"/>
      <point x="870" y="-30"/>
    </contour>
    <contour>
      <point x="534" y="224" type="curve" smooth="yes"/>
      <point x="738" y="224"/>
      <point x="811" y="419"/>
      <point x="811" y="593" type="curve" smooth="yes"/>
      <point x="811" y="738"/>
      <point x="751" y="856"/>
      <point x="590" y="856" type="curve" smooth="yes"/>
      <point x="382" y="856"/>
      <point x="314" y="663"/>
      <point x="314" y="486" type="curve" smooth="yes"/>
      <point x="314" y="342"/>
      <point x="374" y="224"/>
    </contour>
  </outline>
</glyph>
<glyph name="p" format="2">
  <advance width="1164"/>
  <unicode hex="0070"/>
  <outline>
    <contour>
      <point x="549" y="-30" type="curve" smooth="yes"/>
      <point x="257" y="-30"/>
      <point x="136" y="193"/>
      <point x="136" y="458" type="curve" smooth="yes"/>
      <point x="136" y="761"/>
      <point x="286" y="1110"/>
      <point x="636" y="1110" type="curve" smooth="yes"/>
      <point x="923" y="1110"/>
      <point x="1074" y="883"/>
      <point x="1074" y="615" type="curve" smooth="yes"/>
      <point x="1074" y="309"/>
      <point x="891" y="-30"/>
    </contour>
    <contour>
      <point x="-65" y="-480" type="line"/>
      <point x="182" y="1080" type="line"/>
      <point x="408" y="1080" type="line"/>
      <point x="291" y="340" type="line"/>
      <point x="323" y="340" type="line"/>
      <point x="193" y="-480" type="line"/>
    </contour>
    <contour>
      <point x="529" y="212" type="curve" smooth="yes"/>
      <point x="730" y="212"/>
      <point x="801" y="421"/>
      <point x="801" y="590" type="curve" smooth="yes"/>
      <point x="801" y="736"/>
      <point x="742" y="868"/>
      <point x="577" y="868" type="curve" smooth="yes"/>
      <point x="367" y="868"/>
      <point x="320" y="640"/>
      <point x="320" y="473" type="curve" smooth="yes"/>
      <point x="320" y="329"/>
      <point x="365" y="212"/>
    </contour>
  </outline>
</glyph>
<glyph name="q" format="2">
  <advance width="1166"/>
  <unicode hex="0071"/>
  <outline>
    <contour>
      <point x="449" y="-30" type="curve" smooth="yes"/>
      <point x="166" y="-30"/>
      <point x="26" y="209"/>
      <point x="26" y="468" type="curve" smooth="yes"/>
      <point x="26" y="785"/>
      <point x="213" y="1110"/>
      <point x="563" y="1110" type="curve" smooth="yes"/>
      <point x="849" y="1110"/>
      <point x="963" y="879"/>
      <point x="963" y="623" type="curve" smooth="yes"/>
      <point x="963" y="308"/>
      <point x="807" y="-30"/>
    </contour>
    <contour>
      <point x="512" y="212" type="curve" smooth="yes"/>
      <point x="730" y="212"/>
      <point x="779" y="430"/>
      <point x="779" y="607" type="curve" smooth="yes"/>
      <point x="779" y="745"/>
      <point x="738" y="868"/>
      <point x="579" y="868" type="curve" smooth="yes"/>
      <point x="374" y="868"/>
      <point x="298" y="662"/>
      <point x="298" y="488" type="curve" smooth="yes"/>
      <point x="298" y="346"/>
      <point x="350" y="212"/>
    </contour>
    <contour>
      <point x="600" y="-480" type="line"/>
      <point x="730" y="340" type="line"/>
      <point x="762" y="340" type="line"/>
      <point x="879" y="1080" type="line"/>
      <point x="1104" y="1080" type="line"/>
      <point x="857" y="-480" type="line"/>
    </contour>
  </outline>
</glyph>
<glyph name="r" format="2">
  <advance width="766"/>
  <unicode hex="0072"/>
  <outline>
    <contour>
      <point x="13" y="0" type="line"/>
      <point x="184" y="1080" type="line"/>
      <point x="410" y="1080" type="line"/>
      <point x="368" y="816" type="line"/>
      <point x="349" y="850" type="line"/>
      <point x="416" y="980"/>
      <point x="525" y="1062"/>
      <point x="664" y="1080" type="curve" smooth="yes"/>
      <point x="684" y="1083"/>
      <point x="704" y="1084"/>
      <point x="725" y="1084" type="curve" smooth="yes"/>
      <point x="745" y="1084"/>
      <point x="765" y="1083"/>
      <point x="784" y="1080" type="curve"/>
      <point x="744" y="826" type="line"/>
      <point x="721" y="834"/>
      <point x="697" y="837"/>
      <point x="673" y="837" type="curve" smooth="yes"/>
      <point x="608" y="837"/>
      <point x="551" y="820"/>
      <point x="504" y="790" type="curve" smooth="yes"/>
      <point x="426" y="741"/>
      <point x="374" y="655"/>
      <point x="358" y="552" type="curve" smooth="yes"/>
      <point x="352" y="511"/>
      <point x="345" y="470"/>
      <point x="339" y="429" type="curve" smooth="yes"/>
      <point x="271" y="0" type="line"/>
    </contour>
  </outline>
</glyph>
<glyph name="s" format="2">
  <advance width="1022"/>
  <unicode hex="0073"/>
  <outline>
    <contour>
      <point x="451" y="-30" type="curve" smooth="yes"/>
      <point x="220" y="-30"/>
      <point x="42" y="77"/>
      <point x="27" y="324" type="curve"/>
      <point x="292" y="366" type="line"/>
      <point x="305" y="258"/>
      <point x="386" y="204"/>
      <point x="490" y="204" type="curve" smooth="yes"/>
      <point x="567" y="204"/>
      <point x="647" y="233"/>
      <point x="647" y="323" type="curve"/>
      <point x="647" y="323"/>
      <point x="647" y="323"/>
      <point x="647" y="323" type="curve"/>
      <point x="647" y="336"/>
      <point x="643" y="353"/>
      <point x="636" y="364" type="curve" smooth="yes"/>
      <point x="575" y="459"/>
      <point x="164" y="432"/>
      <point x="106" y="673" type="curve" smooth="yes"/>
      <point x="101" y="692"/>
      <point x="99" y="712"/>
      <point x="99" y="734" type="curve" smooth="yes"/>
      <point x="99" y="753"/>
      <point x="100" y="772"/>
      <point x="103" y="790" type="curve"/>
      <point x="131" y="1004"/>
      <point x="323" y="1110"/>
      <point x="536" y="1110" type="curve" smooth="yes"/>
      <point x="740" y="1110"/>
      <point x="930" y="1016"/>
      <point x="941" y="790" type="curve"/>
      <point x="675" y="740" type="line"/>
      <point x="676" y="838"/>
      <point x="583" y="877"/>
      <point x="499" y="877" type="curve" smooth="yes"/>
      <point x="438" y="877"/>
      <point x="356" y="853"/>
      <point x="356" y="778" type="curve"/>
      <point x="356" y="778"/>
      <point x="356" y="778"/>
      <point x="356" y="778" type="curve"/>
      <point x="356" y="635"/>
      <point x="839" y="698"/>
      <point x="903" y="424" type="curve" smooth="yes"/>
      <point x="908" y="404"/>
      <point x="910" y="383"/>
      <point x="910" y="360" type="curve" smooth="yes"/>
      <point x="910" y="339"/>
      <point x="909" y="320"/>
      <point x="906" y="301" type="curve"/>
      <point x="877" y="74"/>
      <point x="676" y="-30"/>
    </contour>
  </outline>
</glyph>
<glyph name="t" format="2">
  <advance width="832"/>
  <unicode hex="0074"/>
  <outline>
    <contour>
      <point x="634" y="0" type="line"/>
      <point x="572" y="-12"/>
      <point x="509" y="-19"/>
      <point x="446" y="-19" type="curve" smooth="yes"/>
      <point x="270" y="-19"/>
      <point x="126" y="42"/>
      <point x="126" y="241" type="curve" smooth="yes"/>
      <point x="126" y="314"/>
      <point x="144" y="386"/>
      <point x="155" y="458" type="curve" smooth="yes"/>
      <point x="301" y="1380" type="line"/>
      <point x="557" y="1380" type="line"/>
      <point x="413" y="474" type="line" smooth="yes"/>
      <point x="405" y="426"/>
      <point x="394" y="378"/>
      <point x="394" y="329" type="curve" smooth="yes"/>
      <point x="394" y="233"/>
      <point x="465" y="217"/>
      <point x="545" y="217" type="curve" smooth="yes"/>
      <point x="587" y="217"/>
      <point x="629" y="220"/>
      <point x="670" y="226" type="curve"/>
    </contour>
    <contour>
      <point x="45" y="870" type="line"/>
      <point x="79" y="1080" type="line"/>
      <point x="806" y="1080" type="line"/>
      <point x="772" y="870" type="line"/>
    </contour>
  </outline>
</glyph>
<glyph name="u" format="2">
  <advance width="1184"/>
  <unicode hex="0075"/>
  <outline>
    <contour>
      <point x="431" y="-32" type="curve" smooth="yes"/>
      <point x="177" y="-32"/>
      <point x="82" y="139"/>
      <point x="82" y="375" type="curve" smooth="yes"/>
      <point x="82" y="410"/>
      <point x="87" y="443"/>
      <point x="93" y="474" type="curve"/>
      <point x="189" y="1080" type="line"/>
      <point x="448" y="1080" type="line"/>
      <point x="367" y="570" type="line" smooth="yes"/>
      <point x="359" y="522"/>
      <point x="345" y="475"/>
      <point x="345" y="426" type="curve" smooth="yes"/>
      <point x="345" y="306"/>
      <point x="410" y="224"/>
      <point x="534" y="224" type="curve" smooth="yes"/>
      <point x="711" y="224"/>
      <point x="766" y="383"/>
      <point x="779" y="532" type="curve"/>
      <point x="920" y="458" type="line"/>
      <point x="897" y="185"/>
      <point x="718" y="-32"/>
    </contour>
    <contour>
      <point x="726" y="0" type="line"/>
      <point x="783" y="358" type="line"/>
      <point x="751" y="358" type="line"/>
      <point x="865" y="1080" type="line"/>
      <point x="1123" y="1080" type="line"/>
      <point x="952" y="0" type="line"/>
    </contour>
  </outline>
</glyph>
<glyph name="v" format="2">
  <advance width="1073"/>
  <unicode hex="0076"/>
  <outline>
    <contour>
      <point x="298" y="0" type="line"/>
      <point x="96" y="1080" type="line"/>
      <point x="355" y="1080" type="line"/>
      <point x="479" y="332" type="line"/>
      <point x="841" y="1080" type="line"/>
      <point x="1099" y="1080" type="line"/>
      <point x="556" y="0" type="line"/>
    </contour>
  </outline>
</glyph>
<glyph name="y" format="2">
  <advance width="1086"/>
  <unicode hex="0079"/>
  <outline>
    <contour>
      <point x="882" y="1080" type="line"/>
      <point x="1140" y="1080" type="line"/>
      <point x="518" y="-146" type="line" smooth="yes"/>
      <point x="489" y="-203"/>
      <point x="465" y="-251"/>
      <point x="444" y="-291" type="curve" smooth="yes"/>
      <point x="379" y="-410"/>
      <point x="331" y="-457"/>
      <point x="198" y="-473" type="curve" smooth="yes"/>
      <point x="153" y="-478"/>
      <point x="99" y="-480"/>
      <point x="32" y="-480" type="curve"/>
      <point x="72" y="-222" type="line"/>
      <point x="199" y="-222"/>
      <point x="244" y="-191"/>
      <point x="283" y="-125" type="curve"/>
      <point x="283" y="-125"/>
      <point x="283" y="-125"/>
      <point x="283" y="-125" type="curve"/>
      <point x="302" y="-92"/>
      <point x="319" y="-51"/>
      <point x="344" y="0" type="curve"/>
      <point x="320" y="0" type="line"/>
      <point x="108" y="1080" type="line"/>
      <point x="366" y="1080" type="line"/>
      <point x="500" y="314" type="line"/>
    </contour>
  </outline>
</glyph>
<glyph name="braceleft" format="2">
  <advance width="863"/>
  <unicode hex="007B"/>
  <outline>
    <contour>
      <point x="478" y="-420" type="line" smooth="yes"/>
      <point x="331" y="-420"/>
      <point x="230" y="-345"/>
      <point x="230" y="-192" type="curve" smooth="yes"/>
      <point x="230" y="-170"/>
      <point x="233" y="-148"/>
      <point x="236" y="-126" type="curve" smooth="yes"/>
      <point x="328" y="458" type="line"/>
      <point x="329" y="462"/>
      <point x="329" y="465"/>
      <point x="329" y="469" type="curve" smooth="yes"/>
      <point x="329" y="517"/>
      <point x="244" y="596"/>
      <point x="244" y="669" type="curve" smooth="yes"/>
      <point x="244" y="780"/>
      <point x="391" y="854"/>
      <point x="402" y="922" type="curve" smooth="yes"/>
      <point x="494" y="1506" type="line" smooth="yes"/>
      <point x="522" y="1685"/>
      <point x="645" y="1800"/>
      <point x="829" y="1800" type="curve" smooth="yes"/>
      <point x="968" y="1800" type="line"/>
      <point x="928" y="1544" type="line"/>
      <point x="808" y="1544" type="line" smooth="yes"/>
      <point x="776" y="1544"/>
      <point x="747" y="1518"/>
      <point x="742" y="1486" type="curve" smooth="yes"/>
      <point x="653" y="922" type="line" smooth="yes"/>
      <point x="637" y="821"/>
      <point x="588" y="764"/>
      <point x="522" y="690" type="curve"/>
      <point x="558" y="625"/>
      <point x="583" y="585"/>
      <point x="583" y="509" type="curve" smooth="yes"/>
      <point x="583" y="492"/>
      <point x="582" y="475"/>
      <point x="579" y="458" type="curve" smooth="yes"/>
      <point x="490" y="-106" type="line"/>
      <point x="489" y="-110"/>
      <point x="489" y="-113"/>
      <point x="489" y="-117" type="curve" smooth="yes"/>
      <point x="489" y="-144"/>
      <point x="509" y="-166"/>
      <point x="537" y="-166" type="curve" smooth="yes"/>
      <point x="657" y="-166" type="line"/>
      <point x="617" y="-420" type="line"/>
    </contour>
  </outline>
</glyph>
<glyph name="braceright" format="2">
  <advance width="918"/>
  <unicode hex="007D"/>
  <outline>
    <contour>
      <point x="270" y="-420" type="line" smooth="yes"/>
      <point x="405" y="-420"/>
      <point x="505" y="-360"/>
      <point x="561" y="-258" type="curve"/>
      <point x="581" y="-219"/>
      <point x="596" y="-175"/>
      <point x="603" y="-126" type="curve" smooth="yes"/>
      <point x="692" y="458" type="line" smooth="yes"/>
      <point x="703" y="529"/>
      <point x="848" y="599"/>
      <point x="848" y="710" type="curve" smooth="yes"/>
      <point x="848" y="783"/>
      <point x="762" y="859"/>
      <point x="762" y="915" type="curve" smooth="yes"/>
      <point x="762" y="917"/>
      <point x="762" y="920"/>
      <point x="762" y="922" type="curve"/>
      <point x="851" y="1506" type="line"/>
      <point x="853" y="1516"/>
      <point x="854" y="1526"/>
      <point x="855" y="1537" type="curve" smooth="yes"/>
      <point x="856" y="1547"/>
      <point x="856" y="1558"/>
      <point x="856" y="1568" type="curve" smooth="yes"/>
      <point x="856" y="1585"/>
      <point x="855" y="1601"/>
      <point x="852" y="1617" type="curve"/>
      <point x="836" y="1723"/>
      <point x="762" y="1784"/>
      <point x="655" y="1797" type="curve" smooth="yes"/>
      <point x="640" y="1799"/>
      <point x="624" y="1800"/>
      <point x="607" y="1800" type="curve" smooth="yes"/>
      <point x="468" y="1800" type="line"/>
      <point x="429" y="1544" type="line"/>
      <point x="549" y="1544" type="line" smooth="yes"/>
      <point x="587" y="1544"/>
      <point x="597" y="1518"/>
      <point x="597" y="1486" type="curve"/>
      <point x="597" y="1486"/>
      <point x="597" y="1486"/>
      <point x="597" y="1486" type="curve"/>
      <point x="597" y="1486"/>
      <point x="597" y="1486"/>
      <point x="597" y="1486" type="curve"/>
      <point x="511" y="922" type="line"/>
      <point x="509" y="906"/>
      <point x="507" y="890"/>
      <point x="507" y="873" type="curve" smooth="yes"/>
      <point x="507" y="797"/>
      <point x="532" y="755"/>
      <point x="570" y="690" type="curve"/>
      <point x="532" y="646"/>
      <point x="500" y="610"/>
      <point x="477" y="569" type="curve" smooth="yes"/>
      <point x="460" y="537"/>
      <point x="448" y="503"/>
      <point x="441" y="458" type="curve" smooth="yes"/>
      <point x="355" y="-106" type="line"/>
      <point x="353" y="-116"/>
      <point x="349" y="-126"/>
      <point x="343" y="-135" type="curve" smooth="yes"/>
      <point x="331" y="-153"/>
      <point x="312" y="-166"/>
      <point x="290" y="-166" type="curve" smooth="yes"/>
      <point x="250" y="-166"/>
      <point x="210" y="-166"/>
      <point x="170" y="-166" type="curve"/>
      <point x="131" y="-420" type="line"/>
    </contour>
  </outline>
</glyph>
<glyph name="asciitilde" format="2">
  <advance width="1395"/>
  <unicode hex="007E"/>
  <outline>
    <contour>
      <point x="887" y="390" type="curve" smooth="yes"/>
      <point x="702" y="390"/>
      <point x="594" y="599"/>
      <point x="481" y="599" type="curve" smooth="yes"/>
      <point x="418" y="599"/>
      <point x="399" y="522"/>
      <point x="398" y="464" type="curve" smooth="yes"/>
      <point x="398" y="452"/>
      <point x="398" y="441"/>
      <point x="399" y="432" type="curve"/>
      <point x="167" y="432" type="line"/>
      <point x="165" y="451"/>
      <point x="165" y="469"/>
      <point x="165" y="488" type="curve" smooth="yes"/>
      <point x="165" y="678"/>
      <point x="250" y="848"/>
      <point x="445" y="870" type="curve"/>
      <point x="459" y="871"/>
      <point x="473" y="872"/>
      <point x="488" y="872" type="curve" smooth="yes"/>
      <point x="675" y="872"/>
      <point x="777" y="663"/>
      <point x="895" y="663" type="curve" smooth="yes"/>
      <point x="958" y="663"/>
      <point x="976" y="741"/>
      <point x="977" y="799" type="curve" smooth="yes"/>
      <point x="977" y="810"/>
      <point x="977" y="821"/>
      <point x="976" y="830" type="curve"/>
      <point x="1208" y="830" type="line"/>
      <point x="1209" y="813"/>
      <point x="1210" y="795"/>
      <point x="1210" y="778" type="curve" smooth="yes"/>
      <point x="1210" y="572"/>
      <point x="1115" y="390"/>
    </contour>
  </outline>
</glyph>
<glyph name="exclamdown" format="2">
  <advance width="752"/>
  <unicode hex="00A1"/>
  <outline>
    <contour>
      <point x="418" y="1102" type="qcurve" smooth="yes"/>
      <point x="381" y="1102"/>
      <point x="314" y="1072"/>
      <point x="265" y="1021"/>
      <point x="236" y="954"/>
      <point x="236" y="917" type="qcurve" smooth="yes"/>
      <point x="236" y="857"/>
      <point x="312" y="786"/>
      <point x="370" y="786" type="qcurve" smooth="yes"/>
      <point x="408" y="786"/>
      <point x="474" y="816"/>
      <point x="524" y="866"/>
      <point x="552" y="934"/>
      <point x="552" y="971" type="qcurve" smooth="yes"/>
      <point x="552" y="1031"/>
      <point x="476" y="1102"/>
    </contour>
    <contour>
      <point x="239" y="660" type="line"/>
      <point x="53" y="-360" type="line"/>
      <point x="349" y="-360" type="line"/>
      <point x="454" y="660" type="line"/>
    </contour>
  </outline>
</glyph>
<glyph name="cent" format="2">
  <advance width="1128"/>
  <unicode hex="00A2"/>
  <outline>
    <contour>
      <point x="386" y="-58" type="line"/>
      <point x="415" y="126" type="line"/>
      <point x="181" y="163"/>
      <point x="60" y="340"/>
      <point x="60" y="570" type="curve" smooth="yes"/>
      <point x="60" y="891"/>
      <point x="263" y="1202"/>
      <point x="594" y="1252" type="curve"/>
      <point x="624" y="1440" type="line"/>
      <point x="829" y="1440" type="line"/>
      <point x="799" y="1250" type="line"/>
      <point x="984" y="1214"/>
      <point x="1099" y="1089"/>
      <point x="1108" y="900" type="curve"/>
      <point x="830" y="828" type="line"/>
      <point x="818" y="930"/>
      <point x="753" y="1006"/>
      <point x="645" y="1006" type="curve" smooth="yes"/>
      <point x="518" y="1006"/>
      <point x="436" y="927"/>
      <point x="390" y="825" type="curve" smooth="yes"/>
      <point x="359" y="757"/>
      <point x="345" y="678"/>
      <point x="345" y="606" type="curve" smooth="yes"/>
      <point x="345" y="472"/>
      <point x="401" y="374"/>
      <point x="545" y="374" type="curve" smooth="yes"/>
      <point x="664" y="374"/>
      <point x="730" y="431"/>
      <point x="778" y="536" type="curve"/>
      <point x="1042" y="478" type="line"/>
      <point x="964" y="294"/>
      <point x="820" y="168"/>
      <point x="622" y="130" type="curve"/>
      <point x="592" y="-58" type="line"/>
    </contour>
  </outline>
</glyph>
<glyph name="sterling" format="2">
  <advance width="1103"/>
  <unicode hex="00A3"/>
  <outline>
    <contour>
      <point x="-40" y="0" type="line"/>
      <point x="1" y="254" type="line"/>
      <point x="29" y="254"/>
      <point x="56" y="262"/>
      <point x="80" y="275" type="curve" smooth="yes"/>
      <point x="128" y="302"/>
      <point x="165" y="351"/>
      <point x="174" y="406" type="curve" smooth="yes"/>
      <point x="281" y="1082" type="line" smooth="yes"/>
      <point x="317" y="1308"/>
      <point x="528" y="1470"/>
      <point x="752" y="1470" type="curve" smooth="yes"/>
      <point x="973" y="1470"/>
      <point x="1062" y="1294"/>
      <point x="1097" y="1102" type="curve"/>
      <point x="846" y="1022" type="line"/>
      <point x="836" y="1103"/>
      <point x="813" y="1214"/>
      <point x="711" y="1214" type="curve" smooth="yes"/>
      <point x="625" y="1214"/>
      <point x="564" y="1150"/>
      <point x="551" y="1068" type="curve" smooth="yes"/>
      <point x="420" y="254" type="line"/>
      <point x="857" y="254" type="line"/>
      <point x="817" y="0" type="line"/>
    </contour>
    <contour>
      <point x="54" y="592" type="line"/>
      <point x="95" y="848" type="line"/>
      <point x="792" y="848" type="line"/>
      <point x="752" y="592" type="line"/>
    </contour>
  </outline>
</glyph>
<glyph name="currency" format="2">
  <advance width="1320"/>
  <unicode hex="00A4"/>
  <outline>
    <contour>
      <point x="618" y="196" type="curve" smooth="yes"/>
      <point x="350" y="196"/>
      <point x="149" y="409"/>
      <point x="149" y="674" type="curve" smooth="yes"/>
      <point x="149" y="976"/>
      <point x="406" y="1246"/>
      <point x="711" y="1246" type="curve" smooth="yes"/>
      <point x="979" y="1246"/>
      <point x="1182" y="1036"/>
      <point x="1182" y="769" type="curve" smooth="yes"/>
      <point x="1182" y="465"/>
      <point x="925" y="196"/>
    </contour>
    <contour>
      <point x="135" y="100" type="line"/>
      <point x="-13" y="280" type="line"/>
      <point x="276" y="534" type="line"/>
      <point x="426" y="354" type="line"/>
    </contour>
    <contour>
      <point x="335" y="904" type="line"/>
      <point x="126" y="1158" type="line"/>
      <point x="331" y="1340" type="line"/>
      <point x="540" y="1086" type="line"/>
    </contour>
    <contour>
      <point x="997" y="100" type="line"/>
      <point x="789" y="354" type="line"/>
      <point x="994" y="534" type="line"/>
      <point x="1202" y="280" type="line"/>
    </contour>
    <contour>
      <point x="639" y="424" type="curve" smooth="yes"/>
      <point x="811" y="424"/>
      <point x="956" y="578"/>
      <point x="956" y="748" type="curve" smooth="yes"/>
      <point x="956" y="897"/>
      <point x="840" y="1016"/>
      <point x="690" y="1016" type="curve" smooth="yes"/>
      <point x="517" y="1016"/>
      <point x="373" y="864"/>
      <point x="373" y="693" type="curve" smooth="yes"/>
      <point x="373" y="544"/>
      <point x="489" y="424"/>
    </contour>
    <contour>
      <point x="1055" y="906" type="line"/>
      <point x="905" y="1086" type="line"/>
      <point x="1194" y="1340" type="line"/>
      <point x="1341" y="1158" type="line"/>
    </contour>
  </outline>
</glyph>
<glyph name="section" format="2">
  <advance width="1054"/>
  <unicode hex="00A7"/>
  <outline>
    <contour>
      <point x="386" y="-270" type="curve" smooth="yes"/>
      <point x="157" y="-270"/>
      <point x="-8" y="-160"/>
      <point x="-8" y="84" type="curve"/>
      <point x="271" y="126" type="line"/>
      <point x="275" y="27"/>
      <point x="343" y="-36"/>
      <point x="441" y="-36" type="curve" smooth="yes"/>
      <point x="516" y="-36"/>
      <point x="594" y="4"/>
      <point x="594" y="89" type="curve" smooth="yes"/>
      <point x="594" y="105"/>
      <point x="590" y="118"/>
      <point x="580" y="131" type="curve"/>
      <point x="514" y="208"/>
      <point x="159" y="209"/>
      <point x="72" y="382" type="curve" smooth="yes"/>
      <point x="59" y="407"/>
      <point x="52" y="436"/>
      <point x="52" y="468" type="curve"/>
      <point x="52" y="468"/>
      <point x="52" y="468"/>
      <point x="52" y="468" type="curve"/>
      <point x="52" y="678"/>
      <point x="256" y="776"/>
      <point x="440" y="789" type="curve" smooth="yes"/>
      <point x="454" y="790"/>
      <point x="468" y="790"/>
      <point x="482" y="790" type="curve"/>
      <point x="489" y="676" type="line"/>
      <point x="423" y="654"/>
      <point x="325" y="619"/>
      <point x="325" y="535" type="curve" smooth="yes"/>
      <point x="325" y="479"/>
      <point x="396" y="459"/>
      <point x="440" y="448" type="curve"/>
      <point x="563" y="413"/>
      <point x="797" y="365"/>
      <point x="856" y="238" type="curve" smooth="yes"/>
      <point x="869" y="210"/>
      <point x="874" y="179"/>
      <point x="874" y="148" type="curve" smooth="yes"/>
      <point x="874" y="132"/>
      <point x="873" y="116"/>
      <point x="872" y="101" type="curve"/>
      <point x="846" y="-142"/>
      <point x="620" y="-270"/>
    </contour>
    <contour>
      <point x="522" y="274" type="curve"/>
      <point x="531" y="384" type="line"/>
      <point x="603" y="405"/>
      <point x="687" y="466"/>
      <point x="687" y="549" type="curve"/>
      <point x="687" y="549"/>
      <point x="687" y="549"/>
      <point x="687" y="549" type="curve"/>
      <point x="687" y="564"/>
      <point x="683" y="578"/>
      <point x="673" y="591" type="curve"/>
      <point x="656" y="609"/>
      <point x="622" y="622"/>
      <point x="600" y="630" type="curve"/>
      <point x="456" y="677"/>
      <point x="206" y="706"/>
      <point x="155" y="871" type="curve" smooth="yes"/>
      <point x="149" y="890"/>
      <point x="146" y="912"/>
      <point x="146" y="935" type="curve" smooth="yes"/>
      <point x="146" y="959"/>
      <point x="148" y="981"/>
      <point x="152" y="1003" type="curve" smooth="yes"/>
      <point x="189" y="1210"/>
      <point x="392" y="1330"/>
      <point x="601" y="1330" type="curve" smooth="yes"/>
      <point x="779" y="1330"/>
      <point x="944" y="1241"/>
      <point x="963" y="1057" type="curve" smooth="yes"/>
      <point x="964" y="1046"/>
      <point x="965" y="1034"/>
      <point x="965" y="1022" type="curve" smooth="yes"/>
      <point x="965" y="1010" type="line"/>
      <point x="685" y="960" type="line"/>
      <point x="683" y="1048"/>
      <point x="650" y="1098"/>
      <point x="556" y="1098" type="curve" smooth="yes"/>
      <point x="492" y="1098"/>
      <point x="418" y="1071"/>
      <point x="418" y="995" type="curve" smooth="yes"/>
      <point x="418" y="973"/>
      <point x="426" y="957"/>
      <point x="444" y="945" type="curve"/>
      <point x="468" y="926"/>
      <point x="507" y="914"/>
      <point x="537" y="906" type="curve" smooth="yes"/>
      <point x="658" y="874"/>
      <point x="890" y="822"/>
      <point x="949" y="701" type="curve" smooth="yes"/>
      <point x="962" y="673"/>
      <point x="967" y="643"/>
      <point x="967" y="613" type="curve" smooth="yes"/>
      <point x="967" y="407"/>
      <point x="824" y="297"/>
      <point x="642" y="276" type="curve"/>
      <point x="621" y="273"/>
      <point x="599" y="272"/>
      <point x="577" y="272" type="curve" smooth="yes"/>
      <point x="558" y="272"/>
      <point x="540" y="273"/>
    </contour>
  </outline>
</glyph>
<glyph name="dieresis" format="2">
  <advance width="1080"/>
  <unicode hex="00A8"/>
  <outline>
    <contour>
      <point x="332" y="1193" type="qcurve" smooth="yes"/>
      <point x="264" y="1193"/>
      <point x="181" y="1285"/>
      <point x="187" y="1351" type="qcurve" smooth="yes"/>
      <point x="193" y="1418"/>
      <point x="292" y="1509"/>
      <point x="360" y="1509" type="qcurve" smooth="yes"/>
      <point x="429" y="1509"/>
      <point x="511" y="1418"/>
      <point x="505" y="1351" type="qcurve" smooth="yes"/>
      <point x="499" y="1285"/>
      <point x="401" y="1193"/>
    </contour>
    <contour>
      <point x="759" y="1193" type="qcurve" smooth="yes"/>
      <point x="691" y="1193"/>
      <point x="608" y="1285"/>
      <point x="614" y="1351" type="qcurve" smooth="yes"/>
      <point x="620" y="1418"/>
      <point x="719" y="1509"/>
      <point x="787" y="1509" type="qcurve" smooth="yes"/>
      <point x="856" y="1509"/>
      <point x="938" y="1418"/>
      <point x="932" y="1351" type="qcurve" smooth="yes"/>
      <point x="926" y="1285"/>
      <point x="828" y="1193"/>
    </contour>
  </outline>
</glyph>
<glyph name="copyright" format="2">
  <advance width="1779"/>
  <unicode hex="00A9"/>
  <outline>
    <contour>
      <point x="818" y="-140" type="curve" smooth="yes"/>
      <point x="383" y="-140"/>
      <point x="52" y="200"/>
      <point x="52" y="633" type="curve" smooth="yes"/>
      <point x="52" y="1128"/>
      <point x="467" y="1568"/>
      <point x="968" y="1568" type="curve" smooth="yes"/>
      <point x="1402" y="1568"/>
      <point x="1734" y="1231"/>
      <point x="1734" y="798" type="curve" smooth="yes"/>
      <point x="1734" y="301"/>
      <point x="1321" y="-140"/>
    </contour>
    <contour>
      <point x="873" y="286" type="curve" smooth="yes"/>
      <point x="816" y="286"/>
      <point x="757" y="294"/>
      <point x="705" y="318" type="curve" smooth="yes"/>
      <point x="607" y="364"/>
      <point x="548" y="461"/>
      <point x="525" y="564" type="curve" smooth="yes"/>
      <point x="517" y="599"/>
      <point x="513" y="634"/>
      <point x="513" y="668" type="curve" smooth="yes"/>
      <point x="513" y="847"/>
      <point x="608" y="1032"/>
      <point x="775" y="1108" type="curve" smooth="yes"/>
      <point x="832" y="1134"/>
      <point x="896" y="1142"/>
      <point x="958" y="1142" type="curve" smooth="yes"/>
      <point x="992" y="1142"/>
      <point x="1027" y="1139"/>
      <point x="1060" y="1131" type="curve" smooth="yes"/>
      <point x="1181" y="1101"/>
      <point x="1269" y="994"/>
      <point x="1283" y="872" type="curve"/>
      <point x="1079" y="818" type="line"/>
      <point x="1062" y="895"/>
      <point x="1012" y="952"/>
      <point x="929" y="952" type="curve" smooth="yes"/>
      <point x="783" y="952"/>
      <point x="724" y="806"/>
      <point x="724" y="680" type="curve" smooth="yes"/>
      <point x="724" y="570"/>
      <point x="770" y="478"/>
      <point x="892" y="478" type="curve" smooth="yes"/>
      <point x="981" y="478"/>
      <point x="1020" y="523"/>
      <point x="1055" y="598" type="curve"/>
      <point x="1255" y="556" type="line"/>
      <point x="1193" y="385"/>
      <point x="1055" y="286"/>
    </contour>
    <contour>
      <point x="1484" y="774" type="curve" smooth="yes"/>
      <point x="1484" y="1077"/>
      <point x="1250" y="1314"/>
      <point x="946" y="1314" type="curve" smooth="yes"/>
      <point x="592" y="1314"/>
      <point x="303" y="1007"/>
      <point x="303" y="657" type="curve" smooth="yes"/>
      <point x="303" y="354"/>
      <point x="535" y="114"/>
      <point x="840" y="114" type="curve" smooth="yes"/>
      <point x="1195" y="114"/>
      <point x="1484" y="424"/>
    </contour>
  </outline>
</glyph>
<glyph name="ordfeminine" format="2">
  <advance width="641"/>
  <unicode hex="00AA"/>
  <outline>
    <contour>
      <point x="349" y="786" type="qcurve" smooth="yes"/>
      <point x="309" y="786"/>
      <point x="240" y="809"/>
      <point x="190" y="854"/>
      <point x="162" y="919"/>
      <point x="162" y="961" type="qcurve" smooth="yes"/>
      <point x="162" y="1019"/>
      <point x="197" y="1102"/>
      <point x="260" y="1159"/>
      <point x="348" y="1195"/>
      <point x="400" y="1207" type="qcurve" smooth="yes"/>
      <point x="420" y="1212"/>
      <point x="459" y="1218"/>
      <point x="479" y="1223" type="qcurve"/>
      <point x="519" y="1230"/>
      <point x="597" y="1241"/>
      <point x="636" y="1247" type="qcurve"/>
      <point x="572" y="1212" type="line"/>
      <point x="572" y="1216"/>
      <point x="573" y="1223"/>
      <point x="573" y="1228" type="qcurve" smooth="yes"/>
      <point x="573" y="1276"/>
      <point x="520" y="1307"/>
      <point x="477" y="1307" type="qcurve" smooth="yes"/>
      <point x="440" y="1307"/>
      <point x="374" y="1272"/>
      <point x="358" y="1238" type="qcurve"/>
      <point x="211" y="1289" type="line"/>
      <point x="247" y="1383"/>
      <point x="394" y="1470"/>
      <point x="491" y="1470" type="qcurve" smooth="yes"/>
      <point x="527" y="1470"/>
      <point x="596" y="1461"/>
      <point x="658" y="1435"/>
      <point x="709" y="1389"/>
      <point x="725" y="1352" type="qcurve"/>
      <point x="736" y="1329"/>
      <point x="746" y="1278"/>
      <point x="746" y="1253" type="qcurve" smooth="yes"/>
      <point x="746" y="1239"/>
      <point x="742" y="1213"/>
      <point x="740" y="1199" type="qcurve" smooth="yes"/>
      <point x="679" y="804" type="line"/>
      <point x="531" y="804" type="line"/>
      <point x="551" y="931" type="line"/>
      <point x="581" y="899" type="line"/>
      <point x="531" y="842"/>
      <point x="424" y="786"/>
    </contour>
    <contour>
      <point x="398" y="926" type="qcurve" smooth="yes"/>
      <point x="438" y="926"/>
      <point x="517" y="968"/>
      <point x="537" y="1005" type="qcurve"/>
      <point x="542" y="1015"/>
      <point x="549" y="1033"/>
      <point x="551" y="1043" type="qcurve"/>
      <point x="556" y="1060"/>
      <point x="560" y="1096"/>
      <point x="562" y="1113" type="qcurve"/>
      <point x="608" y="1102" type="line"/>
      <point x="590" y="1098"/>
      <point x="523" y="1087"/>
      <point x="485" y="1079" type="qcurve" smooth="yes"/>
      <point x="465" y="1075"/>
      <point x="426" y="1064"/>
      <point x="393" y="1054"/>
      <point x="367" y="1043"/>
      <point x="359" y="1037" type="qcurve"/>
      <point x="348" y="1027"/>
      <point x="332" y="1008"/>
      <point x="328" y="996" type="qcurve"/>
      <point x="328" y="993"/>
      <point x="327" y="986"/>
      <point x="326" y="982" type="qcurve"/>
      <point x="326" y="966"/>
      <point x="338" y="945"/>
      <point x="359" y="932"/>
      <point x="385" y="926"/>
    </contour>
    <contour>
      <point x="100" y="560" type="line"/>
      <point x="122" y="698" type="line"/>
      <point x="707" y="698" type="line"/>
      <point x="685" y="560" type="line"/>
    </contour>
  </outline>
</glyph>
<glyph name="guillemotleft" format="2">
  <advance width="1153"/>
  <unicode hex="00AB"/>
  <outline>
    <contour>
      <point x="814" y="94" type="line"/>
      <point x="538" y="540" type="line"/>
      <point x="955" y="986" type="line"/>
      <point x="1077" y="874" type="line"/>
      <point x="763" y="540" type="line"/>
      <point x="971" y="206" type="line"/>
    </contour>
    <contour>
      <point x="393" y="94" type="line"/>
      <point x="116" y="540" type="line"/>
      <point x="534" y="986" type="line"/>
      <point x="655" y="874" type="line"/>
      <point x="342" y="540" type="line"/>
      <point x="550" y="206" type="line"/>
    </contour>
  </outline>
</glyph>
<glyph name="logicalnot" format="2">
  <advance width="1152"/>
  <unicode hex="00AC"/>
  <outline>
    <contour>
      <point x="789" y="366" type="line"/>
      <point x="825" y="596" type="line"/>
      <point x="90" y="596" type="line"/>
      <point x="123" y="806" type="line"/>
      <point x="1064" y="806" type="line"/>
      <point x="994" y="366" type="line"/>
    </contour>
  </outline>
</glyph>
<glyph name="registered" format="2">
  <advance width="1275"/>
  <unicode hex="00AE"/>
  <outline>
    <contour>
      <point x="649" y="536" type="curve" smooth="yes"/>
      <point x="381" y="536"/>
      <point x="179" y="748"/>
      <point x="179" y="1014" type="curve" smooth="yes"/>
      <point x="179" y="1316"/>
      <point x="436" y="1586"/>
      <point x="741" y="1586" type="curve" smooth="yes"/>
      <point x="1009" y="1586"/>
      <point x="1212" y="1376"/>
      <point x="1212" y="1109" type="curve" smooth="yes"/>
      <point x="1212" y="806"/>
      <point x="955" y="536"/>
    </contour>
    <contour>
      <point x="665" y="712" type="curve" smooth="yes"/>
      <point x="868" y="712"/>
      <point x="1041" y="893"/>
      <point x="1041" y="1094" type="curve" smooth="yes"/>
      <point x="1041" y="1271"/>
      <point x="905" y="1412"/>
      <point x="727" y="1412" type="curve" smooth="yes"/>
      <point x="521" y="1412"/>
      <point x="353" y="1233"/>
      <point x="353" y="1030" type="curve" smooth="yes"/>
      <point x="353" y="854"/>
      <point x="487" y="712"/>
    </contour>
    <contour>
      <point x="495" y="824" type="line"/>
      <point x="570" y="1300" type="line"/>
      <point x="766" y="1300" type="line" smooth="yes"/>
      <point x="851" y="1300"/>
      <point x="904" y="1255"/>
      <point x="904" y="1168" type="curve" smooth="yes"/>
      <point x="904" y="1096"/>
      <point x="862" y="1036"/>
      <point x="799" y="1002" type="curve"/>
      <point x="857" y="824" type="line"/>
      <point x="757" y="824" type="line"/>
      <point x="706" y="986" type="line"/>
      <point x="608" y="986" type="line"/>
      <point x="583" y="824" type="line"/>
    </contour>
    <contour>
      <point x="622" y="1070" type="line"/>
      <point x="733" y="1070" type="line" smooth="yes"/>
      <point x="784" y="1070"/>
      <point x="813" y="1115"/>
      <point x="813" y="1162" type="curve" smooth="yes"/>
      <point x="813" y="1200"/>
      <point x="791" y="1214"/>
      <point x="756" y="1214" type="curve" smooth="yes"/>
      <point x="645" y="1214" type="line"/>
    </contour>
  </outline>
</glyph>
<glyph name="degree" format="2">
  <advance width="864"/>
  <unicode hex="00B0"/>
  <outline>
    <contour>
      <point x="439" y="750" type="curve" smooth="yes"/>
      <point x="256" y="750"/>
      <point x="117" y="892"/>
      <point x="117" y="1074" type="curve" smooth="yes"/>
      <point x="117" y="1279"/>
      <point x="295" y="1470"/>
      <point x="503" y="1470" type="curve" smooth="yes"/>
      <point x="685" y="1470"/>
      <point x="826" y="1328"/>
      <point x="826" y="1146" type="curve" smooth="yes"/>
      <point x="826" y="936"/>
      <point x="652" y="750"/>
    </contour>
    <contour>
      <point x="460" y="980" type="curve" smooth="yes"/>
      <point x="536" y="980"/>
      <point x="600" y="1050"/>
      <point x="600" y="1124" type="curve" smooth="yes"/>
      <point x="600" y="1186"/>
      <point x="545" y="1240"/>
      <point x="483" y="1240" type="curve" smooth="yes"/>
      <point x="407" y="1240"/>
      <point x="343" y="1170"/>
      <point x="343" y="1096" type="curve" smooth="yes"/>
      <point x="343" y="1033"/>
      <point x="397" y="980"/>
    </contour>
  </outline>
</glyph>
<glyph name="twosuperior" format="2">
  <advance width="795"/>
  <unicode hex="00B2"/>
  <outline>
    <contour>
      <point x="64" y="540" type="line"/>
      <point x="87" y="688" type="line"/>
      <point x="521" y="1024" type="line" smooth="yes"/>
      <point x="571" y="1063"/>
      <point x="610" y="1109"/>
      <point x="610" y="1175" type="curve" smooth="yes"/>
      <point x="610" y="1249"/>
      <point x="563" y="1300"/>
      <point x="488" y="1300" type="curve" smooth="yes"/>
      <point x="422" y="1300"/>
      <point x="350" y="1257"/>
      <point x="331" y="1195" type="curve"/>
      <point x="170" y="1245" type="line"/>
      <point x="217" y="1381"/>
      <point x="353" y="1460"/>
      <point x="507" y="1460" type="curve" smooth="yes"/>
      <point x="665" y="1460"/>
      <point x="783" y="1351"/>
      <point x="783" y="1191" type="curve" smooth="yes"/>
      <point x="783" y="1037"/>
      <point x="711" y="964"/>
      <point x="594" y="878" type="curve" smooth="yes"/>
      <point x="300" y="662" type="line"/>
      <point x="293" y="700" type="line"/>
      <point x="708" y="700" type="line"/>
      <point x="683" y="540" type="line"/>
    </contour>
  </outline>
</glyph>
<glyph name="threesuperior" format="2">
  <advance width="781"/>
  <unicode hex="00B3"/>
  <outline>
    <contour>
      <point x="359" y="518" type="curve" smooth="yes"/>
      <point x="224" y="518"/>
      <point x="108" y="605"/>
      <point x="83" y="740" type="curve"/>
      <point x="249" y="784" type="line"/>
      <point x="261" y="721"/>
      <point x="309" y="680"/>
      <point x="373" y="680" type="curve" smooth="yes"/>
      <point x="458" y="680"/>
      <point x="526" y="750"/>
      <point x="526" y="834" type="curve" smooth="yes"/>
      <point x="526" y="908"/>
      <point x="473" y="962"/>
      <point x="399" y="962" type="curve" smooth="yes"/>
      <point x="374" y="962"/>
      <point x="349" y="955"/>
      <point x="328" y="942" type="curve"/>
      <point x="282" y="1076" type="line"/>
      <point x="602" y="1316" type="line"/>
      <point x="610" y="1278" type="line"/>
      <point x="198" y="1278" type="line"/>
      <point x="224" y="1440" type="line"/>
      <point x="778" y="1440" type="line"/>
      <point x="753" y="1278" type="line"/>
      <point x="499" y="1062" type="line"/>
      <point x="484" y="1110" type="line"/>
      <point x="501" y="1107"/>
      <point x="517" y="1103"/>
      <point x="532" y="1098" type="curve" smooth="yes"/>
      <point x="637" y="1062"/>
      <point x="697" y="967"/>
      <point x="697" y="850" type="curve" smooth="yes"/>
      <point x="697" y="667"/>
      <point x="540" y="518"/>
    </contour>
  </outline>
</glyph>
<glyph name="paragraph" format="2">
  <advance width="1438"/>
  <unicode hex="00B6"/>
  <outline>
    <contour>
      <point x="492" y="-282" type="line"/>
      <point x="614" y="488" type="line"/>
      <point x="567" y="488"/>
      <point x="520" y="487"/>
      <point x="474" y="489" type="curve"/>
      <point x="450" y="491"/>
      <point x="427" y="493"/>
      <point x="404" y="496" type="curve" smooth="yes"/>
      <point x="202" y="526"/>
      <point x="105" y="662"/>
      <point x="105" y="861" type="curve" smooth="yes"/>
      <point x="105" y="892"/>
      <point x="107" y="922"/>
      <point x="111" y="953" type="curve" smooth="yes"/>
      <point x="132" y="1106"/>
      <point x="206" y="1256"/>
      <point x="332" y="1348" type="curve" smooth="yes"/>
      <point x="430" y="1420"/>
      <point x="552" y="1440"/>
      <point x="671" y="1440" type="curve" smooth="yes"/>
      <point x="701" y="1440"/>
      <point x="731" y="1440"/>
      <point x="761" y="1440" type="curve" smooth="yes"/>
      <point x="1031" y="1440" type="line"/>
      <point x="759" y="-282" type="line"/>
    </contour>
    <contour>
      <point x="947" y="-282" type="line"/>
      <point x="1219" y="1440" type="line"/>
      <point x="1486" y="1440" type="line"/>
      <point x="1213" y="-282" type="line"/>
    </contour>
  </outline>
</glyph>
<glyph name="periodcentered" format="2">
  <advance width="524"/>
  <unicode hex="00B7"/>
  <outline>
    <contour>
      <point x="231" y="470" type="curve" smooth="yes"/>
      <point x="154" y="470"/>
      <point x="93" y="522"/>
      <point x="93" y="601" type="curve" smooth="yes"/>
      <point x="93" y="704"/>
      <point x="178" y="790"/>
      <point x="281" y="790" type="curve" smooth="yes"/>
      <point x="355" y="790"/>
      <point x="411" y="734"/>
      <point x="411" y="660" type="curve" smooth="yes"/>
      <point x="411" y="563"/>
      <point x="331" y="470"/>
    </contour>
  </outline>
</glyph>
<glyph name="cedilla" format="2">
  <advance width="773"/>
  <unicode hex="00B8"/>
  <outline>
    <contour>
      <point x="164" y="-484" type="curve" smooth="yes"/>
      <point x="117" y="-484"/>
      <point x="71" y="-470"/>
      <point x="31" y="-446" type="curve"/>
      <point x="112" y="-290" type="line"/>
      <point x="130" y="-296"/>
      <point x="150" y="-302"/>
      <point x="169" y="-302" type="curve" smooth="yes"/>
      <point x="201" y="-302"/>
      <point x="232" y="-280"/>
      <point x="232" y="-246" type="curve" smooth="yes"/>
      <point x="232" y="-200"/>
      <point x="152" y="-181"/>
      <point x="117" y="-170" type="curve"/>
      <point x="218" y="34" type="line"/>
      <point x="373" y="36" type="line"/>
      <point x="321" y="-72" type="line"/>
      <point x="380" y="-105"/>
      <point x="414" y="-157"/>
      <point x="414" y="-225" type="curve" smooth="yes"/>
      <point x="414" y="-360"/>
      <point x="302" y="-484"/>
    </contour>
  </outline>
</glyph>
<glyph name="onesuperior" format="2">
  <advance width="652"/>
  <unicode hex="00B9"/>
  <outline>
    <contour>
      <point x="247" y="540" type="line"/>
      <point x="360" y="1255" type="line"/>
      <point x="178" y="1151" type="line"/>
      <point x="208" y="1339" type="line"/>
      <point x="389" y="1440" type="line"/>
      <point x="560" y="1440" type="line"/>
      <point x="417" y="540" type="line"/>
    </contour>
  </outline>
</glyph>
<glyph name="ordmasculine" format="2">
  <advance width="713"/>
  <unicode hex="00BA"/>
  <outline>
    <contour>
      <point x="484" y="785.4" type="curve" smooth="yes"/>
      <point x="307" y="785.4"/>
      <point x="199" y="913.8"/>
      <point x="199" y="1085.4" type="curve" smooth="yes"/>
      <point x="199" y="1287"/>
      <point x="330.4" y="1469.4"/>
      <point x="544.6" y="1469.4" type="curve" smooth="yes"/>
      <point x="721.6" y="1469.4"/>
      <point x="830.2" y="1341"/>
      <point x="830.2" y="1168.8" type="curve" smooth="yes"/>
      <point x="830.2" y="965.4"/>
      <point x="698.8" y="785.4"/>
    </contour>
    <contour>
      <point x="499" y="952.2" type="curve" smooth="yes"/>
      <point x="611.8" y="952.2"/>
      <point x="652" y="1060.8"/>
      <point x="652" y="1156.8" type="curve" smooth="yes"/>
      <point x="652" y="1236.6"/>
      <point x="619" y="1302.6"/>
      <point x="530.2" y="1302.6" type="curve" smooth="yes"/>
      <point x="414.4" y="1302.6"/>
      <point x="377.2" y="1195.2"/>
      <point x="377.2" y="1096.8" type="curve" smooth="yes"/>
      <point x="377.2" y="1017.6"/>
      <point x="410.8" y="952.2"/>
    </contour>
    <contour>
      <point x="130.6" y="559.8" type="line"/>
      <point x="152.8" y="697.8" type="line"/>
      <point x="737.8" y="697.8" type="line"/>
      <point x="715.6" y="559.8" type="line"/>
    </contour>
  </outline>
</glyph>
<glyph name="onehalf" format="2">
  <advance width="2017"/>
  <unicode hex="00BD"/>
  <outline>
    <contour>
      <point x="247" y="540" type="line"/>
      <point x="360" y="1255" type="line"/>
      <point x="178" y="1151" type="line"/>
      <point x="208" y="1339" type="line"/>
      <point x="389" y="1440" type="line"/>
      <point x="560" y="1440" type="line"/>
      <point x="417" y="540" type="line"/>
    </contour>
    <contour>
      <point x="1200" y="0" type="line"/>
      <point x="1223" y="148" type="line"/>
      <point x="1657" y="484" type="line" smooth="yes"/>
      <point x="1707" y="522"/>
      <point x="1746" y="569"/>
      <point x="1746" y="635" type="curve" smooth="yes"/>
      <point x="1746" y="709"/>
      <point x="1700" y="760"/>
      <point x="1625" y="760" type="curve" smooth="yes"/>
      <point x="1557" y="760"/>
      <point x="1484" y="713"/>
      <point x="1467" y="648" type="curve"/>
      <point x="1305" y="695" type="line"/>
      <point x="1348" y="838"/>
      <point x="1483" y="920"/>
      <point x="1643" y="920" type="curve" smooth="yes"/>
      <point x="1804" y="920"/>
      <point x="1920" y="811"/>
      <point x="1920" y="648" type="curve" smooth="yes"/>
      <point x="1920" y="495"/>
      <point x="1846" y="423"/>
      <point x="1730" y="338" type="curve" smooth="yes"/>
      <point x="1437" y="122" type="line"/>
      <point x="1429" y="160" type="line"/>
      <point x="1845" y="160" type="line"/>
      <point x="1819" y="0" type="line"/>
    </contour>
    <contour>
      <point x="438" y="0" type="line"/>
      <point x="305" y="114" type="line"/>
      <point x="1462" y="1454" type="line"/>
      <point x="1594" y="1338" type="line"/>
    </contour>
  </outline>
</glyph>
<glyph name="threequarters" format="2">
  <advance width="2026"/>
  <unicode hex="00BE"/>
  <outline>
    <contour>
      <point x="359" y="518" type="curve" smooth="yes"/>
      <point x="223" y="518"/>
      <point x="108" y="605"/>
      <point x="83" y="740" type="curve"/>
      <point x="249" y="784" type="line"/>
      <point x="261" y="721"/>
      <point x="308" y="680"/>
      <point x="373" y="680" type="curve" smooth="yes"/>
      <point x="458" y="680"/>
      <point x="526" y="750"/>
      <point x="526" y="834" type="curve" smooth="yes"/>
      <point x="526" y="908"/>
      <point x="473" y="962"/>
      <point x="399" y="962" type="curve" smooth="yes"/>
      <point x="374" y="962"/>
      <point x="349" y="955"/>
      <point x="328" y="942" type="curve"/>
      <point x="282" y="1076" type="line"/>
      <point x="602" y="1316" type="line"/>
      <point x="610" y="1278" type="line"/>
      <point x="198" y="1278" type="line"/>
      <point x="224" y="1440" type="line"/>
      <point x="778" y="1440" type="line"/>
      <point x="753" y="1278" type="line"/>
      <point x="499" y="1062" type="line"/>
      <point x="484" y="1110" type="line"/>
      <point x="501" y="1107"/>
      <point x="517" y="1103"/>
      <point x="532" y="1098" type="curve" smooth="yes"/>
      <point x="637" y="1062"/>
      <point x="697" y="967"/>
      <point x="697" y="850" type="curve" smooth="yes"/>
      <point x="697" y="667"/>
      <point x="540" y="518"/>
    </contour>
    <contour>
      <point x="1564" y="0" type="line"/>
      <point x="1586" y="140" type="line"/>
      <point x="1202" y="140" type="line"/>
      <point x="1227" y="300" type="line"/>
      <point x="1600" y="900" type="line"/>
      <point x="1792" y="900" type="line"/>
      <point x="1419" y="300" type="line"/>
      <point x="1611" y="300" type="line"/>
      <point x="1647" y="524" type="line"/>
      <point x="1815" y="524" type="line"/>
      <point x="1780" y="300" type="line"/>
      <point x="1858" y="300" type="line"/>
      <point x="1833" y="140" type="line"/>
      <point x="1754" y="140" type="line"/>
      <point x="1732" y="0" type="line"/>
    </contour>
    <contour>
      <point x="554" y="0" type="line"/>
      <point x="421" y="114" type="line"/>
      <point x="1578" y="1454" type="line"/>
      <point x="1711" y="1338" type="line"/>
    </contour>
  </outline>
</glyph>
<glyph name="questiondown" format="2">
  <advance width="1126"/>
  <unicode hex="00BF"/>
  <outline>
    <contour>
      <point x="620" y="548" type="curve" smooth="yes"/>
      <point x="744" y="548" type="line"/>
      <point x="703" y="292" type="line"/>
      <point x="664" y="292"/>
      <point x="625" y="292"/>
      <point x="586" y="292" type="curve" smooth="yes"/>
      <point x="436" y="292"/>
      <point x="298" y="213"/>
      <point x="298" y="48" type="curve"/>
      <point x="298" y="48"/>
      <point x="298" y="48"/>
      <point x="298" y="48" type="curve"/>
      <point x="298" y="-73"/>
      <point x="402" y="-136"/>
      <point x="512" y="-136" type="curve" smooth="yes"/>
      <point x="688" y="-136"/>
      <point x="796" y="-42"/>
      <point x="849" y="122" type="curve"/>
      <point x="1121" y="80" type="line"/>
      <point x="1022" y="-213"/>
      <point x="791" y="-390"/>
      <point x="478" y="-390" type="curve" smooth="yes"/>
      <point x="230" y="-390"/>
      <point x="14" y="-275"/>
      <point x="14" y="-1" type="curve" smooth="yes"/>
      <point x="14" y="281"/>
      <point x="179" y="459"/>
      <point x="414" y="522" type="curve" smooth="yes"/>
      <point x="478" y="539"/>
      <point x="548" y="548"/>
    </contour>
    <contour>
      <point x="772" y="727" type="line"/>
      <point x="703" y="292" type="line"/>
      <point x="456" y="292" type="line"/>
      <point x="525" y="727" type="line"/>
    </contour>
    <contour>
      <point x="715" y="1102" type="curve" smooth="yes"/>
      <point x="792" y="1102"/>
      <point x="848" y="1049"/>
      <point x="848" y="971" type="curve" smooth="yes"/>
      <point x="848" y="872"/>
      <point x="765" y="786"/>
      <point x="665" y="786" type="curve" smooth="yes"/>
      <point x="587" y="786"/>
      <point x="532" y="837"/>
      <point x="532" y="916" type="curve" smooth="yes"/>
      <point x="532" y="1017"/>
      <point x="614" y="1102"/>
    </contour>
  </outline>
</glyph>
<glyph name="Agrave" format="2">
  <advance width="1330"/>
  <unicode hex="00C0"/>
  <outline>
    <component base="A"/>
    <contour>
      <point x="669" y="1590" type="line"/>
      <point x="566" y="1980" type="line"/>
      <point x="818" y="1980" type="line"/>
      <point x="836" y="1590" type="line"/>
    </contour>
  </outline>
</glyph>
<glyph name="Atilde" format="2">
  <advance width="1330"/>
  <unicode hex="00C3"/>
  <outline>
    <contour>
      <point x="986" y="1646" type="curve" smooth="yes"/>
      <point x="856" y="1646"/>
      <point x="778" y="1794"/>
      <point x="697" y="1794" type="curve" smooth="yes"/>
      <point x="645" y="1794"/>
      <point x="636" y="1714"/>
      <point x="639" y="1676" type="curve"/>
      <point x="475" y="1676" type="line"/>
      <point x="474" y="1689"/>
      <point x="473" y="1702"/>
      <point x="473" y="1715" type="curve" smooth="yes"/>
      <point x="473" y="1852"/>
      <point x="533" y="1971"/>
      <point x="672" y="1986" type="curve" smooth="yes"/>
      <point x="682" y="1987"/>
      <point x="692" y="1988"/>
      <point x="703" y="1988" type="curve" smooth="yes"/>
      <point x="834" y="1988"/>
      <point x="911" y="1840"/>
      <point x="991" y="1840" type="curve" smooth="yes"/>
      <point x="1036" y="1840"/>
      <point x="1048" y="1895"/>
      <point x="1049" y="1936" type="curve"/>
      <point x="1050" y="1944"/>
      <point x="1050" y="1952"/>
      <point x="1049" y="1958" type="curve"/>
      <point x="1213" y="1958" type="line"/>
      <point x="1214" y="1945"/>
      <point x="1215" y="1931"/>
      <point x="1215" y="1918" type="curve" smooth="yes"/>
      <point x="1215" y="1772"/>
      <point x="1147" y="1646"/>
    </contour>
    <contour>
      <point x="-75" y="0" type="line"/>
      <point x="584" y="1440" type="line"/>
      <point x="982" y="1440" type="line"/>
      <point x="1185" y="0" type="line"/>
      <point x="911" y="0" type="line"/>
      <point x="728" y="1270" type="line"/>
      <point x="779" y="1270" type="line"/>
      <point x="200" y="0" type="line"/>
    </contour>
    <contour>
      <point x="231" y="300" type="line"/>
      <point x="272" y="554" type="line"/>
      <point x="1016" y="554" type="line"/>
      <point x="976" y="300" type="line"/>
    </contour>
  </outline>
</glyph>
<glyph name="Aring" format="2">
  <advance width="1330"/>
  <unicode hex="00C5"/>
  <outline>
    <contour>
      <point x="802" y="1550" type="qcurve" smooth="yes"/>
      <point x="754" y="1550"/>
      <point x="671" y="1584"/>
      <point x="611" y="1644"/>
      <point x="576" y="1727"/>
      <point x="576" y="1775" type="qcurve" smooth="yes"/>
      <point x="576" y="1836"/>
      <point x="627" y="1950"/>
      <point x="712" y="2037"/>
      <point x="825" y="2090"/>
      <point x="887" y="2090" type="qcurve" smooth="yes"/>
      <point x="935" y="2090"/>
      <point x="1018" y="2056"/>
      <point x="1079" y="1996"/>
      <point x="1113" y="1914"/>
      <point x="1113" y="1866" type="qcurve" smooth="yes"/>
      <point x="1113" y="1805"/>
      <point x="1063" y="1690"/>
      <point x="977" y="1603"/>
      <point x="864" y="1550"/>
    </contour>
    <contour>
      <point x="827" y="1710" type="qcurve" smooth="yes"/>
      <point x="853" y="1710"/>
      <point x="898" y="1731"/>
      <point x="933" y="1767"/>
      <point x="953" y="1814"/>
      <point x="953" y="1839" type="qcurve" smooth="yes"/>
      <point x="953" y="1879"/>
      <point x="902" y="1930"/>
      <point x="862" y="1930" type="qcurve" smooth="yes"/>
      <point x="837" y="1930"/>
      <point x="791" y="1909"/>
      <point x="756" y="1873"/>
      <point x="736" y="1827"/>
      <point x="736" y="1802" type="qcurve" smooth="yes"/>
      <point x="736" y="1763"/>
      <point x="788" y="1710"/>
    </contour>
    <contour>
      <point x="-75" y="0" type="line"/>
      <point x="584" y="1440" type="line"/>
      <point x="982" y="1440" type="line"/>
      <point x="1185" y="0" type="line"/>
      <point x="911" y="0" type="line"/>
      <point x="728" y="1270" type="line"/>
      <point x="779" y="1270" type="line"/>
      <point x="200" y="0" type="line"/>
    </contour>
    <contour>
      <point x="231" y="300" type="line"/>
      <point x="272" y="554" type="line"/>
      <point x="1016" y="554" type="line"/>
      <point x="976" y="300" type="line"/>
    </contour>
  </outline>
</glyph>
<glyph name="AE" format="2">
  <advance width="1838"/>
  <unicode hex="00C6"/>
  <outline>
    <contour>
      <point x="-75" y="0" type="line"/>
      <point x="584" y="1440" type="line"/>
      <point x="1035" y="1440" type="line"/>
      <point x="995" y="1186" type="line"/>
      <point x="652" y="1186" type="line"/>
      <point x="779" y="1272" type="line"/>
      <point x="200" y="0" type="line"/>
    </contour>
    <contour>
      <point x="231" y="300" type="line"/>
      <point x="272" y="554" type="line"/>
      <point x="1016" y="554" type="line"/>
      <point x="976" y="300" type="line"/>
    </contour>
    <contour>
      <point x="719" y="0" type="line"/>
      <point x="947" y="1440" type="line"/>
      <point x="1868" y="1440" type="line"/>
      <point x="1828" y="1186" type="line"/>
      <point x="1173" y="1186" type="line"/>
      <point x="1125" y="878" type="line"/>
      <point x="1662" y="878" type="line"/>
      <point x="1621" y="624" type="line"/>
      <point x="1084" y="624" type="line"/>
      <point x="1026" y="254" type="line"/>
      <point x="1680" y="254" type="line"/>
      <point x="1640" y="0" type="line"/>
    </contour>
  </outline>
</glyph>
<glyph name="Ccedilla" format="2">
  <advance width="1448"/>
  <unicode hex="00C7"/>
  <outline>
    <component base="C"/>
    <contour>
      <point x="547" y="-484" type="curve" smooth="yes"/>
      <point x="499" y="-484"/>
      <point x="455" y="-471"/>
      <point x="414" y="-446" type="curve"/>
      <point x="495" y="-290" type="line"/>
      <point x="513" y="-296"/>
      <point x="533" y="-302"/>
      <point x="552" y="-302" type="curve" smooth="yes"/>
      <point x="584" y="-302"/>
      <point x="615" y="-280"/>
      <point x="615" y="-246" type="curve" smooth="yes"/>
      <point x="615" y="-200"/>
      <point x="535" y="-181"/>
      <point x="500" y="-170" type="curve"/>
      <point x="601" y="34" type="line"/>
      <point x="756" y="36" type="line"/>
      <point x="704" y="-72" type="line"/>
      <point x="763" y="-105"/>
      <point x="797" y="-156"/>
      <point x="797" y="-225" type="curve" smooth="yes"/>
      <point x="797" y="-360"/>
      <point x="685" y="-484"/>
    </contour>
  </outline>
</glyph>
<glyph name="Egrave" format="2">
  <advance width="1132"/>
  <unicode hex="00C8"/>
  <outline>
    <contour>
      <point x="794" y="1980" type="line"/>
      <point x="542" y="1980" type="line"/>
      <point x="643" y="1590" type="line"/>
      <point x="810" y="1590" type="line"/>
    </contour>
    <contour>
      <point x="13" y="0" type="line"/>
      <point x="241" y="1440" type="line"/>
      <point x="1162" y="1440" type="line"/>
      <point x="1122" y="1186" type="line"/>
      <point x="468" y="1186" type="line"/>
      <point x="419" y="878" type="line"/>
      <point x="956" y="878" type="line"/>
      <point x="916" y="624" type="line"/>
      <point x="379" y="624" type="line"/>
      <point x="320" y="254" type="line"/>
      <point x="975" y="254" type="line"/>
      <point x="934" y="0" type="line"/>
    </contour>
  </outline>
</glyph>
<glyph name="Ecircumflex" format="2">
  <advance width="1132"/>
  <unicode hex="00CA"/>
  <outline>
    <contour>
      <point x="320" y="1590" type="line"/>
      <point x="654" y="1920" type="line"/>
      <point x="874" y="1920" type="line"/>
      <point x="1104" y="1590" type="line"/>
      <point x="859" y="1590" type="line"/>
      <point x="740" y="1770" type="line"/>
      <point x="565" y="1590" type="line"/>
    </contour>
    <contour>
      <point x="13" y="0" type="line"/>
      <point x="241" y="1440" type="line"/>
      <point x="1162" y="1440" type="line"/>
      <point x="1122" y="1186" type="line"/>
      <point x="468" y="1186" type="line"/>
      <point x="419" y="878" type="line"/>
      <point x="956" y="878" type="line"/>
      <point x="916" y="624" type="line"/>
      <point x="379" y="624" type="line"/>
      <point x="320" y="254" type="line"/>
      <point x="975" y="254" type="line"/>
      <point x="934" y="0" type="line"/>
    </contour>
  </outline>
</glyph>
<glyph name="Igrave" format="2">
  <advance width="547"/>
  <unicode hex="00CC"/>
  <outline>
    <contour>
      <point x="595" y="1980" type="line"/>
      <point x="611" y="1590" type="line"/>
      <point x="445" y="1590" type="line"/>
      <point x="344" y="1980" type="line"/>
    </contour>
    <contour>
      <point x="162" y="0" type="line"/>
      <point x="390" y="1440" type="line"/>
      <point x="657" y="1440" type="line"/>
      <point x="429" y="0" type="line"/>
    </contour>
  </outline>
</glyph>
<glyph name="Eth" format="2">
  <advance width="1387"/>
  <unicode hex="00D0"/>
  <outline>
    <contour>
      <point x="5" y="616" type="line"/>
      <point x="38" y="826" type="line"/>
      <point x="715" y="826" type="line"/>
      <point x="681" y="616" type="line"/>
    </contour>
    <contour>
      <point x="33" y="0" type="line"/>
      <point x="261" y="1440" type="line"/>
      <point x="718" y="1440" type="line" smooth="yes"/>
      <point x="774" y="1440"/>
      <point x="830" y="1439"/>
      <point x="885" y="1432" type="curve" smooth="yes"/>
      <point x="1184" y="1392"/>
      <point x="1316" y="1158"/>
      <point x="1316" y="875" type="curve" smooth="yes"/>
      <point x="1316" y="482"/>
      <point x="1080" y="61"/>
      <point x="660" y="8" type="curve" smooth="yes"/>
      <point x="604" y="1"/>
      <point x="547" y="0"/>
      <point x="490" y="0" type="curve" smooth="yes"/>
    </contour>
    <contour>
      <point x="344" y="256" type="line"/>
      <point x="530" y="256" type="line" smooth="yes"/>
      <point x="581" y="256"/>
      <point x="634" y="256"/>
      <point x="685" y="266" type="curve" smooth="yes"/>
      <point x="923" y="315"/>
      <point x="1030" y="621"/>
      <point x="1030" y="837" type="curve" smooth="yes"/>
      <point x="1030" y="980"/>
      <point x="988" y="1138"/>
      <point x="829" y="1174" type="curve" smooth="yes"/>
      <point x="787" y="1183"/>
      <point x="743" y="1184"/>
      <point x="701" y="1184" type="curve" smooth="yes"/>
      <point x="491" y="1184" type="line"/>
    </contour>
  </outline>
</glyph>
<glyph name="Ntilde" format="2">
  <advance width="1400"/>
  <unicode hex="00D1"/>
  <outline>
    <contour>
      <point x="1032" y="1596" type="curve" smooth="yes"/>
      <point x="902" y="1596"/>
      <point x="825" y="1744"/>
      <point x="744" y="1744" type="curve" smooth="yes"/>
      <point x="692" y="1744"/>
      <point x="683" y="1664"/>
      <point x="686" y="1626" type="curve"/>
      <point x="522" y="1626" type="line"/>
      <point x="521" y="1639"/>
      <point x="520" y="1652"/>
      <point x="520" y="1665" type="curve" smooth="yes"/>
      <point x="520" y="1811"/>
      <point x="588" y="1938"/>
      <point x="749" y="1938" type="curve" smooth="yes"/>
      <point x="881" y="1938"/>
      <point x="957" y="1790"/>
      <point x="1038" y="1790" type="curve" smooth="yes"/>
      <point x="1092" y="1790"/>
      <point x="1100" y="1869"/>
      <point x="1095" y="1908" type="curve"/>
      <point x="1260" y="1908" type="line"/>
      <point x="1261" y="1895"/>
      <point x="1262" y="1881"/>
      <point x="1262" y="1868" type="curve" smooth="yes"/>
      <point x="1262" y="1723"/>
      <point x="1192" y="1596"/>
    </contour>
    <contour>
      <point x="13" y="0" type="line"/>
      <point x="241" y="1440" type="line"/>
      <point x="512" y="1440" type="line"/>
      <point x="973" y="480" type="line"/>
      <point x="1125" y="1440" type="line"/>
      <point x="1396" y="1440" type="line"/>
      <point x="1168" y="0" type="line"/>
      <point x="897" y="0" type="line"/>
      <point x="436" y="960" type="line"/>
      <point x="284" y="0" type="line"/>
    </contour>
  </outline>
</glyph>
<glyph name="Ograve" format="2">
  <advance width="1473"/>
  <unicode hex="00D2"/>
  <outline>
    <component base="O"/>
    <contour>
      <point x="923" y="1980" type="line"/>
      <point x="671" y="1980" type="line"/>
      <point x="772" y="1590" type="line"/>
      <point x="939" y="1590" type="line"/>
    </contour>
  </outline>
</glyph>
<glyph name="Oacute" format="2">
  <advance width="1473"/>
  <unicode hex="00D3"/>
  <outline>
    <component base="O"/>
    <contour>
      <point x="978" y="1980" type="line"/>
      <point x="839" y="1590" type="line"/>
      <point x="1005" y="1590" type="line"/>
      <point x="1230" y="1980" type="line"/>
    </contour>
  </outline>
</glyph>
<glyph name="Ocircumflex" format="2">
  <advance width="1473"/>
  <unicode hex="00D4"/>
  <outline>
    <component base="O"/>
    <contour>
      <point x="503" y="1590" type="line"/>
      <point x="837" y="1920" type="line"/>
      <point x="1057" y="1920" type="line"/>
      <point x="1287" y="1590" type="line"/>
      <point x="1042" y="1590" type="line"/>
      <point x="923" y="1770" type="line"/>
      <point x="748" y="1590" type="line"/>
    </contour>
  </outline>
</glyph>
<glyph name="Oslash" format="2">
  <advance width="1473"/>
  <unicode hex="00D8"/>
  <outline>
    <contour>
      <point x="160" y="-26" type="qcurve"/>
      <point x="-1" y="144" type="line"/>
      <point x="45" y="189"/>
      <point x="136" y="279"/>
      <point x="182" y="324" type="qcurve" smooth="yes"/>
      <point x="190" y="332"/>
      <point x="212" y="346"/>
      <point x="220" y="354" type="qcurve" smooth="yes"/>
      <point x="447" y="575"/>
      <point x="895" y="1011"/>
      <point x="1122" y="1232" type="qcurve" smooth="yes"/>
      <point x="1127" y="1237"/>
      <point x="1132" y="1249"/>
      <point x="1137" y="1254" type="qcurve" smooth="yes"/>
      <point x="1192" y="1308"/>
      <point x="1300" y="1412"/>
      <point x="1355" y="1466" type="qcurve"/>
      <point x="1516" y="1294" type="line"/>
      <point x="1456" y="1236"/>
      <point x="1337" y="1120"/>
      <point x="1277" y="1062" type="qcurve" smooth="yes"/>
      <point x="1272" y="1057"/>
      <point x="1254" y="1049"/>
      <point x="1249" y="1044" type="qcurve" smooth="yes"/>
      <point x="1022" y="822"/>
      <point x="572" y="384"/>
      <point x="345" y="162" type="qcurve" smooth="yes"/>
      <point x="340" y="157"/>
      <point x="332" y="143"/>
      <point x="327" y="138" type="qcurve" smooth="yes"/>
      <point x="285" y="96"/>
      <point x="202" y="16"/>
    </contour>
    <contour>
      <point x="674" y="-30" type="qcurve" smooth="yes"/>
      <point x="525" y="-30"/>
      <point x="294" y="64"/>
      <point x="135" y="235"/>
      <point x="52" y="475"/>
      <point x="52" y="620" type="qcurve" smooth="yes"/>
      <point x="52" y="735"/>
      <point x="96" y="950"/>
      <point x="182" y="1139"/>
      <point x="310" y="1296"/>
      <point x="478" y="1408"/>
      <point x="686" y="1470"/>
      <point x="808" y="1470" type="qcurve" smooth="yes"/>
      <point x="958" y="1470"/>
      <point x="1189" y="1375"/>
      <point x="1347" y="1202"/>
      <point x="1429" y="962"/>
      <point x="1429" y="816" type="qcurve" smooth="yes"/>
      <point x="1429" y="702"/>
      <point x="1385" y="488"/>
      <point x="1298" y="300"/>
      <point x="1170" y="144"/>
      <point x="1002" y="32"/>
      <point x="796" y="-30"/>
    </contour>
    <contour>
      <point x="706" y="226" type="qcurve" smooth="yes"/>
      <point x="787" y="226"/>
      <point x="914" y="273"/>
      <point x="1012" y="354"/>
      <point x="1082" y="465"/>
      <point x="1126" y="593"/>
      <point x="1147" y="733"/>
      <point x="1147" y="802" type="qcurve" smooth="yes"/>
      <point x="1147" y="893"/>
      <point x="1104" y="1045"/>
      <point x="1013" y="1154"/>
      <point x="873" y="1214"/>
      <point x="776" y="1214" type="qcurve" smooth="yes"/>
      <point x="695" y="1214"/>
      <point x="567" y="1167"/>
      <point x="469" y="1086"/>
      <point x="400" y="975"/>
      <point x="355" y="847"/>
      <point x="335" y="708"/>
      <point x="335" y="638" type="qcurve" smooth="yes"/>
      <point x="335" y="547"/>
      <point x="378" y="395"/>
      <point x="469" y="286"/>
      <point x="609" y="226"/>
    </contour>
  </outline>
</glyph>
<glyph name="Ugrave" format="2">
  <advance width="1394"/>
  <unicode hex="00D9"/>
  <outline>
    <contour>
      <point x="908" y="1980" type="line"/>
      <point x="656" y="1980" type="line"/>
      <point x="757" y="1590" type="line"/>
      <point x="924" y="1590" type="line"/>
    </contour>
    <contour>
      <point x="583" y="-30" type="curve" smooth="yes"/>
      <point x="302" y="-30"/>
      <point x="89" y="129"/>
      <point x="89" y="425" type="curve" smooth="yes"/>
      <point x="89" y="464"/>
      <point x="93" y="502"/>
      <point x="99" y="540" type="curve" smooth="yes"/>
      <point x="241" y="1438" type="line"/>
      <point x="512" y="1440" type="line"/>
      <point x="370" y="542" type="line" smooth="yes"/>
      <point x="367" y="522"/>
      <point x="365" y="502"/>
      <point x="365" y="482" type="curve" smooth="yes"/>
      <point x="365" y="329"/>
      <point x="471" y="226"/>
      <point x="623" y="226" type="curve" smooth="yes"/>
      <point x="776" y="226"/>
      <point x="900" y="323"/>
      <point x="954" y="457" type="curve"/>
      <point x="964" y="484"/>
      <point x="972" y="513"/>
      <point x="977" y="542" type="curve"/>
      <point x="977" y="542"/>
      <point x="977" y="542"/>
      <point x="977" y="542" type="curve"/>
      <point x="1119" y="1440" type="line"/>
      <point x="1390" y="1440" type="line"/>
      <point x="1247" y="540" type="line" smooth="yes"/>
      <point x="1193" y="199"/>
      <point x="930" y="-30"/>
    </contour>
  </outline>
</glyph>
<glyph name="Thorn" format="2">
  <advance width="1238"/>
  <unicode hex="00DE"/>
  <outline>
    <contour>
      <point x="13" y="0" type="line"/>
      <point x="241" y="1440" type="line"/>
      <point x="512" y="1440" type="line"/>
      <point x="473" y="1196" type="line"/>
      <point x="793" y="1196" type="line" smooth="yes"/>
      <point x="1033" y="1196"/>
      <point x="1195" y="1019"/>
      <point x="1195" y="787" type="curve" smooth="yes"/>
      <point x="1195" y="502"/>
      <point x="924" y="246"/>
      <point x="642" y="246" type="curve" smooth="yes"/>
      <point x="323" y="246" type="line"/>
      <point x="284" y="0" type="line"/>
    </contour>
    <contour>
      <point x="363" y="500" type="line"/>
      <point x="680" y="500" type="line" smooth="yes"/>
      <point x="766" y="500"/>
      <point x="844" y="558"/>
      <point x="887" y="634" type="curve" smooth="yes"/>
      <point x="909" y="672"/>
      <point x="921" y="714"/>
      <point x="921" y="756" type="curve" smooth="yes"/>
      <point x="921" y="852"/>
      <point x="851" y="940"/>
      <point x="750" y="940" type="curve" smooth="yes"/>
      <point x="433" y="940" type="line"/>
    </contour>
  </outline>
</glyph>
<glyph name="germandbls" format="2">
  <advance width="1202"/>
  <unicode hex="00DF"/>
  <outline>
    <contour>
      <point x="546" y="-30" type="curve" smooth="yes"/>
      <point x="488" y="-30"/>
      <point x="428" y="-26"/>
      <point x="375" y="0" type="curve"/>
      <point x="418" y="266" type="line"/>
      <point x="462" y="247"/>
      <point x="503" y="236"/>
      <point x="551" y="236" type="curve" smooth="yes"/>
      <point x="700" y="236"/>
      <point x="804" y="321"/>
      <point x="804" y="475" type="curve"/>
      <point x="804" y="475"/>
      <point x="804" y="475"/>
      <point x="804" y="475" type="curve"/>
      <point x="804" y="615"/>
      <point x="660" y="644"/>
      <point x="548" y="644" type="curve"/>
      <point x="585" y="880" type="line"/>
      <point x="701" y="888"/>
      <point x="791" y="958"/>
      <point x="791" y="1082" type="curve"/>
      <point x="791" y="1082"/>
      <point x="791" y="1082"/>
      <point x="791" y="1082" type="curve"/>
      <point x="791" y="1168"/>
      <point x="716" y="1216"/>
      <point x="636" y="1216" type="curve" smooth="yes"/>
      <point x="589" y="1216"/>
      <point x="552" y="1204"/>
      <point x="523" y="1184" type="curve" smooth="yes"/>
      <point x="465" y="1143"/>
      <point x="438" y="1069"/>
      <point x="425" y="986" type="curve" smooth="yes"/>
      <point x="269" y="0" type="line"/>
      <point x="11" y="0" type="line"/>
      <point x="179" y="1060" type="line" smooth="yes"/>
      <point x="220" y="1318"/>
      <point x="420" y="1470"/>
      <point x="677" y="1470" type="curve" smooth="yes"/>
      <point x="861" y="1470"/>
      <point x="1018" y="1363"/>
      <point x="1048" y="1186" type="curve" smooth="yes"/>
      <point x="1051" y="1166"/>
      <point x="1053" y="1145"/>
      <point x="1053" y="1124" type="curve" smooth="yes"/>
      <point x="1053" y="1002"/>
      <point x="1002" y="879"/>
      <point x="909" y="798" type="curve"/>
      <point x="928" y="789"/>
      <point x="944" y="779"/>
      <point x="959" y="767" type="curve" smooth="yes"/>
      <point x="1034" y="707"/>
      <point x="1062" y="610"/>
      <point x="1062" y="512" type="curve" smooth="yes"/>
      <point x="1062" y="484"/>
      <point x="1059" y="456"/>
      <point x="1055" y="428" type="curve" smooth="yes"/>
      <point x="1052" y="408"/>
      <point x="1048" y="389"/>
      <point x="1043" y="370" type="curve" smooth="yes"/>
      <point x="985" y="125"/>
      <point x="815" y="-30"/>
    </contour>
  </outline>
</glyph>
<glyph name="atilde" format="2">
  <advance width="1088"/>
  <unicode hex="00E3"/>
  <outline>
    <component base="a"/>
    <contour>
      <point x="775" y="1236" type="curve" smooth="yes"/>
      <point x="652" y="1236"/>
      <point x="574" y="1384"/>
      <point x="498" y="1384" type="curve" smooth="yes"/>
      <point x="447" y="1384"/>
      <point x="438" y="1303"/>
      <point x="441" y="1266" type="curve"/>
      <point x="283" y="1266" type="line"/>
      <point x="282" y="1278"/>
      <point x="282" y="1289"/>
      <point x="282" y="1301" type="curve" smooth="yes"/>
      <point x="282" y="1444"/>
      <point x="344" y="1578"/>
      <point x="505" y="1578" type="curve" smooth="yes"/>
      <point x="632" y="1578"/>
      <point x="705" y="1430"/>
      <point x="783" y="1430" type="curve" smooth="yes"/>
      <point x="837" y="1430"/>
      <point x="842" y="1510"/>
      <point x="839" y="1548" type="curve"/>
      <point x="997" y="1548" type="line"/>
      <point x="998" y="1535"/>
      <point x="999" y="1522"/>
      <point x="999" y="1509" type="curve" smooth="yes"/>
      <point x="999" y="1368"/>
      <point x="933" y="1236"/>
    </contour>
  </outline>
</glyph>
<glyph name="aring" format="2">
  <advance width="1088"/>
  <unicode hex="00E5"/>
  <outline>
    <component base="a"/>
    <contour>
      <point x="585" y="1190" type="curve" smooth="yes"/>
      <point x="459" y="1190"/>
      <point x="369" y="1289"/>
      <point x="369" y="1413" type="curve" smooth="yes"/>
      <point x="369" y="1574"/>
      <point x="506" y="1730"/>
      <point x="671" y="1730" type="curve" smooth="yes"/>
      <point x="797" y="1730"/>
      <point x="887" y="1631"/>
      <point x="887" y="1507" type="curve" smooth="yes"/>
      <point x="887" y="1347"/>
      <point x="750" y="1190"/>
    </contour>
    <contour>
      <point x="610" y="1350" type="curve" smooth="yes"/>
      <point x="678" y="1350"/>
      <point x="734" y="1413"/>
      <point x="734" y="1479" type="curve" smooth="yes"/>
      <point x="734" y="1531"/>
      <point x="697" y="1570"/>
      <point x="645" y="1570" type="curve" smooth="yes"/>
      <point x="578" y="1570"/>
      <point x="521" y="1507"/>
      <point x="521" y="1441" type="curve" smooth="yes"/>
      <point x="521" y="1390"/>
      <point x="558" y="1350"/>
    </contour>
  </outline>
</glyph>
<glyph name="ae" format="2">
  <advance width="1756"/>
  <unicode hex="00E6"/>
  <outline>
    <contour>
      <point x="1170" y="-30" type="qcurve" smooth="yes"/>
      <point x="1062" y="-30"/>
      <point x="892" y="45"/>
      <point x="775" y="176"/>
      <point x="713" y="355"/>
      <point x="713" y="459" type="qcurve" smooth="yes"/>
      <point x="713" y="540"/>
      <point x="744" y="699"/>
      <point x="806" y="843"/>
      <point x="897" y="967"/>
      <point x="1018" y="1058"/>
      <point x="1167" y="1110"/>
      <point x="1256" y="1110" type="qcurve" smooth="yes"/>
      <point x="1364" y="1110"/>
      <point x="1519" y="1034"/>
      <point x="1618" y="903"/>
      <point x="1665" y="728"/>
      <point x="1665" y="629" type="qcurve" smooth="yes"/>
      <point x="1665" y="587"/>
      <point x="1658" y="505"/>
      <point x="1651" y="464" type="qcurve"/>
      <point x="1410" y="464" type="line"/>
      <point x="1414" y="509"/>
      <point x="1423" y="596"/>
      <point x="1423" y="641" type="qcurve" smooth="yes"/>
      <point x="1423" y="694"/>
      <point x="1409" y="780"/>
      <point x="1369" y="841"/>
      <point x="1295" y="874"/>
      <point x="1235" y="874" type="qcurve" smooth="yes"/>
      <point x="1183" y="874"/>
      <point x="1102" y="840"/>
      <point x="1044" y="782"/>
      <point x="1004" y="705"/>
      <point x="980" y="618"/>
      <point x="970" y="527"/>
      <point x="970" y="484" type="qcurve" smooth="yes"/>
      <point x="970" y="433"/>
      <point x="991" y="339"/>
      <point x="1039" y="267"/>
      <point x="1119" y="224"/>
      <point x="1177" y="224" type="qcurve" smooth="yes"/>
      <point x="1248" y="224"/>
      <point x="1359" y="297"/>
      <point x="1390" y="360" type="qcurve"/>
      <point x="1626" y="282" type="line"/>
      <point x="1596" y="215"/>
      <point x="1502" y="101"/>
      <point x="1383" y="17"/>
      <point x="1245" y="-30"/>
    </contour>
    <contour>
      <point x="409" y="182" type="qcurve" smooth="yes"/>
      <point x="484" y="182"/>
      <point x="594" y="240"/>
      <point x="666" y="337"/>
      <point x="703" y="464"/>
      <point x="706" y="532" type="qcurve"/>
      <point x="795" y="498" type="line"/>
      <point x="576" y="470" type="line" smooth="yes"/>
      <point x="537" y="465"/>
      <point x="432" y="446"/>
      <point x="339" y="406"/>
      <point x="274" y="340"/>
      <point x="274" y="288" type="qcurve" smooth="yes"/>
      <point x="274" y="260"/>
      <point x="298" y="219"/>
      <point x="336" y="194"/>
      <point x="384" y="182"/>
    </contour>
    <contour>
      <point x="349" y="-30" type="qcurve" smooth="yes"/>
      <point x="281" y="-30"/>
      <point x="162" y="4"/>
      <point x="73" y="75"/>
      <point x="21" y="183"/>
      <point x="21" y="256" type="qcurve" smooth="yes"/>
      <point x="21" y="330"/>
      <point x="65" y="441"/>
      <point x="141" y="524"/>
      <point x="242" y="580"/>
      <point x="358" y="619"/>
      <point x="481" y="642"/>
      <point x="540" y="650" type="qcurve" smooth="yes"/>
      <point x="775" y="682" type="line"/>
      <point x="711" y="630" type="line"/>
      <point x="715" y="649"/>
      <point x="720" y="686"/>
      <point x="720" y="705" type="qcurve" smooth="yes"/>
      <point x="720" y="745"/>
      <point x="694" y="804"/>
      <point x="647" y="843"/>
      <point x="584" y="862"/>
      <point x="546" y="862" type="qcurve" smooth="yes"/>
      <point x="475" y="862"/>
      <point x="360" y="794"/>
      <point x="328" y="730" type="qcurve"/>
      <point x="105" y="804" type="line"/>
      <point x="140" y="873"/>
      <point x="237" y="985"/>
      <point x="357" y="1066"/>
      <point x="498" y="1110"/>
      <point x="576" y="1110" type="qcurve" smooth="yes"/>
      <point x="664" y="1110"/>
      <point x="810" y="1065"/>
      <point x="914" y="973"/>
      <point x="972" y="836"/>
      <point x="972" y="743" type="qcurve" smooth="yes"/>
      <point x="972" y="739"/>
      <point x="971" y="708"/>
      <point x="970" y="674"/>
      <point x="968" y="645"/>
      <point x="968" y="644" type="qcurve"/>
      <point x="800" y="212" type="line" smooth="yes"/>
      <point x="795" y="199"/>
      <point x="763" y="159"/>
      <point x="723" y="118"/>
      <point x="684" y="82"/>
      <point x="673" y="73" type="qcurve" smooth="yes"/>
      <point x="601" y="17"/>
      <point x="440" y="-30"/>
    </contour>
    <contour>
      <point x="886" y="464" type="line"/>
      <point x="919" y="674" type="line"/>
      <point x="1560" y="674" type="line"/>
      <point x="1527" y="464" type="line"/>
    </contour>
  </outline>
</glyph>
<glyph name="ccedilla" format="2">
  <advance width="1095"/>
  <unicode hex="00E7"/>
  <outline>
    <component base="c"/>
    <contour>
      <point x="381" y="-484" type="curve" smooth="yes"/>
      <point x="334" y="-484"/>
      <point x="292" y="-471"/>
      <point x="253" y="-446" type="curve"/>
      <point x="332" y="-290" type="line"/>
      <point x="350" y="-296"/>
      <point x="369" y="-302"/>
      <point x="388" y="-302" type="curve" smooth="yes"/>
      <point x="421" y="-302"/>
      <point x="449" y="-280"/>
      <point x="449" y="-246" type="curve" smooth="yes"/>
      <point x="449" y="-201"/>
      <point x="373" y="-181"/>
      <point x="338" y="-170" type="curve"/>
      <point x="437" y="34" type="line"/>
      <point x="586" y="36" type="line"/>
      <point x="535" y="-72" type="line"/>
      <point x="592" y="-105"/>
      <point x="623" y="-157"/>
      <point x="623" y="-223" type="curve" smooth="yes"/>
      <point x="623" y="-355"/>
      <point x="518" y="-484"/>
    </contour>
  </outline>
</glyph>
<glyph name="egrave" format="2">
  <advance width="1141"/>
  <unicode hex="00E8"/>
  <outline>
    <component base="e"/>
    <contour>
      <point x="743" y="1620" type="line"/>
      <point x="499" y="1620" type="line"/>
      <point x="595" y="1230" type="line"/>
      <point x="757" y="1230" type="line"/>
    </contour>
  </outline>
</glyph>
<glyph name="eacute" format="2">
  <advance width="1141"/>
  <unicode hex="00E9"/>
  <outline>
    <component base="e"/>
    <contour>
      <point x="665" y="1620" type="line"/>
      <point x="528" y="1230" type="line"/>
      <point x="690" y="1230" type="line"/>
      <point x="909" y="1620" type="line"/>
    </contour>
  </outline>
</glyph>
<glyph name="ecircumflex" format="2">
  <advance width="1141"/>
  <unicode hex="00EA"/>
  <outline>
    <component base="e"/>
    <contour>
      <point x="310" y="1230" type="line"/>
      <point x="635" y="1560" type="line"/>
      <point x="848" y="1560" type="line"/>
      <point x="1068" y="1230" type="line"/>
      <point x="832" y="1230" type="line"/>
      <point x="718" y="1410" type="line"/>
      <point x="547" y="1230" type="line"/>
    </contour>
  </outline>
</glyph>
<glyph name="igrave" format="2">
  <advance width="537"/>
  <unicode hex="00EC"/>
  <outline>
    <contour>
      <point x="487" y="1620" type="line"/>
      <point x="499" y="1230" type="line"/>
      <point x="339" y="1230" type="line"/>
      <point x="244" y="1620" type="line"/>
    </contour>
    <contour>
      <point x="115" y="0" type="line"/>
      <point x="286" y="1080" type="line"/>
      <point x="542" y="1080" type="line"/>
      <point x="371" y="0" type="line"/>
    </contour>
  </outline>
</glyph>
<glyph name="eth" format="2">
  <advance width="1125"/>
  <unicode hex="00F0"/>
  <outline>
    <contour>
      <point x="449" y="-30" type="curve"/>
      <point x="449" y="-30" type="line"/>
      <point x="194" y="-30"/>
      <point x="31" y="140"/>
      <point x="31" y="393" type="curve" smooth="yes"/>
      <point x="31" y="632"/>
      <point x="151" y="857"/>
      <point x="348" y="967" type="curve" smooth="yes"/>
      <point x="427" y="1011"/>
      <point x="518" y="1036"/>
      <point x="618" y="1036" type="curve" smooth="yes"/>
      <point x="710" y="1036"/>
      <point x="778" y="1011"/>
      <point x="857" y="966" type="curve"/>
      <point x="857" y="990"/>
      <point x="854" y="1014"/>
      <point x="848" y="1036" type="curve" smooth="yes"/>
      <point x="807" y="1194"/>
      <point x="626" y="1302"/>
      <point x="472" y="1314" type="curve"/>
      <point x="544" y="1520" type="line"/>
      <point x="893" y="1511"/>
      <point x="1038" y="1273"/>
      <point x="1058" y="967" type="curve" smooth="yes"/>
      <point x="1060" y="941"/>
      <point x="1061" y="915"/>
      <point x="1061" y="889" type="curve" smooth="yes"/>
      <point x="1061" y="763"/>
      <point x="1046" y="635"/>
      <point x="1026" y="510" type="curve" smooth="yes"/>
      <point x="978" y="205"/>
      <point x="773" y="-30"/>
    </contour>
    <contour>
      <point x="487" y="210" type="curve" smooth="yes"/>
      <point x="688" y="210"/>
      <point x="776" y="408"/>
      <point x="776" y="583" type="curve" smooth="yes"/>
      <point x="776" y="709"/>
      <point x="713" y="796"/>
      <point x="580" y="796" type="curve"/>
      <point x="580" y="796" type="line"/>
      <point x="374" y="796"/>
      <point x="289" y="604"/>
      <point x="289" y="423" type="curve" smooth="yes"/>
      <point x="289" y="294"/>
      <point x="351" y="210"/>
    </contour>
    <contour>
      <point x="657" y="1058" type="line"/>
      <point x="538" y="1190" type="line"/>
      <point x="911" y="1566" type="line"/>
      <point x="1029" y="1434" type="line"/>
    </contour>
  </outline>
</glyph>
<glyph name="ntilde" format="2">
  <advance width="1184"/>
  <unicode hex="00F1"/>
  <outline>
    <contour>
      <point x="841" y="1236" type="curve" smooth="yes"/>
      <point x="718" y="1236"/>
      <point x="640" y="1384"/>
      <point x="564" y="1384" type="curve" smooth="yes"/>
      <point x="513" y="1384"/>
      <point x="504" y="1303"/>
      <point x="507" y="1266" type="curve"/>
      <point x="349" y="1266" type="line"/>
      <point x="348" y="1278"/>
      <point x="348" y="1289"/>
      <point x="348" y="1301" type="curve" smooth="yes"/>
      <point x="348" y="1434"/>
      <point x="402" y="1560"/>
      <point x="540" y="1576" type="curve" smooth="yes"/>
      <point x="550" y="1577"/>
      <point x="560" y="1578"/>
      <point x="571" y="1578" type="curve" smooth="yes"/>
      <point x="696" y="1578"/>
      <point x="771" y="1430"/>
      <point x="849" y="1430" type="curve" smooth="yes"/>
      <point x="903" y="1430"/>
      <point x="908" y="1510"/>
      <point x="905" y="1548" type="curve"/>
      <point x="1063" y="1548" type="line"/>
      <point x="1064" y="1535"/>
      <point x="1065" y="1522"/>
      <point x="1065" y="1509" type="curve" smooth="yes"/>
      <point x="1065" y="1368"/>
      <point x="999" y="1236"/>
    </contour>
    <contour>
      <point x="709" y="0" type="line"/>
      <point x="790" y="510" type="line" smooth="yes"/>
      <point x="797" y="554"/>
      <point x="803" y="600"/>
      <point x="803" y="644" type="curve"/>
      <point x="803" y="644"/>
      <point x="803" y="644"/>
      <point x="803" y="644" type="curve"/>
      <point x="803" y="767"/>
      <point x="761" y="856"/>
      <point x="625" y="856" type="curve" smooth="yes"/>
      <point x="446" y="856"/>
      <point x="383" y="698"/>
      <point x="358" y="548" type="curve"/>
      <point x="223" y="622" type="line"/>
      <point x="238" y="719"/>
      <point x="273" y="809"/>
      <point x="324" y="885" type="curve" smooth="yes"/>
      <point x="416" y="1022"/>
      <point x="563" y="1112"/>
      <point x="746" y="1112" type="curve" smooth="yes"/>
      <point x="986" y="1112"/>
      <point x="1077" y="968"/>
      <point x="1077" y="742" type="curve" smooth="yes"/>
      <point x="1077" y="697"/>
      <point x="1071" y="651"/>
      <point x="1064" y="606" type="curve" smooth="yes"/>
      <point x="968" y="0" type="line"/>
    </contour>
    <contour>
      <point x="11" y="0" type="line"/>
      <point x="182" y="1080" type="line"/>
      <point x="410" y="1080" type="line"/>
      <point x="353" y="722" type="line"/>
      <point x="385" y="722" type="line"/>
      <point x="271" y="0" type="line"/>
    </contour>
  </outline>
</glyph>
<glyph name="ograve" format="2">
  <advance width="1174"/>
  <unicode hex="00F2"/>
  <outline>
    <component base="o"/>
    <contour>
      <point x="732" y="1620" type="line"/>
      <point x="488" y="1620" type="line"/>
      <point x="584" y="1230" type="line"/>
      <point x="745" y="1230" type="line"/>
    </contour>
  </outline>
</glyph>
<glyph name="oacute" format="2">
  <advance width="1174"/>
  <unicode hex="00F3"/>
  <outline>
    <component base="o"/>
    <contour>
      <point x="766" y="1620" type="line"/>
      <point x="629" y="1230" type="line"/>
      <point x="791" y="1230" type="line"/>
      <point x="1010" y="1620" type="line"/>
    </contour>
  </outline>
</glyph>
<glyph name="ocircumflex" format="2">
  <advance width="1174"/>
  <unicode hex="00F4"/>
  <outline>
    <component base="o"/>
    <contour>
      <point x="311" y="1230" type="line"/>
      <point x="635" y="1560" type="line"/>
      <point x="848" y="1560" type="line"/>
      <point x="1068" y="1230" type="line"/>
      <point x="832" y="1230" type="line"/>
      <point x="718" y="1410" type="line"/>
      <point x="547" y="1230" type="line"/>
    </contour>
  </outline>
</glyph>
<glyph name="otilde" format="2">
  <advance width="1174"/>
  <unicode hex="00F5"/>
  <outline>
    <contour>
      <point x="795" y="1236" type="qcurve" smooth="yes"/>
      <point x="749" y="1236"/>
      <point x="672" y="1282"/>
      <point x="606" y="1338"/>
      <point x="547" y="1384"/>
      <point x="518" y="1384" type="qcurve" smooth="yes"/>
      <point x="499" y="1384"/>
      <point x="475" y="1358"/>
      <point x="463" y="1320"/>
      <point x="460" y="1280"/>
      <point x="461" y="1266" type="qcurve"/>
      <point x="303" y="1266" type="line"/>
      <point x="302" y="1275"/>
      <point x="302" y="1292"/>
      <point x="302" y="1301" type="qcurve" smooth="yes"/>
      <point x="302" y="1355"/>
      <point x="326" y="1455"/>
      <point x="380" y="1532"/>
      <point x="465" y="1578"/>
      <point x="525" y="1578" type="qcurve" smooth="yes"/>
      <point x="573" y="1578"/>
      <point x="649" y="1532"/>
      <point x="715" y="1476"/>
      <point x="774" y="1430"/>
      <point x="803" y="1430" type="qcurve" smooth="yes"/>
      <point x="823" y="1430"/>
      <point x="847" y="1456"/>
      <point x="858" y="1493"/>
      <point x="860" y="1534"/>
      <point x="859" y="1548" type="qcurve"/>
      <point x="1017" y="1548" type="line"/>
      <point x="1018" y="1538"/>
      <point x="1019" y="1519"/>
      <point x="1019" y="1509" type="qcurve" smooth="yes"/>
      <point x="1019" y="1456"/>
      <point x="993" y="1358"/>
      <point x="939" y="1282"/>
      <point x="854" y="1236"/>
    </contour>
    <contour>
      <point x="511" y="-30" type="qcurve" smooth="yes"/>
      <point x="400" y="-30"/>
      <point x="226" y="46"/>
      <point x="106" y="180"/>
      <point x="43" y="363"/>
      <point x="43" y="469" type="qcurve" smooth="yes"/>
      <point x="43" y="594"/>
      <point x="120" y="826"/>
      <point x="267" y="1004"/>
      <point x="478" y="1110"/>
      <point x="612" y="1110" type="qcurve" smooth="yes"/>
      <point x="723" y="1110"/>
      <point x="897" y="1034"/>
      <point x="1018" y="901"/>
      <point x="1082" y="718"/>
      <point x="1082" y="611" type="qcurve" smooth="yes"/>
      <point x="1082" y="485"/>
      <point x="1005" y="253"/>
      <point x="858" y="76"/>
      <point x="646" y="-30"/>
    </contour>
    <contour>
      <point x="534" y="224" type="qcurve" smooth="yes"/>
      <point x="611" y="224"/>
      <point x="716" y="290"/>
      <point x="782" y="396"/>
      <point x="811" y="528"/>
      <point x="811" y="593" type="qcurve" smooth="yes"/>
      <point x="811" y="647"/>
      <point x="787" y="743"/>
      <point x="735" y="815"/>
      <point x="650" y="856"/>
      <point x="590" y="856" type="qcurve" smooth="yes"/>
      <point x="512" y="856"/>
      <point x="406" y="790"/>
      <point x="342" y="685"/>
      <point x="314" y="552"/>
      <point x="314" y="486" type="qcurve" smooth="yes"/>
      <point x="314" y="432"/>
      <point x="338" y="337"/>
      <point x="390" y="265"/>
      <point x="474" y="224"/>
    </contour>
  </outline>
</glyph>
<glyph name="oslash" format="2">
  <advance width="1177"/>
  <unicode hex="00F8"/>
  <outline>
    <contour>
      <point x="104" y="-30" type="qcurve"/>
      <point x="-37" y="150" type="line"/>
      <point x="-4" y="180"/>
      <point x="63" y="241"/>
      <point x="96" y="271" type="qcurve" smooth="yes"/>
      <point x="116" y="289"/>
      <point x="142" y="315"/>
      <point x="163" y="332" type="qcurve"/>
      <point x="167" y="335"/>
      <point x="192" y="346"/>
      <point x="220" y="358"/>
      <point x="244" y="369"/>
      <point x="247" y="372" type="qcurve"/>
      <point x="390" y="500"/>
      <point x="670" y="754"/>
      <point x="813" y="882" type="qcurve"/>
      <point x="821" y="898"/>
      <point x="834" y="928"/>
      <point x="842" y="944" type="qcurve"/>
      <point x="888" y="986"/>
      <point x="979" y="1068"/>
      <point x="1025" y="1110" type="qcurve"/>
      <point x="1165" y="928" type="line"/>
      <point x="1117" y="885"/>
      <point x="1022" y="799"/>
      <point x="974" y="756" type="qcurve"/>
      <point x="957" y="749"/>
      <point x="925" y="737"/>
      <point x="908" y="730" type="qcurve"/>
      <point x="768" y="604"/>
      <point x="493" y="354"/>
      <point x="353" y="228" type="qcurve" smooth="yes"/>
      <point x="336" y="212"/>
      <point x="308" y="157"/>
      <point x="291" y="140" type="qcurve"/>
      <point x="274" y="122"/>
      <point x="247" y="100"/>
      <point x="229" y="83" type="qcurve" smooth="yes"/>
      <point x="197" y="54"/>
      <point x="136" y="-1"/>
    </contour>
    <contour>
      <point x="513" y="-30" type="qcurve" smooth="yes"/>
      <point x="402" y="-30"/>
      <point x="228" y="46"/>
      <point x="108" y="179"/>
      <point x="45" y="362"/>
      <point x="45" y="469" type="qcurve" smooth="yes"/>
      <point x="45" y="595"/>
      <point x="122" y="826"/>
      <point x="268" y="1004"/>
      <point x="480" y="1110"/>
      <point x="614" y="1110" type="qcurve" smooth="yes"/>
      <point x="725" y="1110"/>
      <point x="899" y="1034"/>
      <point x="1020" y="901"/>
      <point x="1084" y="718"/>
      <point x="1084" y="611" type="qcurve" smooth="yes"/>
      <point x="1084" y="485"/>
      <point x="1007" y="253"/>
      <point x="860" y="76"/>
      <point x="648" y="-30"/>
    </contour>
    <contour>
      <point x="535" y="224" type="qcurve" smooth="yes"/>
      <point x="612" y="224"/>
      <point x="718" y="290"/>
      <point x="784" y="396"/>
      <point x="813" y="527"/>
      <point x="813" y="593" type="qcurve" smooth="yes"/>
      <point x="813" y="648"/>
      <point x="789" y="744"/>
      <point x="736" y="815"/>
      <point x="651" y="856"/>
      <point x="591" y="856" type="qcurve" smooth="yes"/>
      <point x="513" y="856"/>
      <point x="408" y="790"/>
      <point x="343" y="685"/>
      <point x="315" y="552"/>
      <point x="315" y="486" type="qcurve" smooth="yes"/>
      <point x="315" y="432"/>
      <point x="339" y="337"/>
      <point x="391" y="265"/>
      <point x="475" y="224"/>
    </contour>
  </outline>
</glyph>
<glyph name="ugrave" format="2">
  <advance width="1184"/>
  <unicode hex="00F9"/>
  <outline>
    <component base="u"/>
    <contour>
      <point x="738" y="1620" type="line"/>
      <point x="494" y="1620" type="line"/>
      <point x="590" y="1230" type="line"/>
      <point x="751" y="1230" type="line"/>
    </contour>
  </outline>
</glyph>
<glyph name="uacute" format="2">
  <advance width="1184"/>
  <unicode hex="00FA"/>
  <outline>
    <component base="u"/>
    <contour>
      <point x="748" y="1620" type="line"/>
      <point x="611" y="1230" type="line"/>
      <point x="773" y="1230" type="line"/>
      <point x="992" y="1620" type="line"/>
    </contour>
  </outline>
</glyph>
<glyph name="ucircumflex" format="2">
  <advance width="1184"/>
  <unicode hex="00FB"/>
  <outline>
    <component base="u"/>
    <contour>
      <point x="306" y="1230" type="line"/>
      <point x="630" y="1560" type="line"/>
      <point x="843" y="1560" type="line"/>
      <point x="1063" y="1230" type="line"/>
      <point x="827" y="1230" type="line"/>
      <point x="713" y="1410" type="line"/>
      <point x="542" y="1230" type="line"/>
    </contour>
  </outline>
</glyph>
<glyph name="thorn" format="2">
  <advance width="1089"/>
  <unicode hex="00FE"/>
  <outline>
    <contour>
      <point x="75" y="864" type="line"/>
      <point x="166" y="1440" type="line"/>
      <point x="424" y="1440" type="line"/>
      <point x="333" y="864" type="line"/>
    </contour>
    <contour>
      <point x="474" y="-30" type="curve" smooth="yes"/>
      <point x="182" y="-30"/>
      <point x="61" y="192"/>
      <point x="61" y="458" type="curve" smooth="yes"/>
      <point x="61" y="761"/>
      <point x="211" y="1110"/>
      <point x="561" y="1110" type="curve" smooth="yes"/>
      <point x="848" y="1110"/>
      <point x="999" y="883"/>
      <point x="999" y="615" type="curve" smooth="yes"/>
      <point x="999" y="309"/>
      <point x="817" y="-30"/>
    </contour>
    <contour>
      <point x="-140" y="-480" type="line"/>
      <point x="107" y="1080" type="line"/>
      <point x="333" y="1080" type="line"/>
      <point x="216" y="340" type="line"/>
      <point x="248" y="340" type="line"/>
      <point x="118" y="-480" type="line"/>
    </contour>
    <contour>
      <point x="454" y="212" type="curve" smooth="yes"/>
      <point x="655" y="212"/>
      <point x="726" y="421"/>
      <point x="726" y="590" type="curve" smooth="yes"/>
      <point x="726" y="737"/>
      <point x="667" y="868"/>
      <point x="502" y="868" type="curve" smooth="yes"/>
      <point x="292" y="868"/>
      <point x="245" y="641"/>
      <point x="245" y="473" type="curve" smooth="yes"/>
      <point x="245" y="328"/>
      <point x="290" y="212"/>
    </contour>
  </outline>
</glyph>
<glyph name="amacron" format="2">
  <advance width="1088"/>
  <unicode hex="0101"/>
  <outline>
    <component base="a"/>
    <contour>
      <point x="443" y="1320" type="line"/>
      <point x="476" y="1528" type="line"/>
      <point x="992" y="1528" type="line"/>
      <point x="959" y="1320" type="line"/>
    </contour>
  </outline>
</glyph>
<glyph name="Abreve" format="2">
  <advance width="1330"/>
  <unicode hex="0102"/>
  <outline>
    <contour>
      <point x="803" y="1560" type="qcurve" smooth="yes"/>
      <point x="746" y="1560"/>
      <point x="649" y="1600"/>
      <point x="578" y="1671"/>
      <point x="538" y="1768"/>
      <point x="538" y="1825" type="qcurve" smooth="yes"/>
      <point x="538" y="1839"/>
      <point x="540" y="1864"/>
      <point x="542" y="1878" type="qcurve"/>
      <point x="748" y="1878" type="line"/>
      <point x="747" y="1873"/>
      <point x="747" y="1865"/>
      <point x="747" y="1860" type="qcurve" smooth="yes"/>
      <point x="747" y="1841"/>
      <point x="761" y="1808"/>
      <point x="785" y="1784"/>
      <point x="818" y="1770"/>
      <point x="837" y="1770" type="qcurve" smooth="yes"/>
      <point x="860" y="1770"/>
      <point x="901" y="1787"/>
      <point x="934" y="1817"/>
      <point x="956" y="1856"/>
      <point x="960" y="1878" type="qcurve"/>
      <point x="1165" y="1878" type="line"/>
      <point x="1155" y="1814"/>
      <point x="1089" y="1698"/>
      <point x="991" y="1611"/>
      <point x="869" y="1560"/>
    </contour>
    <contour>
      <point x="-75" y="0" type="line"/>
      <point x="584" y="1440" type="line"/>
      <point x="982" y="1440" type="line"/>
      <point x="1185" y="0" type="line"/>
      <point x="911" y="0" type="line"/>
      <point x="728" y="1270" type="line"/>
      <point x="779" y="1270" type="line"/>
      <point x="200" y="0" type="line"/>
    </contour>
    <contour>
      <point x="231" y="300" type="line"/>
      <point x="272" y="554" type="line"/>
      <point x="1016" y="554" type="line"/>
      <point x="976" y="300" type="line"/>
    </contour>
  </outline>
</glyph>
<glyph name="abreve" format="2">
  <advance width="1088"/>
  <unicode hex="0103"/>
  <outline>
    <component base="a"/>
    <contour>
      <point x="653" y="1200" type="curve" smooth="yes"/>
      <point x="504" y="1200"/>
      <point x="398" y="1317"/>
      <point x="398" y="1463" type="curve" smooth="yes"/>
      <point x="398" y="1481"/>
      <point x="400" y="1500"/>
      <point x="403" y="1518" type="curve"/>
      <point x="601" y="1518" type="line"/>
      <point x="600" y="1512"/>
      <point x="599" y="1505"/>
      <point x="599" y="1499" type="curve" smooth="yes"/>
      <point x="599" y="1448"/>
      <point x="635" y="1410"/>
      <point x="686" y="1410" type="curve" smooth="yes"/>
      <point x="746" y="1410"/>
      <point x="797" y="1460"/>
      <point x="806" y="1518" type="curve"/>
      <point x="1003" y="1518" type="line"/>
      <point x="976" y="1351"/>
      <point x="827" y="1200"/>
    </contour>
  </outline>
</glyph>
<glyph name="Aogonek" format="2">
  <advance width="1330"/>
  <unicode hex="0104"/>
  <outline>
    <contour>
      <point x="908" y="-478" type="curve" smooth="yes"/>
      <point x="798" y="-478"/>
      <point x="723" y="-399"/>
      <point x="723" y="-289" type="curve" smooth="yes"/>
      <point x="723" y="-103"/>
      <point x="937" y="68"/>
      <point x="1095" y="132" type="curve"/>
      <point x="1185" y="0" type="line"/>
      <point x="1115" y="-34"/>
      <point x="932" y="-152"/>
      <point x="932" y="-238" type="curve" smooth="yes"/>
      <point x="932" y="-263"/>
      <point x="952" y="-280"/>
      <point x="976" y="-280" type="curve" smooth="yes"/>
      <point x="1002" y="-280"/>
      <point x="1028" y="-265"/>
      <point x="1048" y="-250" type="curve"/>
      <point x="1120" y="-374" type="line"/>
      <point x="1067" y="-434"/>
      <point x="989" y="-478"/>
    </contour>
    <contour>
      <point x="-75" y="0" type="line"/>
      <point x="584" y="1440" type="line"/>
      <point x="982" y="1440" type="line"/>
      <point x="1185" y="0" type="line"/>
      <point x="911" y="0" type="line"/>
      <point x="728" y="1270" type="line"/>
      <point x="779" y="1270" type="line"/>
      <point x="200" y="0" type="line"/>
    </contour>
    <contour>
      <point x="231" y="300" type="line"/>
      <point x="272" y="554" type="line"/>
      <point x="1016" y="554" type="line"/>
      <point x="976" y="300" type="line"/>
    </contour>
  </outline>
</glyph>
<glyph name="aogonek" format="2">
  <advance width="1088"/>
  <unicode hex="0105"/>
  <outline>
    <component base="a"/>
    <contour>
      <point x="622" y="-478" type="curve" smooth="yes"/>
      <point x="514" y="-478"/>
      <point x="446" y="-395"/>
      <point x="446" y="-290" type="curve" smooth="yes"/>
      <point x="446" y="-106"/>
      <point x="649" y="66"/>
      <point x="805" y="132" type="curve"/>
      <point x="891" y="0" type="line"/>
      <point x="821" y="-35"/>
      <point x="647" y="-153"/>
      <point x="647" y="-238" type="curve" smooth="yes"/>
      <point x="647" y="-263"/>
      <point x="665" y="-280"/>
      <point x="689" y="-280" type="curve" smooth="yes"/>
      <point x="713" y="-280"/>
      <point x="739" y="-264"/>
      <point x="758" y="-250" type="curve"/>
      <point x="826" y="-374" type="line"/>
      <point x="776" y="-433"/>
      <point x="701" y="-478"/>
    </contour>
  </outline>
</glyph>
<glyph name="Cacute" format="2">
  <advance width="1448"/>
  <unicode hex="0106"/>
  <outline>
    <component base="C"/>
    <contour>
      <point x="996" y="1980" type="line"/>
      <point x="857" y="1590" type="line"/>
      <point x="1023" y="1590" type="line"/>
      <point x="1248" y="1980" type="line"/>
    </contour>
  </outline>
</glyph>
<glyph name="Ccircumflex" format="2">
  <advance width="1448"/>
  <unicode hex="0108"/>
  <outline>
    <contour>
      <point x="503" y="1590" type="line"/>
      <point x="837" y="1920" type="line"/>
      <point x="1057" y="1920" type="line"/>
      <point x="1287" y="1590" type="line"/>
      <point x="1042" y="1590" type="line"/>
      <point x="923" y="1770" type="line"/>
      <point x="748" y="1590" type="line"/>
    </contour>
    <contour>
      <point x="675" y="-30" type="qcurve" smooth="yes"/>
      <point x="539" y="-30"/>
      <point x="319" y="51"/>
      <point x="159" y="202"/>
      <point x="65" y="418"/>
      <point x="55" y="553" type="qcurve" smooth="yes"/>
      <point x="47" y="673"/>
      <point x="81" y="902"/>
      <point x="163" y="1106"/>
      <point x="291" y="1277"/>
      <point x="464" y="1401"/>
      <point x="680" y="1470"/>
      <point x="808" y="1470" type="qcurve" smooth="yes"/>
      <point x="919" y="1470"/>
      <point x="1115" y="1412"/>
      <point x="1272" y="1298"/>
      <point x="1383" y="1127"/>
      <point x="1408" y="1014" type="qcurve"/>
      <point x="1133" y="938" type="line"/>
      <point x="1121" y="1007"/>
      <point x="1059" y="1111"/>
      <point x="968" y="1180"/>
      <point x="852" y="1214"/>
      <point x="785" y="1214" type="qcurve" smooth="yes"/>
      <point x="700" y="1214"/>
      <point x="564" y="1163"/>
      <point x="460" y="1074"/>
      <point x="388" y="954"/>
      <point x="346" y="815"/>
      <point x="331" y="664"/>
      <point x="336" y="589" type="qcurve" smooth="yes"/>
      <point x="342" y="506"/>
      <point x="391" y="372"/>
      <point x="481" y="277"/>
      <point x="611" y="226"/>
      <point x="698" y="226" type="qcurve" smooth="yes"/>
      <point x="770" y="226"/>
      <point x="893" y="263"/>
      <point x="994" y="334"/>
      <point x="1071" y="437"/>
      <point x="1095" y="502" type="qcurve"/>
      <point x="1356" y="426" type="line"/>
      <point x="1312" y="319"/>
      <point x="1178" y="149"/>
      <point x="1004" y="32"/>
      <point x="795" y="-30"/>
    </contour>
  </outline>
</glyph>
<glyph name="ccircumflex" format="2">
  <advance width="1095"/>
  <unicode hex="0109"/>
  <outline>
    <component base="c"/>
    <contour>
      <point x="231" y="1230" type="line"/>
      <point x="555" y="1560" type="line"/>
      <point x="768" y="1560" type="line"/>
      <point x="989" y="1230" type="line"/>
      <point x="752" y="1230" type="line"/>
      <point x="638" y="1410" type="line"/>
      <point x="467" y="1230" type="line"/>
    </contour>
  </outline>
</glyph>
<glyph name="Cdotaccent" format="2">
  <advance width="1448"/>
  <unicode hex="010A"/>
  <outline>
    <contour>
      <point x="913" y="1626" type="qcurve" smooth="yes"/>
      <point x="855" y="1626"/>
      <point x="780" y="1698"/>
      <point x="780" y="1757" type="qcurve" smooth="yes"/>
      <point x="780" y="1794"/>
      <point x="809" y="1861"/>
      <point x="859" y="1912"/>
      <point x="926" y="1942"/>
      <point x="963" y="1942" type="qcurve" smooth="yes"/>
      <point x="1020" y="1942"/>
      <point x="1097" y="1873"/>
      <point x="1097" y="1814" type="qcurve" smooth="yes"/>
      <point x="1097" y="1776"/>
      <point x="1068" y="1707"/>
      <point x="1018" y="1656"/>
      <point x="951" y="1626"/>
    </contour>
    <contour>
      <point x="675" y="-30" type="qcurve" smooth="yes"/>
      <point x="539" y="-30"/>
      <point x="319" y="51"/>
      <point x="159" y="202"/>
      <point x="65" y="418"/>
      <point x="55" y="553" type="qcurve" smooth="yes"/>
      <point x="47" y="673"/>
      <point x="81" y="902"/>
      <point x="163" y="1106"/>
      <point x="291" y="1277"/>
      <point x="464" y="1401"/>
      <point x="680" y="1470"/>
      <point x="808" y="1470" type="qcurve" smooth="yes"/>
      <point x="919" y="1470"/>
      <point x="1115" y="1412"/>
      <point x="1272" y="1298"/>
      <point x="1383" y="1127"/>
      <point x="1408" y="1014" type="qcurve"/>
      <point x="1133" y="938" type="line"/>
      <point x="1121" y="1007"/>
      <point x="1059" y="1111"/>
      <point x="968" y="1180"/>
      <point x="852" y="1214"/>
      <point x="785" y="1214" type="qcurve" smooth="yes"/>
      <point x="700" y="1214"/>
      <point x="564" y="1163"/>
      <point x="460" y="1074"/>
      <point x="388" y="954"/>
      <point x="346" y="815"/>
      <point x="331" y="664"/>
      <point x="336" y="589" type="qcurve" smooth="yes"/>
      <point x="342" y="506"/>
      <point x="391" y="372"/>
      <point x="481" y="277"/>
      <point x="611" y="226"/>
      <point x="698" y="226" type="qcurve" smooth="yes"/>
      <point x="770" y="226"/>
      <point x="893" y="263"/>
      <point x="994" y="334"/>
      <point x="1071" y="437"/>
      <point x="1095" y="502" type="qcurve"/>
      <point x="1356" y="426" type="line"/>
      <point x="1312" y="319"/>
      <point x="1178" y="149"/>
      <point x="1004" y="32"/>
      <point x="795" y="-30"/>
    </contour>
  </outline>
</glyph>
<glyph name="cdotaccent" format="2">
  <advance width="1095"/>
  <unicode hex="010B"/>
  <outline>
    <component base="c"/>
    <contour>
      <point x="621" y="1266" type="curve" smooth="yes"/>
      <point x="545" y="1266"/>
      <point x="494" y="1321"/>
      <point x="494" y="1396" type="curve" smooth="yes"/>
      <point x="494" y="1493"/>
      <point x="572" y="1582"/>
      <point x="671" y="1582" type="curve" smooth="yes"/>
      <point x="746" y="1582"/>
      <point x="798" y="1530"/>
      <point x="798" y="1455" type="curve" smooth="yes"/>
      <point x="798" y="1357"/>
      <point x="723" y="1266"/>
    </contour>
  </outline>
</glyph>
<glyph name="Ccaron" format="2">
  <advance width="1448"/>
  <unicode hex="010C"/>
  <outline>
    <component base="C"/>
    <contour>
      <point x="547" y="1920" type="line"/>
      <point x="792" y="1920" type="line"/>
      <point x="911" y="1740" type="line"/>
      <point x="1086" y="1920" type="line"/>
      <point x="1331" y="1920" type="line"/>
      <point x="997" y="1590" type="line"/>
      <point x="777" y="1590" type="line"/>
    </contour>
  </outline>
</glyph>
<glyph name="ccaron" format="2">
  <advance width="1095"/>
  <unicode hex="010D"/>
  <outline>
    <component base="c"/>
    <contour>
      <point x="295" y="1560" type="line"/>
      <point x="531" y="1560" type="line"/>
      <point x="645" y="1380" type="line"/>
      <point x="816" y="1560" type="line"/>
      <point x="1054" y="1560" type="line"/>
      <point x="728" y="1230" type="line"/>
      <point x="515" y="1230" type="line"/>
    </contour>
  </outline>
</glyph>
<glyph name="Dcaron" format="2">
  <advance width="1367"/>
  <unicode hex="010E"/>
  <outline>
    <component base="D"/>
    <contour>
      <point x="427" y="1920" type="line"/>
      <point x="672" y="1920" type="line"/>
      <point x="791" y="1740" type="line"/>
      <point x="966" y="1920" type="line"/>
      <point x="1211" y="1920" type="line"/>
      <point x="877" y="1590" type="line"/>
      <point x="657" y="1590" type="line"/>
    </contour>
  </outline>
</glyph>
<glyph name="dcroat" format="2">
  <advance width="1151"/>
  <unicode hex="0111"/>
  <outline>
    <contour>
      <point x="697" y="1160" type="line"/>
      <point x="730" y="1368" type="line"/>
      <point x="1244" y="1368" type="line"/>
      <point x="1211" y="1160" type="line"/>
    </contour>
    <contour>
      <point x="422" y="-30" type="qcurve" smooth="yes"/>
      <point x="316" y="-30"/>
      <point x="157" y="53"/>
      <point x="52" y="191"/>
      <point x="-1" y="371"/>
      <point x="-1" y="468" type="qcurve" smooth="yes"/>
      <point x="-1" y="547"/>
      <point x="30" y="704"/>
      <point x="91" y="847"/>
      <point x="182" y="969"/>
      <point x="301" y="1059"/>
      <point x="449" y="1110"/>
      <point x="536" y="1110" type="qcurve" smooth="yes"/>
      <point x="643" y="1110"/>
      <point x="795" y="1030"/>
      <point x="891" y="895"/>
      <point x="936" y="719"/>
      <point x="936" y="623" type="qcurve" smooth="yes"/>
      <point x="936" y="545"/>
      <point x="910" y="387"/>
      <point x="855" y="242"/>
      <point x="771" y="116"/>
      <point x="657" y="23"/>
      <point x="511" y="-30"/>
    </contour>
    <contour>
      <point x="485" y="212" type="qcurve" smooth="yes"/>
      <point x="540" y="212"/>
      <point x="621" y="246"/>
      <point x="681" y="305"/>
      <point x="720" y="382"/>
      <point x="743" y="470"/>
      <point x="752" y="563"/>
      <point x="752" y="607" type="qcurve" smooth="yes"/>
      <point x="752" y="658"/>
      <point x="735" y="753"/>
      <point x="690" y="825"/>
      <point x="612" y="868"/>
      <point x="552" y="868" type="qcurve" smooth="yes"/>
      <point x="501" y="868"/>
      <point x="419" y="836"/>
      <point x="357" y="780"/>
      <point x="312" y="706"/>
      <point x="284" y="622"/>
      <point x="271" y="532"/>
      <point x="271" y="488" type="qcurve" smooth="yes"/>
      <point x="271" y="436"/>
      <point x="292" y="336"/>
      <point x="342" y="259"/>
      <point x="424" y="212"/>
    </contour>
    <contour>
      <point x="664" y="0" type="line"/>
      <point x="781" y="740" type="line"/>
      <point x="749" y="740" type="line"/>
      <point x="860" y="1440" type="line"/>
      <point x="1117" y="1440" type="line"/>
      <point x="889" y="0" type="line"/>
    </contour>
  </outline>
</glyph>
<glyph name="Emacron" format="2">
  <advance width="1132"/>
  <unicode hex="0112"/>
  <outline>
    <contour>
      <point x="483" y="1680" type="line"/>
      <point x="516" y="1888" type="line"/>
      <point x="1049" y="1888" type="line"/>
      <point x="1016" y="1680" type="line"/>
    </contour>
    <contour>
      <point x="13" y="0" type="line"/>
      <point x="241" y="1440" type="line"/>
      <point x="1162" y="1440" type="line"/>
      <point x="1122" y="1186" type="line"/>
      <point x="468" y="1186" type="line"/>
      <point x="419" y="878" type="line"/>
      <point x="956" y="878" type="line"/>
      <point x="916" y="624" type="line"/>
      <point x="379" y="624" type="line"/>
      <point x="320" y="254" type="line"/>
      <point x="975" y="254" type="line"/>
      <point x="934" y="0" type="line"/>
    </contour>
  </outline>
</glyph>
<glyph name="emacron" format="2">
  <advance width="1141"/>
  <unicode hex="0113"/>
  <outline>
    <component base="e"/>
    <contour>
      <point x="468" y="1320" type="line"/>
      <point x="501" y="1528" type="line"/>
      <point x="1017" y="1528" type="line"/>
      <point x="984" y="1320" type="line"/>
    </contour>
  </outline>
</glyph>
<glyph name="Edotaccent" format="2">
  <advance width="1132"/>
  <unicode hex="0116"/>
  <outline>
    <contour>
      <point x="730" y="1626" type="curve" smooth="yes"/>
      <point x="654" y="1626"/>
      <point x="597" y="1678"/>
      <point x="597" y="1755" type="curve" smooth="yes"/>
      <point x="597" y="1854"/>
      <point x="679" y="1942"/>
      <point x="780" y="1942" type="curve" smooth="yes"/>
      <point x="856" y="1942"/>
      <point x="914" y="1892"/>
      <point x="914" y="1814" type="curve" smooth="yes"/>
      <point x="914" y="1712"/>
      <point x="832" y="1626"/>
    </contour>
    <contour>
      <point x="13" y="0" type="line"/>
      <point x="241" y="1440" type="line"/>
      <point x="1162" y="1440" type="line"/>
      <point x="1122" y="1186" type="line"/>
      <point x="468" y="1186" type="line"/>
      <point x="419" y="878" type="line"/>
      <point x="956" y="878" type="line"/>
      <point x="916" y="624" type="line"/>
      <point x="379" y="624" type="line"/>
      <point x="320" y="254" type="line"/>
      <point x="975" y="254" type="line"/>
      <point x="934" y="0" type="line"/>
    </contour>
  </outline>
</glyph>
<glyph name="edotaccent" format="2">
  <advance width="1141"/>
  <unicode hex="0117"/>
  <outline>
    <component base="e"/>
    <contour>
      <point x="700" y="1266" type="curve" smooth="yes"/>
      <point x="626" y="1266"/>
      <point x="573" y="1320"/>
      <point x="573" y="1394" type="curve" smooth="yes"/>
      <point x="573" y="1491"/>
      <point x="650" y="1582"/>
      <point x="750" y="1582" type="curve" smooth="yes"/>
      <point x="826" y="1582"/>
      <point x="877" y="1529"/>
      <point x="877" y="1453" type="curve" smooth="yes"/>
      <point x="877" y="1355"/>
      <point x="800" y="1266"/>
    </contour>
  </outline>
</glyph>
<glyph name="Eogonek" format="2">
  <advance width="1132"/>
  <unicode hex="0118"/>
  <outline>
    <contour>
      <point x="657" y="-478" type="curve" smooth="yes"/>
      <point x="547" y="-478"/>
      <point x="472" y="-399"/>
      <point x="472" y="-289" type="curve" smooth="yes"/>
      <point x="472" y="-103"/>
      <point x="686" y="68"/>
      <point x="844" y="132" type="curve"/>
      <point x="934" y="0" type="line"/>
      <point x="864" y="-34"/>
      <point x="681" y="-152"/>
      <point x="681" y="-238" type="curve" smooth="yes"/>
      <point x="681" y="-263"/>
      <point x="701" y="-280"/>
      <point x="725" y="-280" type="curve" smooth="yes"/>
      <point x="751" y="-280"/>
      <point x="777" y="-265"/>
      <point x="797" y="-250" type="curve"/>
      <point x="869" y="-374" type="line"/>
      <point x="816" y="-434"/>
      <point x="738" y="-478"/>
    </contour>
    <contour>
      <point x="13" y="0" type="line"/>
      <point x="241" y="1440" type="line"/>
      <point x="1162" y="1440" type="line"/>
      <point x="1122" y="1186" type="line"/>
      <point x="468" y="1186" type="line"/>
      <point x="419" y="878" type="line"/>
      <point x="956" y="878" type="line"/>
      <point x="916" y="624" type="line"/>
      <point x="379" y="624" type="line"/>
      <point x="320" y="254" type="line"/>
      <point x="975" y="254" type="line"/>
      <point x="934" y="0" type="line"/>
    </contour>
  </outline>
</glyph>
<glyph name="eogonek" format="2">
  <advance width="1141"/>
  <unicode hex="0119"/>
  <outline>
    <contour>
      <point x="672" y="-479" type="qcurve" smooth="yes"/>
      <point x="636" y="-479"/>
      <point x="576" y="-458"/>
      <point x="530" y="-419"/>
      <point x="499" y="-367"/>
      <point x="492" y="-335" type="qcurve"/>
      <point x="488" y="-321"/>
      <point x="485" y="-292"/>
      <point x="485" y="-276" type="qcurve" smooth="yes"/>
      <point x="485" y="-235"/>
      <point x="506" y="-159"/>
      <point x="526" y="-124" type="qcurve" smooth="yes"/>
      <point x="543" y="-94"/>
      <point x="594" y="-19"/>
      <point x="654" y="61"/>
      <point x="718" y="140"/>
      <point x="748" y="173" type="qcurve"/>
      <point x="762" y="190"/>
      <point x="790" y="220"/>
      <point x="802" y="232" type="qcurve"/>
      <point x="958" y="204" type="line"/>
      <point x="948" y="191"/>
      <point x="915" y="148"/>
      <point x="876" y="94"/>
      <point x="831" y="32"/>
      <point x="809" y="0" type="qcurve" smooth="yes"/>
      <point x="784" y="-36"/>
      <point x="738" y="-108"/>
      <point x="702" y="-171"/>
      <point x="681" y="-223"/>
      <point x="681" y="-239" type="qcurve" smooth="yes"/>
      <point x="681" y="-256"/>
      <point x="702" y="-278"/>
      <point x="719" y="-278" type="qcurve"/>
      <point x="719" y="-278"/>
      <point x="719" y="-278"/>
      <point x="719" y="-278" type="qcurve"/>
      <point x="728" y="-278"/>
      <point x="748" y="-273"/>
      <point x="767" y="-265"/>
      <point x="785" y="-255"/>
      <point x="792" y="-250" type="qcurve"/>
      <point x="861" y="-374" type="line"/>
      <point x="831" y="-420"/>
      <point x="727" y="-479"/>
    </contour>
    <contour>
      <point x="528" y="-30" type="qcurve" smooth="yes"/>
      <point x="419" y="-30"/>
      <point x="240" y="42"/>
      <point x="112" y="171"/>
      <point x="42" y="352"/>
      <point x="42" y="460" type="qcurve" smooth="yes"/>
      <point x="42" y="586"/>
      <point x="119" y="821"/>
      <point x="266" y="1002"/>
      <point x="479" y="1110"/>
      <point x="614" y="1110" type="qcurve" smooth="yes"/>
      <point x="723" y="1110"/>
      <point x="886" y="1037"/>
      <point x="995" y="908"/>
      <point x="1050" y="733"/>
      <point x="1050" y="630" type="qcurve" smooth="yes"/>
      <point x="1050" y="588"/>
      <point x="1043" y="506"/>
      <point x="1035" y="464" type="qcurve"/>
      <point x="781" y="464" type="line"/>
      <point x="785" y="509"/>
      <point x="794" y="598"/>
      <point x="794" y="643" type="qcurve" smooth="yes"/>
      <point x="794" y="693"/>
      <point x="778" y="778"/>
      <point x="735" y="840"/>
      <point x="662" y="874"/>
      <point x="605" y="874" type="qcurve" smooth="yes"/>
      <point x="520" y="874"/>
      <point x="409" y="806"/>
      <point x="343" y="695"/>
      <point x="316" y="556"/>
      <point x="316" y="484" type="qcurve" smooth="yes"/>
      <point x="316" y="429"/>
      <point x="339" y="334"/>
      <point x="391" y="264"/>
      <point x="475" y="224"/>
      <point x="536" y="224" type="qcurve" smooth="yes"/>
      <point x="611" y="224"/>
      <point x="726" y="294"/>
      <point x="761" y="360" type="qcurve"/>
      <point x="1011" y="282" type="line"/>
      <point x="977" y="212"/>
      <point x="877" y="97"/>
      <point x="752" y="15"/>
      <point x="607" y="-30"/>
    </contour>
    <contour>
      <point x="228" y="464" type="line"/>
      <point x="260" y="666" type="line"/>
      <point x="938" y="666" type="line"/>
      <point x="906" y="464" type="line"/>
    </contour>
  </outline>
</glyph>
<glyph name="ecaron" format="2">
  <advance width="1141"/>
  <unicode hex="011B"/>
  <outline>
    <component base="e"/>
    <contour>
      <point x="362" y="1560" type="line"/>
      <point x="599" y="1560" type="line"/>
      <point x="713" y="1380" type="line"/>
      <point x="884" y="1560" type="line"/>
      <point x="1120" y="1560" type="line"/>
      <point x="796" y="1230" type="line"/>
      <point x="583" y="1230" type="line"/>
    </contour>
  </outline>
</glyph>
